<?xml version="1.0" standalone="no"?>
<!DOCTYPE svg PUBLIC "-//W3C//DTD SVG 20010904//EN"
 "http://www.w3.org/TR/2001/REC-SVG-20010904/DTD/svg10.dtd">
<svg version="1.0" xmlns="http://www.w3.org/2000/svg"
 width="3092.000000pt" height="3092.000000pt" viewBox="0 0 3092.000000 3092.000000"
 preserveAspectRatio="xMidYMid meet">
<metadata>
Created by potrace 1.11, written by Peter Selinger 2001-2013
</metadata>
<g transform="translate(0.000000,3092.000000) scale(0.100000,-0.100000)"
fill="#000000" stroke="none">
<path d="M7839 29946 c-2 -2 -49 -7 -104 -10 -56 -4 -116 -9 -135 -11 -19 -3
-57 -7 -85 -10 -27 -3 -57 -7 -65 -10 -8 -2 -44 -7 -80 -10 -36 -4 -67 -8 -70
-10 -3 -2 -26 -6 -50 -10 -112 -16 -380 -80 -545 -130 -66 -20 -124 -38 -130
-39 -5 -2 -17 -5 -25 -8 -8 -3 -44 -16 -80 -29 -81 -28 -255 -95 -295 -114
-16 -7 -48 -21 -70 -30 -89 -38 -377 -186 -473 -243 -57 -34 -108 -62 -113
-62 -5 0 -9 -4 -9 -10 0 -5 -5 -10 -10 -10 -30 0 -397 -265 -580 -419 -106
-89 -136 -117 -301 -281 -191 -190 -342 -362 -479 -548 -388 -528 -656 -1085
-820 -1705 -17 -64 -33 -125 -35 -135 -2 -9 -15 -73 -29 -142 -89 -438 -121
-985 -81 -1395 1 -16 6 -66 10 -110 4 -44 11 -102 16 -128 5 -26 8 -51 7 -55
-1 -4 4 -38 11 -77 6 -38 14 -83 17 -100 2 -16 7 -43 11 -60 3 -16 8 -37 9
-45 10 -58 21 -103 56 -240 54 -208 52 -201 91 -320 252 -754 664 -1421 1217
-1970 64 -63 140 -137 170 -164 30 -27 71 -63 90 -80 92 -83 290 -235 440
-338 444 -306 985 -556 1500 -693 102 -27 221 -56 254 -61 22 -3 44 -8 47 -10
4 -2 47 -11 96 -19 48 -9 99 -18 113 -20 14 -3 45 -7 70 -10 25 -3 56 -8 70
-10 199 -35 679 -50 990 -32 69 4 136 9 150 11 14 3 52 7 85 11 33 3 74 8 90
11 17 2 46 6 65 9 19 2 46 6 60 9 14 3 41 7 60 10 28 4 270 54 342 71 215 49
569 170 808 275 115 50 364 175 440 220 30 18 75 44 100 58 87 48 386 252 503
343 353 275 674 603 940 957 80 107 267 385 267 397 0 3 14 27 32 53 32 47
262 498 286 562 8 19 18 44 22 55 68 156 192 526 225 675 2 8 17 74 34 145 16
72 32 148 35 170 4 22 10 63 16 90 9 47 22 143 35 260 3 28 8 61 10 75 25 145
25 769 0 965 -2 17 -7 57 -10 90 -4 33 -8 69 -10 80 -6 54 -18 132 -21 150 -2
11 -9 49 -15 84 -5 36 -12 67 -14 70 -2 4 -6 27 -10 51 -4 25 -20 99 -36 165
-17 66 -32 129 -34 139 -5 22 -11 42 -55 181 -36 113 -96 285 -115 330 -7 17
-35 82 -62 145 -62 150 -194 411 -279 553 -57 96 -182 290 -207 322 -4 6 -40
55 -80 110 -326 446 -753 854 -1237 1180 -77 52 -142 95 -146 95 -3 0 -29 15
-57 33 -193 125 -550 297 -837 404 -71 26 -334 112 -363 118 -10 2 -51 13 -91
24 -40 11 -84 22 -99 25 -15 2 -30 7 -34 9 -5 3 -25 8 -46 11 -22 3 -69 13
-105 21 -37 8 -83 17 -102 19 -19 3 -44 7 -55 10 -11 2 -42 7 -70 10 -27 4
-66 10 -85 12 -19 3 -45 7 -58 9 -12 2 -57 7 -100 10 -42 4 -90 9 -107 12 -34
6 -680 14 -686 9z"/>
<path d="M22519 29946 c-2 -2 -52 -7 -111 -10 -91 -6 -200 -19 -433 -52 -51
-7 -165 -30 -280 -55 -49 -12 -97 -22 -105 -24 -32 -7 -176 -47 -200 -55 -14
-5 -59 -18 -100 -31 -102 -30 -379 -133 -468 -175 -41 -19 -76 -34 -78 -34 -7
0 -277 -135 -339 -170 -79 -44 -277 -161 -290 -172 -5 -4 -46 -32 -90 -61
-189 -127 -281 -196 -480 -366 -141 -120 -421 -403 -544 -551 -365 -436 -632
-885 -837 -1408 -24 -62 -44 -118 -44 -125 0 -7 -4 -17 -8 -22 -5 -6 -19 -44
-32 -85 -12 -41 -31 -100 -41 -132 -32 -98 -97 -356 -114 -458 -3 -19 -8 -42
-10 -50 -3 -13 -7 -34 -20 -115 -9 -54 -25 -166 -31 -220 -3 -33 -8 -68 -10
-78 -25 -136 -25 -874 0 -1015 2 -9 7 -48 11 -87 5 -38 9 -77 10 -85 2 -8 5
-38 9 -66 4 -28 9 -61 11 -75 3 -13 8 -37 10 -54 52 -299 152 -652 272 -955
64 -162 218 -487 287 -605 20 -33 39 -67 43 -75 24 -52 206 -325 303 -455 250
-336 520 -618 861 -900 74 -61 278 -210 369 -269 58 -38 117 -77 131 -86 64
-44 328 -189 464 -255 307 -148 666 -278 972 -350 99 -24 195 -45 227 -49 21
-4 41 -8 45 -10 3 -2 26 -7 51 -10 25 -3 56 -8 70 -11 14 -3 45 -8 70 -11 25
-3 54 -7 66 -9 11 -2 52 -6 90 -10 38 -4 80 -9 94 -11 149 -25 749 -24 953 1
15 2 60 6 100 10 40 4 74 8 77 10 3 2 34 6 70 10 36 4 67 8 70 10 3 2 24 6 46
9 22 4 51 9 64 11 14 3 41 8 60 11 19 3 71 14 115 24 45 11 92 21 105 24 108
22 482 139 595 186 11 5 76 32 145 60 242 101 502 237 738 387 76 48 142 91
147 95 6 5 46 34 90 65 343 245 684 568 959 908 395 488 690 1038 878 1635 21
69 41 132 43 140 45 180 65 260 69 280 3 14 12 61 21 105 9 44 18 95 21 114 3
18 8 43 10 55 2 11 7 41 10 66 3 25 7 56 10 70 2 14 6 52 10 85 3 33 7 70 9
83 19 115 26 652 12 842 -13 161 -18 214 -23 238 -2 12 -7 44 -10 70 -3 26 -7
58 -10 72 -2 14 -7 45 -10 70 -3 25 -7 52 -9 60 -2 8 -7 31 -10 50 -3 19 -15
76 -26 125 -11 50 -22 101 -25 115 -14 70 -106 395 -124 435 -5 11 -16 40 -24
65 -64 200 -223 551 -346 766 -34 60 -71 125 -82 144 -11 19 -59 94 -106 165
-284 431 -644 826 -1042 1144 -63 50 -119 95 -125 99 -116 86 -359 252 -369
252 -2 0 -40 22 -84 49 -347 216 -909 449 -1294 537 -10 2 -26 6 -35 9 -30 8
-286 63 -323 69 -19 3 -44 7 -55 10 -19 3 -81 13 -135 21 -32 5 -99 12 -180
20 -36 4 -81 9 -100 12 -42 6 -675 15 -681 9z"/>
<path d="M4407 18184 c-1 -1 -74 -5 -162 -8 -88 -4 -173 -9 -190 -11 -16 -2
-57 -6 -90 -9 -56 -5 -102 -11 -165 -21 -14 -2 -45 -7 -70 -10 -25 -4 -67 -11
-95 -17 -27 -5 -63 -12 -80 -15 -16 -2 -66 -14 -110 -24 -44 -11 -91 -22 -105
-25 -14 -3 -63 -16 -110 -30 -46 -14 -91 -27 -100 -29 -80 -17 -414 -147 -579
-226 -68 -32 -124 -59 -126 -59 -17 0 -418 -238 -423 -252 -2 -4 -8 -8 -13 -8
-11 0 -157 -103 -274 -194 -246 -191 -494 -432 -706 -686 -93 -111 -289 -383
-335 -465 -6 -11 -42 -72 -79 -135 -87 -149 -179 -333 -250 -501 -75 -177
-200 -555 -219 -659 -2 -14 -11 -52 -19 -85 -9 -33 -18 -73 -21 -90 -3 -16
-12 -68 -20 -115 -18 -104 -24 -144 -31 -212 -3 -29 -8 -62 -10 -73 -17 -87
-20 -740 -20 -4640 0 -3947 3 -4607 19 -4657 3 -7 7 -39 10 -71 3 -32 13 -99
21 -150 9 -51 18 -105 21 -122 38 -228 168 -664 260 -874 9 -20 20 -45 24 -56
32 -77 162 -338 212 -425 126 -219 325 -510 443 -645 14 -16 54 -62 88 -102
138 -160 404 -412 587 -556 47 -37 90 -71 95 -75 6 -4 62 -45 127 -90 302
-211 689 -411 1028 -530 114 -40 299 -99 336 -107 10 -2 53 -13 94 -23 148
-39 382 -82 525 -97 33 -4 71 -8 85 -11 103 -16 680 -19 4145 -19 3460 0 4023
3 4150 20 17 2 55 7 85 10 30 3 66 8 80 10 14 2 54 9 90 15 485 78 1034 269
1434 499 49 28 90 51 92 51 2 0 53 31 113 69 301 191 567 406 816 663 77 79
151 157 165 174 14 16 48 56 76 89 28 33 83 103 122 155 40 52 76 100 80 105
9 12 171 260 189 290 96 159 207 378 277 545 26 63 54 129 62 145 46 103 145
435 189 635 30 135 58 294 70 400 3 30 8 66 10 80 2 14 8 61 12 105 11 105 10
8974 0 9085 -8 83 -32 270 -41 320 -3 14 -7 41 -10 60 -22 141 -63 314 -121
515 -26 89 -115 345 -138 397 -9 18 -32 71 -53 118 -148 338 -379 719 -591
978 -440 535 -913 917 -1499 1210 -343 171 -775 319 -1119 381 -33 6 -70 13
-81 15 -24 5 -66 11 -139 22 -27 3 -58 8 -67 10 -9 1 -48 6 -85 9 -37 4 -78 8
-91 10 -92 15 -759 18 -4060 19 -2053 0 -3734 0 -3735 0z"/>
<path d="M19067 18184 c-1 -1 -76 -5 -167 -9 -91 -3 -176 -8 -190 -10 -14 -1
-54 -6 -90 -10 -36 -4 -72 -8 -80 -10 -8 -1 -42 -6 -75 -10 -32 -3 -62 -8 -65
-10 -3 -1 -27 -6 -55 -9 -39 -6 -288 -59 -375 -81 -105 -26 -375 -114 -445
-144 -11 -5 -67 -28 -125 -51 -224 -91 -503 -238 -730 -388 -207 -136 -360
-255 -549 -426 -122 -111 -221 -210 -221 -223 0 -7 35 -61 78 -120 42 -60 97
-140 121 -178 24 -39 54 -86 67 -105 210 -328 447 -871 555 -1268 33 -123 59
-224 68 -267 27 -124 45 -217 56 -290 21 -129 28 -183 41 -305 3 -30 7 -68 9
-85 16 -113 19 -813 19 -4660 0 -3802 -3 -4558 -18 -4584 -2 -3 -6 -45 -10
-92 -4 -47 -8 -95 -10 -105 -2 -10 -7 -41 -10 -69 -4 -27 -8 -61 -11 -75 -2
-14 -7 -43 -10 -65 -3 -22 -14 -85 -25 -140 -11 -55 -22 -111 -25 -125 -3 -14
-7 -36 -10 -50 -4 -22 -23 -92 -90 -338 -19 -66 -106 -319 -146 -420 -131
-335 -333 -709 -550 -1022 -36 -52 -69 -101 -73 -108 -14 -23 279 -291 504
-461 115 -87 345 -242 425 -287 11 -6 45 -25 75 -43 76 -44 325 -169 381 -191
26 -10 66 -28 90 -38 81 -36 290 -115 339 -127 8 -2 62 -18 120 -35 58 -17
112 -33 120 -35 8 -2 56 -13 105 -24 137 -33 167 -39 205 -46 19 -3 44 -7 55
-9 11 -2 42 -7 68 -10 27 -4 56 -9 65 -11 17 -3 108 -14 167 -20 17 -2 73 -7
125 -12 123 -10 7926 -11 8045 0 175 15 217 21 485 63 19 3 38 8 41 10 3 2 21
6 40 9 129 22 383 92 574 159 369 128 767 335 1095 569 93 67 269 203 285 221
6 6 37 33 70 61 77 63 332 319 410 410 33 38 68 79 79 90 10 11 69 88 131 170
238 316 418 633 571 1008 45 108 149 411 157 457 3 14 12 50 21 81 9 31 18 65
20 76 3 11 13 63 25 114 21 100 23 111 39 204 11 62 18 113 28 200 3 28 7 61
10 75 16 103 19 753 19 4610 0 3872 -3 4522 -19 4620 -3 14 -7 48 -10 75 -10
94 -28 210 -47 310 -11 55 -23 111 -25 125 -12 66 -80 310 -120 432 -104 319
-290 716 -446 951 -21 32 -38 61 -38 64 0 2 -8 15 -17 28 -10 12 -25 33 -33
45 -87 130 -255 348 -355 460 -72 81 -369 374 -425 420 -30 25 -70 59 -90 75
-37 32 -84 69 -165 129 -27 20 -57 43 -65 49 -45 36 -291 194 -390 250 -100
57 -289 151 -395 197 -66 29 -134 58 -152 66 -221 99 -737 237 -1008 269 -27
4 -57 8 -65 10 -8 2 -49 7 -90 10 -41 4 -88 8 -105 11 -115 14 -746 17 -4058
18 -2051 1 -3729 0 -3730 0z m8141 -2938 c1 -352 1 -643 2 -646 0 -3 280 -5
623 -5 l622 0 1 -352 1 -353 -623 0 -624 0 -1 -22 c0 -13 0 -294 0 -625 l1
-603 -355 0 -355 0 0 625 0 625 -645 0 -645 0 0 350 c0 273 3 350 13 351 6 1
296 2 642 3 l630 1 3 646 2 647 354 0 354 0 0 -642z"/>
</g>
</svg>
