<svg width="157" height="100" viewBox="0 0 150 500" preserveAspectRatio="xMidYMid meet" fill="none" xmlns="http://www.w3.org/2000/svg">
<rect x="154.479" y="2" width="497" height="152.479" rx="24" transform="rotate(90 154.479 2)" stroke="black" stroke-width="4"/>
<line x1="132.973" y1="363.482" x2="24.8485" y2="363.482" stroke="black" stroke-width="3"/>
<line x1="103.424" y1="382.615" x2="24.8485" y2="382.615" stroke="black" stroke-width="5"/>
<line x1="103.424" y1="390.674" x2="24.8485" y2="390.674" stroke="black" stroke-width="5"/>
<line x1="103.424" y1="417.538" x2="24.8485" y2="417.538" stroke="black" stroke-width="5"/>
<line x1="103.424" y1="451.117" x2="24.8485" y2="451.117" stroke="black" stroke-width="5"/>
<line x1="103.424" y1="465.333" x2="24.8485" y2="465.333" stroke="black" stroke-width="20"/>
<line x1="103.424" y1="437.425" x2="24.8485" y2="437.425" stroke="black" stroke-width="30"/>
<line x1="103.424" y1="407.292" x2="24.8485" y2="407.292" stroke="black" stroke-width="6"/>
<path d="M127.434 348.777C126.753 350.425 124.418 350.425 123.737 348.777L115.173 328.042C114.434 326.252 116.416 324.561 118.067 325.574L124.54 329.544C125.182 329.938 125.99 329.938 126.631 329.544L133.104 325.574C134.755 324.561 136.738 326.252 135.998 328.042L127.434 348.777Z" fill="black"/>
<path d="M33.4128 348.777C32.7318 350.425 30.3967 350.425 29.7158 348.777L21.1517 328.042C20.4123 326.252 22.3948 324.561 24.0458 325.574L30.5186 329.544C31.1602 329.938 31.9684 329.938 32.6099 329.544L39.0827 325.574C40.7338 324.561 42.7163 326.252 41.9769 328.042L33.4128 348.777Z" fill="black"/>
<rect x="122.228" y="42.3096" width="97.3794" height="98.0509" transform="rotate(90 122.228 42.3096)" fill="#FFFAF2"/>
<rect x="100.066" y="60.4424" width="79.2467" height="12.0885" transform="rotate(90 100.066 60.4424)" fill="black"/>
<rect x="67.8297" y="60.4424" width="79.2467" height="12.0885" transform="rotate(90 67.8297 60.4424)" fill="#7D94DB"/>
<path fill-rule="evenodd" clip-rule="evenodd" d="M132.973 167.224L132.973 283.407L18.8042 283.407L18.8042 167.224L132.973 167.224ZM105.438 188.714L105.438 216.921L90.6635 216.921L90.6635 245.799L76.5602 245.799L76.5602 216.921L76.5602 188.714L90.6635 188.714L105.438 188.714ZM76.5602 245.799L46.3391 245.799L46.3391 261.245L76.5602 261.245L76.5602 245.799ZM90.6635 245.799L105.438 245.799L105.438 261.245L90.6635 261.245L90.6635 245.799Z" fill="black"/>
</svg>
