<svg width="188" height="159" viewBox="0 0 188 159" fill="none" xmlns="http://www.w3.org/2000/svg">
<path opacity="0.1" d="M81.4446 155.062C92.1789 155.062 100.881 153.675 100.881 151.965C100.881 150.255 92.1789 148.869 81.4446 148.869C70.7102 148.869 62.0083 150.255 62.0083 151.965C62.0083 153.675 70.7102 155.062 81.4446 155.062Z" fill="#4285F4"/>
<path d="M103.821 70.0882C103.816 70.0686 103.806 70.0507 103.791 70.0368C103.494 69.7459 99.7039 64.4295 99.7039 64.4295C99.7039 64.4295 99.5044 63.8359 99.1813 63.0643C99.2849 62.9313 99.3627 62.7803 99.4107 62.6191C99.4281 62.5508 99.4408 62.4814 99.4486 62.4114C99.4486 62.3896 99.4645 62.3718 99.4705 62.35C99.5398 62.0817 99.5329 61.7996 99.4506 61.5349C99.4284 61.6028 99.4011 61.6689 99.3688 61.7327C99.2938 61.5022 99.1934 61.2806 99.0696 61.0719C98.5669 60.2132 97.8489 59.489 97.3203 58.6521C96.5199 57.3517 96.2017 55.8152 96.4207 54.3072C96.4207 54.3843 96.4207 54.4635 96.4207 54.5406C96.4407 54.2416 96.4806 53.9441 96.5403 53.6503C96.6237 53.3158 96.7351 52.9889 96.8735 52.6729C97.3482 51.5946 98.1161 50.6547 98.5829 49.5725C98.7395 49.2074 98.8585 48.8276 98.938 48.4388C99.1024 47.7894 99.1623 47.1182 99.1155 46.4503C99.1155 46.6086 99.0896 46.7669 99.0656 46.9232C99.0152 45.3172 98.3613 43.7879 97.2325 42.6356C95.6028 41.0112 93.2631 40.3801 91.025 40.0477C90.0846 39.9388 89.1864 39.5988 88.412 39.0584C87.5523 38.5064 86.4412 38.3738 85.4359 38.4945C84.2805 38.6184 83.2068 39.1449 82.406 39.9804C81.3428 41.1398 80.882 42.782 79.6414 43.7594C78.8894 44.353 77.9359 44.63 77.0602 45.0336C76.1846 45.4373 75.3568 46.0229 75.0755 46.8895C75.0755 46.8895 75.0755 46.8777 75.0755 46.8717V46.9212L75.0635 46.9528C74.7723 47.9777 75.3348 49.0204 75.628 50.0434C75.9332 51.1019 75.9532 52.2198 75.9691 53.3139C75.9911 54.6514 76.011 55.9909 75.9891 57.3304C75.9791 57.8567 75.9612 58.3889 75.9213 58.9133C75.4491 59.0548 74.9906 59.2376 74.5509 59.4594C74.1041 59.7482 72.4326 61.5388 72.4326 61.5388L69.1633 73.9286L69.2071 73.9781L69.1633 74.1462L69.3288 74.1086C69.7916 74.6033 71.1739 76.012 72.6659 76.8905L72.8056 79.3202C72.8056 79.3202 72.9731 81.7578 75.2331 82.7649C75.285 83.6097 75.4465 87.0405 74.6985 88.3998C74.1805 89.3928 73.9369 90.5042 73.9924 91.6209C73.9924 91.6209 74.2537 93.6826 73.9565 94.7668C73.7829 95.4915 73.7699 96.2448 73.9186 96.9749C73.9186 96.9749 73.9186 97.2143 73.9186 97.6259C73.9186 99.8201 73.9445 106.852 73.9186 107.647C73.8807 108.587 73.9186 122.487 73.9186 122.487C73.9186 122.487 73.7331 129.433 73.1387 131.315C72.5443 133.196 72.6939 139.427 72.6939 139.427C72.6939 139.427 72.3209 146.849 73.6393 148.313C73.6393 148.378 73.6274 148.445 73.6254 148.511C73.6254 148.54 73.6254 148.574 73.6254 148.604C73.6094 149.167 73.7191 149.767 74.2078 149.951C75.2052 150.331 76.5237 151.471 76.773 151.797C77.0223 152.123 78.4725 152.937 80.3634 152.719C81.548 152.587 82.7401 152.533 83.9319 152.557C83.9319 152.557 84.6779 152.422 84.4366 151.502C84.281 150.928 83.6985 150.046 83.2837 149.466C83.3595 149.486 83.4332 149.502 83.5031 149.516L83.5749 149.53H83.6307C83.6613 149.531 83.6919 149.531 83.7225 149.53H83.7624C83.7995 149.533 83.8369 149.533 83.8741 149.53C84.3747 149.482 86.2418 150.345 86.5749 150.915C86.908 151.484 88.0829 151.918 88.9685 152.026C89.4951 152.09 90.8236 151.983 91.9386 151.84C92.5001 151.783 93.0563 151.682 93.6022 151.54C93.8655 151.441 93.9213 151.124 93.8455 150.768C93.756 150.316 93.5123 149.908 93.1554 149.613C92.8322 149.385 92.4054 148.786 92.0902 148.295L92.0064 148.162C92.5629 147.636 93.5683 145.915 93.8734 145.559C94.2445 145.125 93.275 129.279 93.275 129.279V121.335L94.7611 113.816L95.8003 109.838L96.6919 103.831C96.6919 103.831 98.2518 96.8146 97.7711 96.1261C97.7711 96.1123 97.3721 88.8885 96.9532 87.1533C96.7717 86.3797 96.8176 84.6386 96.9253 82.9449C97.0379 82.834 97.1164 82.6937 97.1517 82.5403C97.187 82.3869 97.1777 82.2267 97.1248 82.0783C97.095 81.9769 97.0563 81.8782 97.0091 81.7835C97.0091 81.7538 97.0091 81.7222 97.0091 81.6925C97.8708 81.2992 98.7712 80.9955 99.6959 80.7863C101.182 80.4974 100.811 79.7377 100.811 79.7377C100.811 79.7377 101.146 79.0867 101.367 78.689C101.589 78.2913 101.405 74.7814 101.367 74.4925C101.354 74.3758 101.262 73.7307 101.156 72.9987C101.633 72.6623 102.253 72.2448 102.929 71.8491C104.216 71.0933 103.927 70.2959 103.821 70.0882ZM84.4326 120.251C84.4326 120.251 83.3176 123.072 83.7644 123.794C84.2112 124.517 83.6906 127.197 83.6906 127.197L83.3176 131.176C83.3176 131.176 82.2783 138.556 82.6493 140.292C82.9406 141.653 83.0483 145.719 83.0822 147.414C83.0567 147.424 83.032 147.436 83.0084 147.45L82.9585 147.476C83.1301 146.809 83.0582 145.46 82.2065 142.745L82.1347 131.533C82.1347 131.533 82.0031 118.581 83.0343 117.133C84.0656 115.684 84.4306 113.225 84.4306 113.225C84.4306 113.225 84.2072 116.772 84.0616 117.712C83.916 118.652 84.4326 120.251 84.4326 120.251ZM82.3561 148.121C82.3461 148.145 82.3342 148.168 82.3262 148.19L82.2703 148.119C82.2989 148.122 82.3275 148.122 82.3561 148.121Z" fill="url(#paint0_linear)"/>
<path d="M93.7278 152.565C93.1514 152.784 90.0257 153.158 89.152 153.053C88.2784 152.949 87.1214 152.509 86.7923 151.936C86.4632 151.362 84.6181 150.495 84.1234 150.551C83.9207 150.557 83.7183 150.529 83.525 150.467C83.1837 150.365 82.8504 150.238 82.5277 150.088C82.4826 149.838 82.4901 149.582 82.5496 149.336C82.5611 149.286 82.5758 149.237 82.5935 149.189C82.7099 148.865 82.9508 148.599 83.2637 148.449L83.3355 148.416C83.4738 148.356 83.6183 148.313 83.7664 148.285C85.3342 147.986 91.803 148.586 91.803 148.586C91.803 148.586 91.9845 148.908 92.2338 149.308C92.545 149.803 92.9679 150.406 93.287 150.634C93.6406 150.933 93.8805 151.344 93.9672 151.797C94.043 152.147 93.9872 152.468 93.7278 152.565Z" fill="white"/>
<path opacity="0.1" d="M93.7279 152.565C93.1514 152.784 90.0277 153.158 89.154 153.054C88.2804 152.949 87.1234 152.507 86.7923 151.936C86.4612 151.364 84.6201 150.495 84.1254 150.551C83.6307 150.606 82.5297 150.088 82.5297 150.088C82.5297 150.088 82.3581 149.296 82.8568 148.756L83.8541 149.459C83.8541 149.459 86.523 150.28 87.0177 151.041C87.5124 151.803 88.414 152.228 89.7165 152.306C90.6899 152.369 92.926 151.993 93.9732 151.805C94.043 152.147 93.9892 152.468 93.7279 152.565Z" fill="black"/>
<path d="M84.1793 153.574C83.0027 153.551 81.8259 153.606 80.6567 153.738C78.7836 153.956 77.3535 153.145 77.1041 152.81C76.8548 152.476 75.5642 151.346 74.5729 150.95C74.0881 150.764 73.9744 150.159 73.9964 149.593C73.9964 149.563 73.9964 149.53 73.9964 149.5C74.0148 149.142 74.0682 148.786 74.156 148.438L81.9173 148.273L82.5895 149.178L82.6932 149.316L83.1022 149.868C83.1022 149.868 83.2877 150.11 83.531 150.462C83.9419 151.055 84.5164 151.932 84.67 152.512C84.9153 153.439 84.1793 153.574 84.1793 153.574Z" fill="white"/>
<path opacity="0.1" d="M84.1793 153.574C83.0027 153.551 81.8259 153.606 80.6567 153.738C78.7856 153.956 77.3535 153.145 77.1061 152.81C76.8588 152.476 75.5642 151.336 74.5729 150.954C74.0881 150.768 73.9744 150.163 73.9964 149.597C74.5509 149.726 75.7158 150.054 76.1726 150.626C76.771 151.39 77.8421 152.674 79.3641 152.755C80.5928 152.82 83.5849 152.602 84.6819 152.515C84.9173 153.439 84.1793 153.574 84.1793 153.574Z" fill="black"/>
<path opacity="0.1" d="M83.2557 148.441C83.166 149.102 82.8887 149.28 82.6892 149.32C82.6405 149.329 82.5904 149.329 82.5416 149.32C82.5154 149.318 82.4894 149.314 82.4638 149.308C82.4638 149.308 75.4944 150.835 74.0861 149.599C74.0504 149.567 74.0171 149.533 73.9864 149.496C74.0048 149.138 74.0582 148.782 74.146 148.434L81.9073 148.269L82.5795 149.173C82.696 148.849 82.9368 148.583 83.2497 148.434L83.2557 148.441Z" fill="black"/>
<path opacity="0.1" d="M92.2318 149.3C92.0763 149.47 91.9466 149.567 91.8648 149.534C91.4978 149.387 88.4898 148.879 87.5344 149.316C86.5789 149.753 83.3455 149.387 83.3455 149.387C83.3455 149.387 83.3455 149.007 83.3276 148.398C83.4659 148.339 83.6104 148.295 83.7584 148.268C85.3262 147.969 91.795 148.568 91.795 148.568C91.795 148.568 91.9845 148.901 92.2318 149.3Z" fill="black"/>
<path d="M96.7838 104.545L95.9021 110.588L94.8768 114.592L93.4087 122.162V130.176C93.4087 130.176 94.3622 146.119 93.9952 146.554C93.6282 146.989 92.2339 149.469 91.8668 149.324C91.4998 149.18 88.4918 148.669 87.5364 149.104C86.5809 149.54 83.3475 149.178 83.3475 149.178C83.3475 149.178 83.2737 142.991 82.9067 141.244C82.5397 139.497 83.5669 132.071 83.5669 132.071L83.934 128.068C83.934 128.068 84.4486 125.374 84.0078 124.645C83.5669 123.917 84.668 121.084 84.668 121.084C84.668 121.084 84.1554 119.479 84.303 118.534C84.4506 117.588 84.668 114.021 84.668 114.021C84.668 114.021 84.303 116.498 83.2837 117.952C82.2644 119.406 82.3941 132.439 82.3941 132.439L82.4659 143.717C84.303 149.688 82.4659 149.104 82.4659 149.104C82.4659 149.104 75.4964 150.634 74.0882 149.395C72.6799 148.157 73.0828 140.361 73.0828 140.361C73.0828 140.361 72.9372 134.101 73.5237 132.209C74.1101 130.318 74.2956 123.328 74.2956 123.328C74.2956 123.328 74.2577 109.349 74.2956 108.405C74.3235 107.614 74.2956 100.529 74.2956 98.3147C74.2956 97.9031 74.2956 97.6598 74.2956 97.6598L75.1374 95.5862L85.1108 94.3477H89.8821C89.8821 94.3477 97.063 96.0215 97.805 96.7437C97.8209 96.7557 97.8344 96.7705 97.8449 96.7872C98.3257 97.4857 96.7838 104.545 96.7838 104.545Z" fill="#4285F4"/>
<path opacity="0.1" d="M84.674 136.285C84.674 136.285 86.8681 141.526 87.9034 141.89C88.9386 142.255 84.674 136.285 84.674 136.285Z" fill="black"/>
<path opacity="0.1" d="M85.4858 144.002C85.4858 144.002 92.8941 144.366 92.8203 145.167C92.7465 145.968 85.4858 144.002 85.4858 144.002Z" fill="black"/>
<path opacity="0.1" d="M75.5742 141.906C75.8674 142.181 81.2251 142.698 80.7843 143.2C80.3435 143.703 76.015 144.68 76.015 144.68L75.5742 141.906Z" fill="black"/>
<path opacity="0.1" d="M74.6945 132.864C74.6945 133.082 75.7956 139.853 76.0908 140.143C76.386 140.434 78.8056 140.725 78.8056 140.725L74.6945 132.864Z" fill="black"/>
<path d="M82.6833 40.3189C81.6321 41.4842 81.1773 43.1363 79.9525 44.1217C79.2085 44.7152 78.267 44.9982 77.4013 45.4018C76.5356 45.8054 75.6779 46.4208 75.4206 47.3349C75.1334 48.3637 75.6879 49.4143 75.9791 50.4432C76.2803 51.5077 76.2983 52.6196 76.3162 53.7335C76.3362 55.0809 76.3581 56.4283 76.3342 57.7757C76.2983 59.875 76.1227 62.0712 74.9997 63.8499C79.0549 65.1301 83.3674 65.3042 87.6201 65.4684C88.4374 65.5262 89.2583 65.5057 90.0716 65.4071C90.7763 65.2678 91.4734 65.0928 92.16 64.8828C93.5177 64.5264 94.9166 64.3488 96.321 64.3545C96.9333 64.3545 97.5577 64.3921 98.1481 64.2338C98.7385 64.0755 99.307 63.6699 99.4666 63.0842C99.6082 62.5579 99.4008 61.998 99.1295 61.5251C98.6348 60.6625 97.9327 59.9423 97.4021 59.0915C96.8604 58.1928 96.5391 57.1806 96.4639 56.1362C96.3887 55.0918 96.5618 54.0445 96.9692 53.0786C97.44 51.9924 98.198 51.0467 98.6607 49.9584C99.1347 48.7901 99.2608 47.5113 99.0239 46.274C98.787 45.0366 98.1971 43.8927 97.3243 42.9781C95.7146 41.3438 93.4047 40.7106 91.1946 40.3743C90.264 40.2652 89.3762 39.925 88.6135 39.385C87.7657 38.831 86.6667 38.6964 85.6733 38.8191C84.5274 38.9465 83.4659 39.4789 82.6833 40.3189Z" fill="#3F3D56"/>
<g opacity="0.1">
<path opacity="0.1" d="M97.0311 51.9371C96.6244 52.8905 96.4501 53.9256 96.5224 54.9584C96.5671 54.2199 96.7391 53.4944 97.0311 52.8136C97.4998 51.7274 98.2578 50.7816 98.7206 49.6934C99.0989 48.7848 99.258 47.801 99.1853 46.8206C99.1442 47.5078 98.9871 48.1833 98.7206 48.8189C98.2578 49.9071 97.4998 50.8509 97.0311 51.9371Z" fill="black"/>
<path opacity="0.1" d="M76.3761 53.4646C76.388 54.2402 76.4 55.0178 76.402 55.7934C76.402 54.725 76.392 53.6585 76.3761 52.5921C76.3601 51.4861 76.3402 50.3662 76.039 49.2997C75.8395 48.6231 75.5443 47.9365 75.4406 47.2539C75.263 48.2234 75.7677 49.2068 76.039 50.1743C76.3402 51.2308 76.3601 52.3586 76.3761 53.4646Z" fill="black"/>
<path opacity="0.1" d="M98.2159 63.1022C97.6175 63.2625 97.0031 63.2268 96.3907 63.2229C94.9875 63.2141 93.5892 63.3883 92.2318 63.7413C91.545 63.9504 90.848 64.1247 90.1434 64.2636C89.3296 64.3639 88.5079 64.3851 87.6899 64.3269C83.5809 64.1667 79.414 63.9945 75.4784 62.8292C75.3616 63.0879 75.2284 63.339 75.0795 63.581C79.1347 64.8592 83.4472 65.0353 87.6979 65.1995C88.5158 65.2576 89.3376 65.2364 90.1514 65.1362C90.8535 64.9986 91.5479 64.8249 92.2318 64.6158C93.5864 64.2616 94.9819 64.0853 96.3828 64.0915C96.9951 64.0915 97.6175 64.1291 98.2079 63.9688C98.7983 63.8086 99.3668 63.4069 99.5264 62.8212C99.5936 62.55 99.5867 62.2659 99.5064 61.9982C99.3289 62.5522 98.7804 62.938 98.2159 63.1022Z" fill="black"/>
</g>
<path d="M92.3076 60.7575C92.16 61.0859 91.5377 63.9232 91.3901 64.214C91.2425 64.5049 90.4366 69.1604 90.3628 69.4216C90.289 69.6828 85.0509 68.3294 85.0509 68.3294L81.8973 65.7078L78.656 62.5085C78.656 62.5085 78.5602 59.6218 80.9479 58.6958C81.1102 58.6326 81.2768 58.581 81.4465 58.5415C84.3428 57.851 84.0516 49.1156 84.0516 49.1156L89.9958 51.662C89.9958 51.662 88.8947 56.7588 88.9326 57.7421C88.9426 58.0726 89.2039 58.2783 89.545 58.403C90.0724 58.5518 90.6214 58.6107 91.1687 58.5771C91.1687 58.5771 92.4552 60.431 92.3076 60.7575Z" fill="#FBBEBE"/>
<path d="M102.949 70.3298L103.793 70.5494C103.793 70.5494 104.417 71.4912 102.949 72.3677C102.017 72.9294 101.122 73.55 100.27 74.2256L95.932 75.5354L95.0962 72.9336L99.1335 69.8945L102.949 70.3298Z" fill="#4285F4"/>
<path opacity="0.1" d="M102.949 70.3298L103.793 70.5494C103.793 70.5494 104.417 71.4912 102.949 72.3677C102.017 72.9294 101.122 73.55 100.27 74.2256L95.932 75.5354L95.0962 72.9336L99.1335 69.8945L102.949 70.3298Z" fill="black"/>
<path d="M71.2876 72.8425L69.6001 74.4808C69.6001 74.4808 72.644 77.9749 74.9858 78.1925C77.3275 78.4102 78.8375 75.5353 78.8375 75.5353L76.8109 72.3696L71.2876 72.8425Z" fill="#4285F4"/>
<path opacity="0.1" d="M71.2876 72.8425L69.6001 74.4808C69.6001 74.4808 72.644 77.9749 74.9858 78.1925C77.3275 78.4102 78.8375 75.5353 78.8375 75.5353L76.8109 72.3696L71.2876 72.8425Z" fill="black"/>
<path opacity="0.1" d="M87.3169 54.8238C90.559 54.8238 93.1873 52.2168 93.1873 49.0009C93.1873 45.785 90.559 43.178 87.3169 43.178C84.0748 43.178 81.4466 45.785 81.4466 49.0009C81.4466 52.2168 84.0748 54.8238 87.3169 54.8238Z" fill="black"/>
<path d="M87.3169 54.3864C90.559 54.3864 93.1873 51.7794 93.1873 48.5635C93.1873 45.3476 90.559 42.7406 87.3169 42.7406C84.0748 42.7406 81.4466 45.3476 81.4466 48.5635C81.4466 51.7794 84.0748 54.3864 87.3169 54.3864Z" fill="#FBBEBE"/>
<path opacity="0.1" d="M97.8489 97.4478C96.5122 97.5995 95.1956 97.892 93.9213 98.3203C91.7272 99.0445 74.533 98.3322 74.2936 98.3203C74.2936 97.9088 74.2936 97.6654 74.2936 97.6654L75.1354 95.5919L85.1088 94.3533H89.8801C89.8801 94.3533 97.061 96.0271 97.803 96.7493C97.8329 97.1846 97.8489 97.4478 97.8489 97.4478Z" fill="black"/>
<path opacity="0.1" d="M92.3076 60.7576C92.16 61.086 91.5377 63.9233 91.3901 64.2141C91.2425 64.505 90.4366 69.1605 90.3628 69.4217C90.289 69.6829 85.0509 68.3295 85.0509 68.3295L81.8973 65.7079L78.656 62.5086C78.656 62.5086 78.5602 59.6219 80.9479 58.6959L86.8761 65.4567L89.545 58.4031C90.0724 58.5519 90.6214 58.6108 91.1687 58.5772C91.1687 58.5772 92.4552 60.4311 92.3076 60.7576Z" fill="black"/>
<path d="M86.8761 65.6743L80.8083 58.7493C80.4531 58.5244 80.0471 58.3906 79.6269 58.3598C79.2066 58.3291 78.7853 58.4024 78.4007 58.5732C77.0423 59.1569 75.3548 59.6298 74.9139 59.9206C74.4731 60.2115 72.8215 62.012 72.8215 62.012L77.7404 74.7757L75.5742 83.1826C75.5742 83.1826 75.9053 87.4781 75.0616 89.0431C74.5478 90.0438 74.3071 91.1605 74.3634 92.282C74.3634 92.282 74.6207 94.3576 74.3275 95.4477C74.1562 96.1767 74.1433 96.9334 74.2896 97.6677C74.2896 97.6677 91.7212 98.3958 93.9213 97.6677C95.1952 97.2382 96.512 96.9456 97.8489 96.7952C97.8489 96.7952 97.4499 89.514 97.051 87.767C96.6521 86.0199 97.3821 79.36 97.3821 79.36L96.9054 72.2253L99.7658 64.9046C99.7658 64.9046 98.2159 60.2115 96.6002 59.7386C96.6002 59.7386 93.666 59.0461 93.0417 58.7196C92.4173 58.3932 90.5822 58.1003 90.5822 58.1003L89.6188 58.4209L86.8761 65.6743Z" fill="#4285F4"/>
<path opacity="0.1" d="M95.3421 71.9844L82.5736 71.1232C82.2504 71.1014 81.9707 71.3436 81.9487 71.6641L80.5779 91.6607C80.5559 91.9813 80.8001 92.2588 81.1232 92.2806L93.8917 93.1418C94.2148 93.1636 94.4946 92.9214 94.5165 92.6009L95.8874 72.6042C95.9093 72.2837 95.6652 72.0062 95.3421 71.9844Z" fill="black"/>
<path d="M95.7817 71.5501L83.0133 70.6889C82.6901 70.6671 82.4104 70.9092 82.3884 71.2298L81.0176 91.2264C80.9956 91.547 81.2397 91.8245 81.5629 91.8463L94.3313 92.7075C94.6544 92.7293 94.9342 92.4871 94.9562 92.1666L96.327 72.1699C96.349 71.8494 96.1048 71.5719 95.7817 71.5501Z" fill="#3F3D56"/>
<path d="M95.3603 73.1174L83.2168 72.2983L81.9688 90.5026L94.1124 91.3217L95.3603 73.1174Z" fill="white"/>
<path opacity="0.1" d="M94.2715 77.764L84.3519 77.0752L84.1584 79.8175L94.0779 80.5063L94.2715 77.764Z" fill="black"/>
<path opacity="0.1" d="M93.9125 88.6618L92.3383 88.5557L92.2404 89.9848L93.8146 90.091L93.9125 88.6618Z" fill="black"/>
<path opacity="0.1" d="M92.3598 85.2124L84.3019 84.6689L84.2039 86.0981L92.2618 86.6416L92.3598 85.2124Z" fill="black"/>
<path d="M93.8573 72.437L85.4671 71.8711L85.3165 74.0682L93.7067 74.6341L93.8573 72.437Z" fill="#3F3D56"/>
<path opacity="0.1" d="M93.8573 72.437L85.4671 71.8711L85.3165 74.0682L93.7067 74.6341L93.8573 72.437Z" fill="black"/>
<path opacity="0.1" d="M87.6101 97.0464C87.6101 97.0464 87.5363 107.822 84.674 114.009C84.674 114.009 88.1248 105.855 88.1248 105.528C88.1248 105.202 90.0317 101.779 89.5211 100.76C89.0104 99.7412 87.6101 97.0464 87.6101 97.0464Z" fill="black"/>
<path opacity="0.1" d="M87.7657 47.1073C87.6561 46.1536 87.8915 45.1923 88.43 44.3947C88.3659 45.1941 88.5938 45.9897 89.0721 46.6363C89.5503 47.2828 90.247 47.7372 91.035 47.9165C90.9678 47.8587 90.9198 47.7819 90.8974 47.6965C90.8749 47.611 90.8791 47.5208 90.9094 47.4377C91.3183 47.8968 91.6314 48.4409 92.0942 48.8445C92.557 49.2481 93.2511 49.4895 93.7957 49.2026C94.5357 48.8069 94.5437 47.7642 94.3522 46.953C93.9413 45.2254 93.0982 43.6284 91.9007 42.3093C91.602 41.9106 91.2142 41.5859 90.7677 41.3607C90.3213 41.1355 89.8284 41.016 89.3276 41.0114C88.1946 40.9243 87.0177 41.0232 86.0024 41.5278C85.4311 41.837 84.8959 42.2079 84.4067 42.6338L81.6141 44.8933C81.3454 45.0853 81.1154 45.3256 80.9359 45.6016C80.8161 45.8324 80.7442 46.0847 80.7245 46.3436C80.6531 47.0836 80.7912 47.8287 81.1231 48.4952C81.455 49.1617 81.9677 49.7232 82.6035 50.1167C82.59 49.5318 82.7522 48.9562 83.0694 48.463C83.3865 47.9698 83.8444 47.5812 84.3847 47.3467C84.4694 47.4169 84.5379 47.5043 84.5857 47.6029C84.6335 47.7015 84.6595 47.8091 84.662 47.9185L85.2504 46.8778C85.3379 46.6884 85.4759 46.5263 85.6494 46.4089C86.0124 46.211 86.4652 46.4445 86.7744 46.7235C87.0835 47.0025 87.3847 47.3507 87.7996 47.3942L87.8156 45.845" fill="black"/>
<path d="M87.7657 46.8896C87.6558 45.9353 87.8912 44.9732 88.43 44.1751C88.2505 45.7579 89.4533 47.3922 91.037 47.6969C90.9697 47.6395 90.9216 47.5631 90.8992 47.4779C90.8767 47.3927 90.881 47.3028 90.9114 47.2201C91.3203 47.6791 91.6334 48.2212 92.0962 48.6268C92.559 49.0324 93.2531 49.2718 93.7977 48.983C94.5377 48.5873 94.5457 47.5445 94.3542 46.7353C93.9433 45.0077 93.1002 43.4107 91.9027 42.0916C91.5312 41.6424 91.063 41.2814 90.5324 41.0351C90.1483 40.8942 89.7446 40.8127 89.3356 40.7937C88.2026 40.7066 87.0257 40.8036 86.0104 41.3081C85.4394 41.6188 84.9043 41.9903 84.4147 42.4161L81.6221 44.6756C81.353 44.8671 81.1228 45.1075 80.9439 45.384C80.8238 45.6146 80.7519 45.867 80.7325 46.1259C80.6613 46.8656 80.7994 47.6104 81.1313 48.2765C81.4632 48.9427 81.9758 49.5039 82.6115 49.8971C82.5985 49.3123 82.7609 48.7369 83.078 48.2438C83.3951 47.7506 83.8527 47.362 84.3927 47.1271C84.4771 47.1975 84.5454 47.2849 84.5932 47.3835C84.641 47.482 84.6671 47.5895 84.67 47.6989L85.2564 46.6621C85.3434 46.4724 85.4815 46.3102 85.6554 46.1932C86.0184 45.9953 86.4712 46.2288 86.7804 46.5078C87.0895 46.7868 87.3907 47.133 87.8056 47.1785L87.8216 45.6273" fill="#3F3D56"/>
<path d="M90.5463 83.6178C90.0337 83.3606 81.5563 84.6724 81.5563 84.6724C81.5563 84.6724 80.16 84.2767 76.785 83.7266C73.41 83.1766 73.1945 79.9041 73.1945 79.9041L72.8255 73.353L73.9645 72.3638L78.8435 75.5295C78.8435 75.5295 78.9193 77.1301 78.8435 77.419C78.7956 77.6168 78.668 77.8523 78.6799 78.0126C78.6836 78.056 78.7017 78.0969 78.7312 78.1291C78.7608 78.1613 78.8003 78.1829 78.8435 78.1906C79.1746 78.2737 83.6866 78.9979 83.6866 78.9979C83.6866 78.9979 94.1447 78.2876 96.7518 81.7817C96.9583 82.0382 97.1146 82.3308 97.2126 82.6444C97.8588 85.0325 91.0111 83.8454 90.5463 83.6178Z" fill="#FBBEBE"/>
<path opacity="0.1" d="M97.2185 82.6582C96.8196 82.8343 96.5723 82.9609 96.5723 82.9609C96.5723 82.9609 92.8302 82.8521 90.7278 82.0963C88.6254 81.3405 86.0702 81.475 86.0702 81.475C86.0702 81.475 77.3096 79.9792 78.6679 78.0264C78.6716 78.0698 78.6897 78.1107 78.7193 78.1429C78.7488 78.1751 78.7883 78.1968 78.8315 78.2044C79.1626 78.2875 83.6746 79.0117 83.6746 79.0117C83.6746 79.0117 94.1328 78.3014 96.7398 81.7955C96.9528 82.0506 97.1152 82.3433 97.2185 82.6582Z" fill="black"/>
<path d="M100.857 71.1311C100.857 71.1311 101.371 74.7341 101.407 75.0269C101.443 75.3197 101.629 78.8475 101.407 79.2491C101.186 79.6508 100.857 80.3037 100.857 80.3037C100.857 80.3037 101.224 81.0674 99.7558 81.3603C98.2877 81.6531 96.5643 82.5237 96.5643 82.5237C96.5643 82.5237 92.8203 82.4148 90.7298 81.6511C88.6394 80.8874 86.0702 81.0318 86.0702 81.0318C86.0702 81.0318 74.9499 79.1383 79.7211 76.8274C84.4924 74.5164 87.8675 77.6465 87.8675 77.6465L93.1873 77.32C93.1873 77.32 95.17 76.1171 95.7205 76.2279C96.1093 76.277 96.5041 76.2138 96.8575 76.0458L96.8954 72.2233L100.857 71.1311Z" fill="#FBBEBE"/>
<path opacity="0.1" d="M73.8807 62.2868L72.8155 62.2314L69.5881 74.6964C69.5881 74.6964 73.0729 73.8219 74.5749 74.6964C76.0769 75.5709 78.8315 75.751 78.8315 75.751L77.8043 65.8146L73.8807 62.2868Z" fill="black"/>
<path d="M73.8807 62.0674L72.8155 62.012L69.5881 74.4769C69.5881 74.4769 73.0729 73.6024 74.5749 74.4769C76.0769 75.3515 78.8315 75.5315 78.8315 75.5315L77.8043 65.5952L73.8807 62.0674Z" fill="#4285F4"/>
<path opacity="0.1" d="M98.2897 64.7976L99.7558 65.1261C99.7558 65.1261 103.5 70.4682 103.793 70.767C104.086 71.0657 102.397 72.152 101.701 72.152C101.004 72.152 97.5916 72.5477 96.6002 73.4618C95.6088 74.3759 96.0217 69.7757 96.0217 69.6708C96.0217 69.566 97.2525 66.6634 97.2525 66.6634L98.2897 64.7976Z" fill="black"/>
<path d="M98.2897 64.5801L99.7558 64.9065C99.7558 64.9065 103.5 70.2586 103.793 70.5494C104.086 70.8403 102.397 71.9344 101.701 71.9344C101.004 71.9344 97.5916 72.3301 96.6002 73.2442C95.6088 74.1583 96.0217 69.5582 96.0217 69.4533C96.0217 69.3484 97.2604 66.436 97.2604 66.436L98.2897 64.5801Z" fill="#4285F4"/>
<g opacity="0.1">
<path opacity="0.1" d="M88.42 44.1929C88.4114 44.0411 88.4147 43.889 88.4299 43.7378C88.1262 44.1898 87.9173 44.6978 87.8156 45.2316V45.6906C87.8156 45.6906 87.8156 45.6807 87.8156 45.6748V45.7836C87.8156 46.1042 87.8156 46.4267 87.8056 46.7472H87.7777V46.8956C87.7777 46.8441 87.7777 46.7947 87.7677 46.7432C87.3688 46.6799 87.0835 46.3475 86.7863 46.0824C86.4891 45.8173 86.0244 45.564 85.6613 45.7678C85.4874 45.8848 85.3494 46.047 85.2624 46.2367L84.67 47.2735C84.6674 47.1644 84.6413 47.0571 84.5935 46.9588C84.5456 46.8606 84.4772 46.7736 84.3927 46.7037C83.8524 46.9381 83.3945 47.3267 83.0773 47.8199C82.7602 48.3132 82.598 48.8888 82.6115 49.4737C82.0665 49.1349 81.6106 48.6724 81.2814 48.1244C80.9523 47.5763 80.7593 46.9585 80.7185 46.3218C80.6838 47.0327 80.841 47.7399 81.1737 48.3704C81.5065 49.001 82.0028 49.5321 82.6115 49.9089C82.5985 49.3242 82.7609 48.7488 83.078 48.2556C83.3951 47.7625 83.8527 47.3739 84.3927 47.1389C84.4771 47.2094 84.5454 47.2968 84.5932 47.3954C84.641 47.4939 84.6671 47.6014 84.67 47.7108L85.2564 46.674C85.3434 46.4843 85.4814 46.322 85.6553 46.2051C86.0184 46.0072 86.4712 46.2407 86.7803 46.5197C87.0895 46.7986 87.3907 47.1449 87.8056 47.1904C87.8056 46.6839 87.8109 46.1787 87.8216 45.6748C87.9194 45.1462 88.1229 44.6423 88.42 44.1929Z" fill="black"/>
<path opacity="0.1" d="M87.7458 46.1852C87.7558 46.0507 87.7717 45.9161 87.7917 45.7895L87.8136 45.2434C87.7536 45.5536 87.7309 45.8697 87.7458 46.1852Z" fill="black"/>
<path opacity="0.1" d="M93.7977 48.5457C93.2531 48.8346 92.559 48.5932 92.0962 48.1896C91.6334 47.786 91.3203 47.2419 90.9114 46.7828C90.8811 46.8659 90.8769 46.9561 90.8993 47.0416C90.9218 47.127 90.9698 47.2038 91.037 47.2617C90.9971 47.2617 90.9592 47.2419 90.9213 47.232C91.3203 47.687 91.6374 48.2213 92.0962 48.617C92.555 49.0127 93.2531 49.262 93.7977 48.9731C94.3422 48.6842 94.4978 48.0076 94.4499 47.3487C94.414 47.8671 94.2265 48.3162 93.7977 48.5457Z" fill="black"/>
<path opacity="0.1" d="M90.9094 47.228C90.2423 47.0477 89.6468 46.6694 89.2026 46.1439C88.7583 45.6184 88.4867 44.9708 88.424 44.2878C88.3103 45.841 89.4911 47.3982 91.037 47.6969C90.9712 47.6402 90.9239 47.5653 90.9011 47.4818C90.8784 47.3982 90.8813 47.3099 90.9094 47.228Z" fill="black"/>
</g>
<path opacity="0.04" d="M175.878 84.6589C167.054 112.163 100.021 141.857 64.4815 130.455C17.7439 119.894 7.28483 87.5115 16.1094 60.0076C27.8202 23.5081 58.5428 7.43727 94.0825 18.8401C129.622 30.243 184.703 57.155 175.878 84.6589Z" fill="#6E44FF"/>
<defs>
<linearGradient id="paint0_linear" x1="86.543" y1="152.755" x2="86.543" y2="38.4628" gradientUnits="userSpaceOnUse">
<stop stop-color="#808080" stop-opacity="0.25"/>
<stop offset="0.54" stop-color="#808080" stop-opacity="0.12"/>
<stop offset="1" stop-color="#808080" stop-opacity="0.1"/>
</linearGradient>
</defs>
</svg>
