<svg width="175" height="190" viewBox="0 0 175 190" fill="none" xmlns="http://www.w3.org/2000/svg">
<path opacity="0.04" d="M134.597 46.9894C143.801 72.2768 122.438 128.388 97.2866 137.543C66.4691 152.946 44.2848 133.619 35.0809 108.331C22.8667 74.7731 31.4044 47.1887 56.5558 38.0344C81.7072 28.88 125.393 21.702 134.597 46.9894Z" fill="#6E44FF"/>
<path opacity="0.6" d="M104.811 79.6669C104.811 75.5525 101.537 72.185 97.424 72.0687L65.6521 71.1704C61.9671 71.0663 58.9059 73.9906 58.8416 77.6765C58.781 81.149 61.4124 84.0787 64.8714 84.3899L96.5282 87.2376C100.977 87.6379 104.811 84.1339 104.811 79.6669Z" fill="#F2F2F2"/>
<path d="M103.206 78.3089C103.206 74.1468 99.8581 70.7592 95.6962 70.7107L64.6973 70.3495C61.0677 70.3072 58.1028 73.2379 58.1028 76.8677C58.1028 80.2625 60.7083 83.089 64.0919 83.3647L94.9906 85.8825C99.4159 86.2431 103.206 82.7489 103.206 78.3089Z" fill="white"/>
<path d="M97.9627 76.6578C97.9627 77.1841 97.5227 77.6035 96.9971 77.5783L71.0297 76.3329C70.5905 76.3118 70.2452 75.9496 70.2452 75.5098C70.2452 75.0417 70.6347 74.6676 71.1025 74.6865L97.0784 75.737C97.5725 75.757 97.9627 76.1633 97.9627 76.6578Z" fill="#E0E0E0"/>
<path d="M97.9516 80.5743C97.9424 81.1005 97.4952 81.5122 96.97 81.4778L71.0283 79.7794C70.5896 79.7507 70.2506 79.3825 70.2583 78.9428C70.2665 78.4748 70.6625 78.1075 71.1298 78.1346L97.0835 79.6382C97.5772 79.6668 97.9603 80.0799 97.9516 80.5743Z" fill="#F2F2F2"/>
<path opacity="0.6" d="M104.811 58.3347C104.811 54.2203 101.537 50.8527 97.424 50.7364L65.6521 49.8382C61.9671 49.734 58.9059 52.6583 58.8416 56.3443C58.781 59.8167 61.4124 62.7464 64.8714 63.0576L96.5282 65.9054C100.977 66.3056 104.811 62.8016 104.811 58.3347Z" fill="#F2F2F2"/>
<path d="M103.206 56.9769C103.206 52.8147 99.8581 49.4271 95.6962 49.3786L64.6973 49.0175C61.0677 48.9752 58.1028 51.9058 58.1028 55.5356C58.1028 58.9305 60.7083 61.757 64.0919 62.0327L94.9906 64.5505C99.4159 64.9111 103.206 61.4169 103.206 56.9769Z" fill="white"/>
<path d="M97.9627 55.3255C97.9627 55.8518 97.5227 56.2712 96.9971 56.246L71.0297 55.0006C70.5905 54.9796 70.2452 54.6173 70.2452 54.1776C70.2452 53.7094 70.6347 53.3353 71.1025 53.3542L97.0784 54.4047C97.5725 54.4247 97.9627 54.831 97.9627 55.3255Z" fill="#E0E0E0"/>
<path d="M97.9516 59.2423C97.9424 59.7685 97.4952 60.1802 96.97 60.1458L71.0283 58.4474C70.5896 58.4187 70.2506 58.0505 70.2583 57.6108C70.2665 57.1427 70.6625 56.7755 71.1298 56.8026L97.0835 58.3062C97.5772 58.3348 97.9603 58.7479 97.9516 59.2423Z" fill="#F2F2F2"/>
<path d="M64.0311 56.6623L62.5592 55.1903L62.0579 55.688L64.0311 57.6612L68.2668 53.4254L67.7691 52.9277L64.0311 56.6623Z" fill="#2E7CE6"/>
<path d="M65.0285 82.7703L63.5221 81.163L63.0092 81.7065L65.0285 83.8611L69.3633 79.2358L68.854 78.6924L65.0285 82.7703Z" fill="#2E7CE6"/>
<path d="M116.27 99.6498C116.27 94.6997 111.82 90.9376 106.939 91.7614L55.6039 100.425C51.7538 101.075 48.9352 104.409 48.9352 108.313V117.767C48.9352 122.238 52.5982 125.84 57.0677 125.766L108.403 124.916C112.769 124.844 116.27 121.284 116.27 116.917V99.6498Z" fill="white"/>
<path d="M48.2194 107.689C48.2194 103.779 51.0458 100.442 54.9026 99.7985L104.986 91.441C109.863 90.6272 114.303 94.3877 114.303 99.3318V114.694C114.303 119.013 110.874 122.552 106.557 122.69L56.4735 124.281C51.9579 124.425 48.2194 120.803 48.2194 116.285V107.689Z" fill="#2E7CE6"/>
<path d="M48.2194 107.689C48.2194 103.779 51.0458 100.442 54.9026 99.7985L104.986 91.441C109.863 90.6272 114.303 94.3877 114.303 99.3318V114.694C114.303 119.013 110.874 122.552 106.557 122.69L56.4735 124.281C51.9579 124.425 48.2194 120.803 48.2194 116.285V107.689Z" fill="url(#paint0_linear)"/>
<path d="M54.5873 109.533C54.596 108.536 55.3381 107.697 56.327 107.567L60.705 106.993C61.9097 106.835 62.9758 107.778 62.9652 108.993L62.9239 113.721C62.915 114.749 62.1287 115.602 61.1053 115.695L56.7288 116.094C55.5506 116.201 54.5373 115.267 54.5476 114.084L54.5873 109.533Z" fill="white"/>
<path opacity="0.6" d="M105.912 103.705C105.912 104.215 105.528 104.643 105.022 104.699L67.504 108.864C66.9117 108.93 66.3937 108.466 66.3937 107.87V107.414C66.3937 106.909 66.7703 106.483 67.2716 106.422L104.79 101.806C105.386 101.733 105.912 102.198 105.912 102.799V103.705Z" fill="url(#paint1_linear)"/>
<path opacity="0.6" d="M105.937 110.351C105.928 110.861 105.537 111.282 105.03 111.33L67.4451 114.839C66.8517 114.894 66.3419 114.422 66.3523 113.826L66.3603 113.37C66.3691 112.865 66.7531 112.446 67.2553 112.393L104.848 108.433C105.446 108.37 105.963 108.844 105.953 109.445L105.937 110.351Z" fill="url(#paint2_linear)"/>
<defs>
<linearGradient id="paint0_linear" x1="117.753" y1="81.8461" x2="71.9503" y2="114.783" gradientUnits="userSpaceOnUse">
<stop stop-color="white"/>
<stop offset="1" stop-color="white" stop-opacity="0"/>
</linearGradient>
<linearGradient id="paint1_linear" x1="9259.06" y1="4307.34" x2="19762.9" y2="4307.34" gradientUnits="userSpaceOnUse">
<stop stop-color="white"/>
<stop offset="1" stop-color="white"/>
</linearGradient>
<linearGradient id="paint2_linear" x1="9184.33" y1="4473.1" x2="19686.6" y2="4656.41" gradientUnits="userSpaceOnUse">
<stop stop-color="white"/>
<stop offset="1" stop-color="white"/>
</linearGradient>
</defs>
</svg>
