<svg width="119" height="135" viewBox="0 0 119 135" fill="none" xmlns="http://www.w3.org/2000/svg">
<path opacity="0.07" d="M99.6874 84.9511C78.4497 103.588 84.5413 130.493 53.7338 120.608C13.2194 111.454 17.3261 80.7331 17.3261 59.4953C17.326 26.2672 41.9967 2.80095 72.8043 12.6855C103.612 22.5701 109.223 59.4953 99.6874 84.9511Z" fill="#4285F4"/>
<path opacity="0.1" d="M36.9053 127.066C43.4575 127.066 48.7691 126.218 48.7691 125.172C48.7691 124.125 43.4575 123.277 36.9053 123.277C30.353 123.277 25.0414 124.125 25.0414 125.172C25.0414 126.218 30.353 127.066 36.9053 127.066Z" fill="#4285F4"/>
<path d="M37.2876 88.8758H36.5242V105.966H37.2876V88.8758Z" fill="#535461"/>
<path d="M42.0858 105.915L42.0371 106.685L41.9702 107.775L41.9422 108.228L41.874 109.317L41.8448 109.77L41.7778 110.86L41.0071 123.217C40.9742 123.748 40.7386 124.247 40.3484 124.612C39.9581 124.977 39.4425 125.18 38.9068 125.18H34.9047C34.3675 125.18 33.8506 124.976 33.4601 124.609C33.0695 124.243 32.8349 123.741 32.8044 123.208L32.0337 110.851L31.9667 109.762L31.9387 109.309L31.8693 108.219L31.8413 107.766L31.7744 106.677L31.7257 105.907C31.7172 105.759 31.7391 105.612 31.7899 105.473C31.8408 105.334 31.9195 105.206 32.0213 105.099C32.1231 104.991 32.2459 104.905 32.3822 104.846C32.5185 104.787 32.6655 104.756 32.8142 104.756H40.9986C41.1479 104.756 41.2955 104.788 41.4322 104.847C41.569 104.907 41.6921 104.994 41.7939 105.102C41.8957 105.211 41.9741 105.339 42.0243 105.479C42.0745 105.619 42.0955 105.767 42.0858 105.915Z" fill="#3F3D56"/>
<path d="M42.0374 106.684L41.9692 107.771H31.8416L31.7734 106.684H42.0374Z" fill="#9D9CB5"/>
<path d="M41.9413 108.224L41.8743 109.311H31.9379L31.8697 108.224H41.9413Z" fill="#9D9CB5"/>
<path d="M41.845 109.765L41.778 110.851H32.0339L31.9657 109.765H41.845Z" fill="#9D9CB5"/>
<path d="M30.613 95.2825C35.0596 98.481 36.9115 103.483 36.9115 103.483C36.9115 103.483 31.5542 103.3 27.1065 100.102C22.6588 96.9035 20.8044 91.9048 20.8044 91.9048C20.8044 91.9048 26.1617 92.0839 30.613 95.2825Z" fill="#4285F4"/>
<path d="M20.8044 91.9048C20.8044 91.9048 26.365 94.9737 28.1487 97.5149C29.9324 100.056 36.9066 103.486 36.9066 103.486" stroke="#535461" stroke-width="2" stroke-miterlimit="10"/>
<path d="M33.4779 88.8394C35.8984 90.5791 36.9065 93.3018 36.9065 93.3018C36.9065 93.3018 33.9844 93.2026 31.57 91.4629C29.1556 89.7232 28.1414 86.9993 28.1414 86.9993C28.1414 86.9993 31.0586 87.0985 33.4779 88.8394Z" fill="#4285F4"/>
<path d="M28.1414 86.9993C28.1414 86.9993 31.1682 88.6699 32.1398 90.0525C33.1114 91.435 36.9065 93.3018 36.9065 93.3018" stroke="#535461" stroke-width="2" stroke-miterlimit="10"/>
<path d="M40.4227 93.1636C37.643 96.2011 37.055 100.171 37.055 100.171C37.055 100.171 40.9743 99.2144 43.7515 96.1757C46.5288 93.137 47.1193 89.1685 47.1193 89.1685C47.1193 89.1685 43.2024 90.1262 40.4227 93.1636Z" fill="#4285F4"/>
<path d="M47.1217 89.1698C47.1217 89.1698 43.5007 92.2836 42.5802 94.4288C41.6598 96.5741 37.055 100.171 37.055 100.171" stroke="#535461" stroke-width="2" stroke-miterlimit="10"/>
<path opacity="0.1" d="M61.6207 135C72.1121 135 80.617 133.642 80.617 131.966C80.617 130.291 72.1121 128.933 61.6207 128.933C51.1293 128.933 42.6243 130.291 42.6243 131.966C42.6243 133.642 51.1293 135 61.6207 135Z" fill="#4285F4"/>
<path d="M78.8213 58.0006C78.8213 58.0006 78.0532 57.894 78.0532 56.7832C78.0532 55.6725 77.5034 53.5925 77.5034 53.5925C77.5034 53.5925 77.0277 49.9734 76.3707 49.3996C75.7137 48.8258 74.8696 45.4568 74.8696 45.4568C74.8696 45.4568 74.7253 43.6288 74.4309 43.2353C74.1366 42.8418 73.7388 41.8784 73.152 40.504C72.5652 39.1296 70.1244 38.1875 70.1244 38.1875C70.1244 38.1875 65.7009 35.6365 64.4473 34.8049C64.3327 34.736 64.2255 34.6554 64.1276 34.5645C63.9092 34.2815 62.9579 34.2757 62.9579 34.2757C62.8584 33.6496 62.7629 32.9323 62.7317 32.283C62.7317 32.2132 62.7317 32.1434 62.7317 32.0736C64.1295 31.252 65.1824 29.9567 65.697 28.4254C65.7204 28.3518 65.7399 28.2762 65.7613 28.2006C65.8469 28.1743 65.9258 28.1303 65.993 28.0715C66.0603 28.0127 66.1142 27.9404 66.1512 27.8594C66.2623 27.6093 66.2662 27.3185 66.4066 27.084C66.5704 26.8087 66.8823 26.6614 67.1279 26.4559C67.7479 25.9306 67.9078 25.0486 67.8785 24.248C67.859 23.5967 67.7537 22.9415 67.7947 22.296C67.7947 22.2417 67.7947 22.1874 67.8064 22.1331C67.8181 22.0382 67.8317 21.9393 67.8493 21.8463C67.9448 21.3655 68.1534 20.9119 68.2704 20.4351C68.3873 19.9582 68.399 19.4212 68.1261 19.0103C67.7265 18.4074 66.894 18.2872 66.1629 18.2349C65.3344 18.1651 64.6033 18.2543 64.0633 17.57C63.8155 17.2126 63.5363 16.8779 63.2289 16.5698C63.1197 16.469 62.0591 15.8234 62.0591 15.7827C61.0215 15.303 59.8443 15.2128 58.7449 15.5288C58.1932 15.6877 57.6766 15.9475 57.117 16.0774C55.9161 16.3604 54.532 16.0541 53.5104 16.7384C52.9411 17.1261 52.5999 17.7445 52.2802 18.3435C52.0203 18.8371 51.7564 19.3314 51.4887 19.8264C51.0559 20.6386 50.6192 21.4644 50.4379 22.3638C50.4 22.5603 50.3759 22.7591 50.3658 22.9589C50.3658 23.0307 50.3658 23.1024 50.3658 23.1741C50.3658 23.2051 50.3658 23.2361 50.3658 23.2672C50.3658 23.3331 50.3658 23.399 50.3775 23.461C50.3892 23.523 50.3775 23.5405 50.3911 23.5812C50.4048 23.6219 50.4087 23.713 50.4204 23.775C50.4321 23.8371 50.4555 23.9476 50.4788 24.0309C50.4788 24.0677 50.5022 24.1026 50.5139 24.1395C50.5256 24.1763 50.5568 24.2693 50.5822 24.3333C50.6075 24.3973 50.6095 24.4012 50.6251 24.4341C50.6543 24.502 50.6894 24.5679 50.7245 24.628C50.7401 24.6532 50.7518 24.6784 50.7674 24.7036C50.8208 24.7943 50.8808 24.8811 50.9467 24.9633C51.362 25.4809 51.978 25.8104 52.4323 26.295C52.4323 26.3144 52.4323 26.3338 52.4323 26.3532C52.4323 26.4055 52.4323 26.4579 52.4323 26.5121C52.4601 27.593 52.7531 28.6508 53.2859 29.5934C53.8187 30.536 54.575 31.3349 55.4892 31.9205C55.4892 31.9941 55.4989 32.0697 55.5028 32.1453C55.5408 32.7201 55.5337 33.2969 55.4814 33.8706C55.4018 33.7778 55.3024 33.7039 55.1904 33.6543C55.0784 33.6046 54.9567 33.5805 54.8341 33.5837C54.7504 33.5795 54.6664 33.5867 54.5846 33.605L54.567 33.5914V33.6089C54.1381 33.7135 53.6098 34.1575 53.1049 35.4194C53.1049 35.4194 51.5686 37.1408 50.3989 37.069C49.2292 36.9973 46.2678 38.8621 46.2678 38.8621C46.2678 38.8621 43.3786 40.725 42.7587 42.6247C42.4121 43.7022 41.996 44.7563 41.5129 45.7805L37.9316 53.0924L37.2746 58.9078C37.2746 58.9078 37.6392 61.4879 37.567 61.8833C37.4949 62.2788 39.0662 65.8262 39.0662 65.8262C39.0662 65.8262 44.2579 74.8943 46.379 75.3596L46.531 75.2549C46.6222 75.3006 46.7184 75.3357 46.8176 75.3596L47.2543 75.0552C47.2813 75.396 47.2696 75.7387 47.2192 76.0768C46.9287 76.9743 47.3303 82.8168 47.8411 83.9625C48.3519 85.1081 48.1706 100.131 48.1706 100.131L48.0985 101.455C48.0985 101.455 48.0985 101.498 48.116 101.571L48.0985 101.886L48.1511 101.913C48.2057 102.334 48.1879 102.761 48.0985 103.177C47.9152 103.758 47.8411 105.4 47.8411 105.4C47.8411 105.4 46.379 114.681 47.073 116.546C47.767 118.411 48.3539 120.454 48.3539 120.454C48.3539 120.454 49.0849 122.78 48.3889 123.168C47.693 123.556 45.722 124.244 46.1236 125.211C46.494 126.107 47.8996 128.506 48.1082 128.857L48.0907 129.051L47.8041 132.139C47.8505 132.547 47.9617 132.945 48.1336 133.318C48.4474 133.992 49.0557 134.688 50.2176 134.613C50.4126 134.599 50.6368 134.578 50.8571 134.549C52.9801 134.264 55.5925 133.322 55.5925 133.322C55.4571 133.236 55.3332 133.134 55.224 133.017C55.1197 132.917 55.037 132.796 54.981 132.663C54.9251 132.53 54.897 132.386 54.8985 132.242C54.9297 131.678 53.8711 129.001 53.6059 128.34L53.5455 128.192C53.5455 128.192 55.959 125.682 55.5574 123.461C55.5574 123.461 52.8865 121.91 53.7658 121.057C54.645 120.204 56.2163 117.762 56.2163 117.762C56.2163 117.762 56.2885 108.622 56.2163 107.259C56.1412 106.311 56.1864 105.358 56.3509 104.421C56.3801 104.281 56.4152 104.144 56.4522 104.006C57.6693 104.189 58.8983 104.281 60.1291 104.283C60.5788 104.283 61.0337 104.274 61.4938 104.256C61.4938 104.386 61.4996 104.525 61.5113 104.675C61.6127 106.939 61.8018 110.911 61.9558 112.386C62.1742 114.499 63.3809 120.2 63.3809 120.2C63.3809 120.2 61.0785 121.668 63.7825 125.291C63.7825 125.291 63.7825 126.601 63.6032 126.793C63.4115 127.415 63.2573 128.047 63.1411 128.687C63.0281 129.367 62.9813 130.059 63.1645 130.416C63.6032 131.273 66.2351 131.203 66.2351 131.203C66.2562 131.198 66.2777 131.195 66.2994 131.193C66.7962 131.141 67.2984 131.188 67.7768 131.331C68.2551 131.474 68.7 131.711 69.0853 132.027C70.0854 132.825 73.8792 132.476 75.936 132.221C76.7411 132.118 77.2792 132.027 77.2792 132.027C77.3051 131.936 77.3143 131.842 77.3065 131.748C77.2851 131.246 76.8893 130.144 74.2067 129.162C74.2067 129.162 71.684 127.475 71.7191 126.006H71.6626H71.3721C71.5554 126 71.684 126 71.684 126C71.684 126 70.6956 122.416 71.0992 122.123C71.5027 121.83 70.294 117.858 70.294 117.858C70.294 117.858 69.6019 111.19 69.5629 110.725C69.5655 110.324 69.6272 109.926 69.7462 109.542L69.5629 105.885C69.5629 105.885 69.5278 104.669 69.5629 104.274C69.559 103.93 69.5317 103.588 69.481 103.248C69.4635 103.113 69.4459 102.971 69.4265 102.831C70.372 102.593 70.9861 102.374 70.9861 102.374L70.8769 89.648C71.6801 88.0972 71.8283 84.6933 71.8244 82.2818C71.8244 80.731 71.7542 79.5835 71.7542 79.5835L72.8518 77.802C72.8518 77.802 73.1052 75.6697 72.7036 75.2025C72.5262 74.9912 72.6062 74.7722 72.7524 74.5919C72.8293 74.5292 72.9108 74.4722 72.9961 74.4213C72.9865 74.4078 72.978 74.3936 72.9707 74.3787C73.0474 74.315 73.1288 74.2573 73.2144 74.2062C73.2144 74.2062 72.8245 73.6052 73.1735 73.3513C73.501 73.5723 73.7934 73.7487 74.0157 73.8747C74.0001 74.0162 73.9845 74.0976 73.9845 74.0976L74.0781 73.9038C74.2925 74.024 74.4231 74.0976 74.4231 74.0976C74.4231 74.0976 76.1426 70.6917 76.1056 70.1916C76.0685 69.6915 77.2753 67.5747 77.2753 67.5747C77.2753 67.5747 77.4215 66.462 78.0805 65.9968C78.7394 65.5315 78.5913 62.1605 78.5913 62.1605C78.5913 62.1605 78.7745 60.4043 79.2132 59.689C79.6518 58.9737 78.8213 58.0006 78.8213 58.0006ZM45.9208 56.506L45.954 57.3182C45.759 57.0062 45.6186 56.7832 45.6186 56.7832L45.9208 56.506Z" fill="url(#paint0_linear)"/>
<path opacity="0.1" d="M74.5243 72.6239L74.1032 74.4073C74.1032 74.4073 70.7305 72.6918 70.1242 70.5207C69.5178 68.3496 71.1399 67.5219 71.1399 67.5219L74.2845 68.8439L74.5243 72.6239Z" fill="black"/>
<path d="M55.5966 133.319C55.5966 133.319 52.4773 134.459 50.3328 134.603C49.1943 134.678 48.5958 133.984 48.2877 133.315C48.1204 132.947 48.0112 132.554 47.9641 132.152L48.2468 129.08L48.395 127.446L52.951 126.267L53.5963 128.231L53.6568 128.378C53.9141 129.035 54.9552 131.699 54.924 132.255C54.9215 132.399 54.9483 132.542 55.003 132.675C55.0576 132.808 55.1388 132.929 55.2417 133.031C55.3472 133.141 55.4665 133.238 55.5966 133.319Z" fill="white"/>
<path d="M76.8933 131.757C76.9014 131.851 76.8921 131.946 76.866 132.036C76.866 132.036 70.1948 133.141 68.8301 132.036C68.4465 131.714 67.9994 131.474 67.5173 131.333C67.0353 131.192 66.5289 131.152 66.0306 131.216C66.0306 131.216 63.4494 131.286 63.0185 130.441C62.8392 130.086 62.886 129.398 62.9971 128.722C63.1106 128.085 63.2616 127.456 63.4494 126.837L63.5527 126.756L64.1668 126.266L71.3567 126.054H71.4113C71.3762 127.516 73.8501 129.193 73.8501 129.193C76.4839 130.162 76.8719 131.257 76.8933 131.757Z" fill="white"/>
<path opacity="0.1" d="M76.8951 131.757C76.902 131.851 76.8921 131.945 76.8659 132.036C76.8659 132.036 70.1945 133.141 68.8318 132.036C68.448 131.713 68.0005 131.473 67.5181 131.332C67.0357 131.191 66.529 131.151 66.0303 131.216C66.0303 131.216 63.4472 131.286 63.0163 130.441C62.8389 130.086 62.8837 129.398 62.9949 128.719C63.9891 128.818 65.5585 129.064 66.1746 129.654C67.1065 130.545 68.6856 131.437 69.6526 131.509C70.4168 131.555 74.9612 131.699 76.8951 131.757Z" fill="black"/>
<path opacity="0.1" d="M55.5967 133.319C55.5967 133.319 52.4774 134.459 50.3329 134.603C49.1944 134.678 48.5959 133.984 48.2878 133.315C49.0833 133.581 50.1848 133.858 50.7638 133.604C51.45 133.3 53.883 133.106 55.2477 133.023C55.3506 133.136 55.4679 133.236 55.5967 133.319Z" fill="black"/>
<path d="M60.2246 41.4574C57.6512 40.4629 54.3409 37.1772 55.1675 35.642C55.3502 35.2542 55.4592 34.8363 55.4892 34.4091C55.5424 33.829 55.5502 33.2458 55.5126 32.6645C55.4545 31.7119 55.3393 30.7636 55.1675 29.8246C55.1675 29.8246 63.2016 30.0049 62.7337 31.1816C62.5972 31.5285 62.5738 32.1275 62.6128 32.7963C62.6518 33.4651 62.7473 34.2269 62.8487 34.8685C62.9871 35.7467 63.1294 36.4193 63.1294 36.4193C63.1294 36.4193 62.6362 37.1036 62.3496 37.1404C62.063 37.1772 63.917 42.8821 60.2246 41.4574Z" fill="#CF6F80"/>
<path opacity="0.1" d="M53.6487 128.369L53.5883 128.435C51.1865 125.546 48.2817 129.148 48.2817 129.148L48.2388 129.07L48.3869 127.436L52.943 126.258L53.5883 128.221L53.6487 128.369Z" fill="black"/>
<path opacity="0.1" d="M71.4148 126.258C71.4148 126.258 69.6602 126.223 68.7244 127.045C67.7887 127.867 63.2657 127.221 63.4606 127.045C63.5175 126.955 63.5523 126.854 63.562 126.748L64.1761 126.258L71.3661 126.047C71.3934 126.182 71.4148 126.258 71.4148 126.258Z" fill="black"/>
<path d="M56.6374 103.575C56.5069 103.897 56.4077 104.23 56.341 104.57C56.1785 105.502 56.1333 106.45 56.2065 107.392C56.2786 108.749 56.2065 117.843 56.2065 117.843C56.2065 117.843 54.6644 120.268 53.8027 121.122C52.941 121.977 55.5573 123.513 55.5573 123.513C55.9472 125.724 53.5844 128.221 53.5844 128.221C51.1825 125.333 48.2777 128.933 48.2777 128.933C48.2777 128.933 46.6986 126.219 46.3048 125.249C45.911 124.28 47.8469 123.611 48.5273 123.216C49.2076 122.821 48.4922 120.502 48.4922 120.502C48.4922 120.502 47.919 118.469 47.2367 116.614C46.5543 114.759 47.9892 105.526 47.9892 105.526C47.9892 105.526 48.0633 103.884 48.2407 103.312C48.3292 102.899 48.347 102.474 48.2933 102.056C48.2816 101.914 48.268 101.798 48.2582 101.716C48.2485 101.635 48.2407 101.6 48.2407 101.6L48.268 101.554L49.2427 99.747C49.2427 99.747 57.1053 102.438 56.6374 103.575Z" fill="#4285F4"/>
<path d="M71.415 126.044C71.415 126.044 69.6604 126.008 68.7247 126.82C67.7889 127.632 63.2659 126.998 63.4609 126.82C63.6558 126.641 63.6383 125.323 63.6383 125.323C60.9849 121.72 63.2483 120.258 63.2483 120.258C63.2483 120.258 62.065 114.588 61.8505 112.485C61.7004 111.017 61.5152 107.057 61.4158 104.814C61.3729 103.845 61.3475 103.176 61.3475 103.176L63.4959 102.752L63.7747 102.697L69.0034 101.653C69.0034 101.653 69.1477 102.622 69.2452 103.415C69.2945 103.753 69.3212 104.094 69.3251 104.436C69.292 104.824 69.3251 106.039 69.3251 106.039L69.5045 109.676C69.3888 110.058 69.3284 110.454 69.3251 110.853C69.3622 111.318 70.0426 117.949 70.0426 117.949C70.0426 117.949 71.2259 121.908 70.8224 122.193C70.4188 122.478 71.415 126.044 71.415 126.044Z" fill="#4285F4"/>
<path d="M65.8356 26.9072C65.8568 28.666 65.1744 30.3611 63.9387 31.6197C62.7029 32.8782 61.0149 33.5971 59.2461 33.6182C57.4773 33.6392 55.7724 32.9608 54.5067 31.7321C53.241 30.5033 52.518 28.825 52.4968 27.0662C52.4968 27.0119 52.4968 26.9615 52.4968 26.9072C52.4968 25.1479 53.1996 23.4607 54.4507 22.2167C55.7019 20.9727 57.3988 20.2738 59.1681 20.2738C60.9375 20.2738 62.6343 20.9727 63.8855 22.2167C65.1366 23.4607 65.8395 25.1479 65.8395 26.9072H65.8356Z" fill="#CF6F80"/>
<path d="M69.3349 54.1874L66.393 103.327L62.5563 103.578L52.6194 75.084L54.2493 41.2559L54.5943 34.1088L59.012 37.7163L61.1916 39.4938L62.8975 35.1769L66.0694 37.9256L69.3349 54.1874Z" fill="#4285F4"/>
<path d="M63.5605 104.149C55.5673 105.506 48.2449 101.616 48.2449 101.616L48.317 100.298C48.317 100.298 48.4963 85.354 47.9934 84.2084C47.4904 83.0628 47.0985 77.2551 47.3851 76.3615C47.6717 75.4678 46.3401 62.106 46.3401 62.106L46.1237 56.6783L38.271 53.505L41.7801 46.2299C42.2529 45.2104 42.6605 44.1622 43.0006 43.0916C43.6108 41.2074 46.4532 39.3503 46.4532 39.3503C46.4532 39.3503 49.358 37.4971 50.5044 37.5669C51.6507 37.6367 53.1636 35.9289 53.1636 35.9289C54.2767 33.1123 55.503 34.3782 55.503 34.3782C55.503 34.5139 55.386 34.572 55.4484 34.7949C56.3062 37.7937 61.5388 47.6567 61.6343 47.8311L62.2796 63.2729L62.9113 82.8243L63.5605 104.149Z" fill="white"/>
<path opacity="0.1" d="M61.406 48.267C60.5462 47.9104 55.9921 42.7405 55.9921 42.7405V41.5638C55.8264 41.1761 54.8399 41.4126 54.0425 41.684L54.3857 34.5369L54.7756 34.8587C55.6275 37.8556 61.3124 48.0945 61.406 48.267Z" fill="black"/>
<path d="M61.6226 47.8408C60.7609 47.4822 56.2068 42.3142 56.2068 42.3142V41.1356C56.041 40.7479 55.0565 40.9844 54.2572 41.2558L54.5945 34.1164L54.9844 34.4363C55.8441 37.4293 61.5271 47.6663 61.6226 47.8408Z" fill="white"/>
<path opacity="0.1" d="M48.461 73.6224C48.5682 73.6224 54.0192 73.0525 54.0192 73.0525C54.0192 73.0525 57.3198 79.5076 57.1034 81.0758C56.887 82.644 56.4951 84.0359 55.1675 83.7897C53.8398 83.5435 48.0223 83.9835 48.0223 83.9835L48.461 73.6224Z" fill="black"/>
<path d="M48.245 73.194C48.3542 73.194 53.8051 72.6241 53.8051 72.6241C53.8051 72.6241 57.1037 79.0888 56.8892 80.6396C56.6748 82.1904 56.279 83.5996 54.9534 83.3535C53.6277 83.1073 47.8063 83.5473 47.8063 83.5473L48.245 73.194Z" fill="white"/>
<path d="M52.3521 70.1721C52.3521 70.1721 57.3547 72.8471 57.4619 73.6612C57.5691 74.4754 54.9158 73.3046 54.3426 73.1611C53.9651 73.072 53.5812 73.0124 53.1943 72.9828L49.3713 73.0855L52.3521 70.1721Z" fill="#CF6F80"/>
<path opacity="0.1" d="M60.0082 48.6006C60.2989 48.6006 60.5346 48.3663 60.5346 48.0772C60.5346 47.7882 60.2989 47.5538 60.0082 47.5538C59.7175 47.5538 59.4818 47.7882 59.4818 48.0772C59.4818 48.3663 59.7175 48.6006 60.0082 48.6006Z" fill="black"/>
<path d="M60.0082 48.3873C60.2989 48.3873 60.5346 48.153 60.5346 47.8639C60.5346 47.5749 60.2989 47.3405 60.0082 47.3405C59.7175 47.3405 59.4818 47.5749 59.4818 47.8639C59.4818 48.153 59.7175 48.3873 60.0082 48.3873Z" fill="#3F3D56"/>
<path opacity="0.1" d="M60.9772 71.2571C61.2679 71.2571 61.5035 71.0228 61.5035 70.7337C61.5035 70.4446 61.2679 70.2103 60.9772 70.2103C60.6865 70.2103 60.4508 70.4446 60.4508 70.7337C60.4508 71.0228 60.6865 71.2571 60.9772 71.2571Z" fill="black"/>
<path d="M60.9772 71.0422C61.2679 71.0422 61.5035 70.8079 61.5035 70.5188C61.5035 70.2298 61.2679 69.9954 60.9772 69.9954C60.6865 69.9954 60.4508 70.2298 60.4508 70.5188C60.4508 70.8079 60.6865 71.0422 60.9772 71.0422Z" fill="#3F3D56"/>
<path opacity="0.1" d="M60.5348 59.9292C60.8255 59.9292 61.0612 59.6948 61.0612 59.4058C61.0612 59.1167 60.8255 58.8824 60.5348 58.8824C60.2441 58.8824 60.0084 59.1167 60.0084 59.4058C60.0084 59.6948 60.2441 59.9292 60.5348 59.9292Z" fill="black"/>
<path d="M60.5348 59.7159C60.8255 59.7159 61.0612 59.4816 61.0612 59.1925C61.0612 58.9034 60.8255 58.6691 60.5348 58.6691C60.2441 58.6691 60.0084 58.9034 60.0084 59.1925C60.0084 59.4816 60.2441 59.7159 60.5348 59.7159Z" fill="#3F3D56"/>
<path d="M72.8853 72.8742C72.8853 72.8742 73.2421 73.4092 72.8853 73.6496C72.5285 73.89 72.9185 74.5064 72.9185 74.5064C72.9185 74.5064 72.0236 75.0259 72.4174 75.497C72.8112 75.968 72.5617 78.0829 72.5617 78.0829L71.4894 79.8643C71.4894 79.8643 71.5538 81.0061 71.5596 82.5491C71.5596 84.9567 71.4173 88.3412 70.6297 89.8843L70.7369 102.544C70.7369 102.544 66.9684 103.915 63.8141 103.496L63.3481 83.181C63.3481 83.181 64.0285 71.6607 64.282 69.4509C64.4293 68.3036 64.4886 67.1469 64.4594 65.9907C64.4594 65.9907 64.3521 62.5325 63.9934 60.9294C63.9934 60.9294 63.6035 53.9742 63.5626 52.0493C63.545 51.1285 63.5938 48.4418 63.6484 45.8869C63.7088 43.0936 63.777 40.4592 63.777 40.4592L62.8373 34.7834C62.8373 34.7834 63.777 34.7834 63.9934 35.0722C64.0886 35.1625 64.1932 35.2424 64.3054 35.3106C65.5336 36.1364 69.8733 38.6758 69.8733 38.6758C69.8733 38.6758 72.2693 39.6256 72.8541 40.9864C73.439 42.3472 73.8289 43.3126 74.1077 43.7003C74.3865 44.088 74.5385 45.9101 74.5385 45.9101C74.5385 45.9101 75.3651 49.2637 76.0104 49.8317C76.6557 50.3996 77.1217 54.0052 77.1217 54.0052L71.4193 58.4637C71.4193 58.4637 70.9182 65.8802 70.809 66.1671C70.6999 66.454 72.8853 72.8742 72.8853 72.8742Z" fill="white"/>
<path opacity="0.1" d="M66.0559 42.1046L66.5725 43.5972L63.8607 46.3111C63.9211 43.5177 63.9894 40.8833 63.9894 40.8833L63.0497 35.2094C63.0497 35.2094 63.9894 35.2094 64.2058 35.4983C64.3009 35.5885 64.4055 35.6685 64.5177 35.7367L66.8221 42.3449L66.0559 42.1046Z" fill="black"/>
<path d="M65.8357 41.6762L66.3523 43.1668L63.6425 45.8807C63.701 43.0874 63.7711 40.453 63.7711 40.453L62.8295 34.7772C62.8295 34.7772 63.7712 34.7772 63.9856 35.066C64.0812 35.1558 64.1857 35.2356 64.2975 35.3045L66.6155 41.9185L65.8357 41.6762Z" fill="white"/>
<path d="M61.9364 16.3753C60.9233 15.9015 59.7711 15.8119 58.6962 16.1233C58.1562 16.2823 57.6474 16.5401 57.0995 16.67C55.9298 16.9511 54.5651 16.6467 53.5611 17.3271C53.0036 17.7148 52.6682 18.3274 52.3563 18.9244L51.5765 20.3996C51.1515 21.2079 50.7226 22.0298 50.5452 22.9196C50.3678 23.8093 50.475 24.8057 51.0423 25.5229C51.4537 26.0424 52.0658 26.37 52.5142 26.8605C52.7836 27.1595 52.9878 27.5107 53.114 27.892C53.2401 28.2733 53.2855 28.6765 53.2472 29.0761C53.7541 28.8823 53.8048 28.198 53.8165 27.6552C53.8384 26.6951 54.0053 25.7436 54.3117 24.8328C54.4896 24.2326 54.7918 23.676 55.1987 23.1987C55.4038 22.9612 55.6576 22.77 55.943 22.6379C56.2285 22.5058 56.5391 22.436 56.8539 22.433C57.6337 22.4602 58.3336 22.9971 59.1056 22.9312C59.6905 22.8827 60.2091 22.4873 60.7978 22.4078C61.3169 22.359 61.8357 22.5049 62.2522 22.8168C62.6644 23.1278 63.0254 23.5006 63.3225 23.9218C64.3869 25.3175 65.2506 26.9496 65.3013 28.7001C65.5216 28.859 65.8393 28.6497 65.9485 28.4015C66.0577 28.1534 66.0616 27.8626 66.2 27.6262C66.3599 27.3528 66.6659 27.2055 66.9057 27C67.514 26.4786 67.6661 25.6005 67.6427 24.8038C67.6193 24.0071 67.4633 23.1987 67.6154 22.4156C67.707 21.9368 67.9137 21.4851 68.0267 21.0102C68.1398 20.5353 68.1535 20.0022 67.8864 19.5932C67.4965 18.9942 66.6757 18.874 65.9602 18.8178C65.1473 18.748 64.4201 18.8372 63.9015 18.1568C63.6575 17.8022 63.3835 17.4689 63.0827 17.1604C62.9755 17.0577 61.9364 16.418 61.9364 16.3753Z" fill="#512E4E"/>
<path opacity="0.1" d="M40.7409 57.254L38.7055 53.5108L38.0602 59.2875C38.0602 59.2875 38.419 61.854 38.3468 62.2475C38.2747 62.641 39.8168 66.169 39.8168 66.169C39.8168 66.169 44.9109 75.1925 46.9911 75.6558L54.0095 70.6624L52.1457 68.3091C52.1457 68.3091 51.5004 68.059 51.3386 68.3091C51.3386 68.3091 47.8762 62.389 47.5194 61.9625C47.1627 61.5361 47.2309 60.6773 47.2309 60.6773C47.2309 60.6773 46.6928 60.1074 46.8722 59.5724C47.0515 59.0374 45.8428 57.1842 45.8428 57.1842L46.9541 56.151L40.7409 57.254Z" fill="black"/>
<path d="M38.8126 53.0822L38.2745 53.5106L37.6292 59.2872C37.6292 59.2872 37.9879 61.8537 37.9158 62.2472C37.8436 62.6407 39.3877 66.1688 39.3877 66.1688C39.3877 66.1688 44.4799 75.1923 46.56 75.6556L53.5901 70.6621L51.7244 68.3088C51.7244 68.3088 51.0791 68.0588 50.9173 68.3088C50.9173 68.3088 47.4568 62.3887 47.0981 61.9623C46.7394 61.5358 46.8115 60.6771 46.8115 60.6771C46.8115 60.6771 46.2735 60.1072 46.4528 59.5722C46.6322 59.0371 45.4118 57.184 45.4118 57.184L46.523 56.1508L38.8126 53.0822Z" fill="white"/>
<path opacity="0.1" d="M72.2026 75.7199C72.5925 76.1909 72.3469 78.3077 72.3469 78.3077L71.2707 80.0775C71.2707 80.0775 71.335 81.2212 71.3389 82.7643L69.5298 83.3264C69.366 83.3772 69.1924 83.3883 69.0234 83.3588C68.8545 83.3293 68.6951 83.2601 68.5585 83.1569C68.4219 83.0537 68.3121 82.9195 68.2382 82.7656C68.1644 82.6116 68.1286 82.4424 68.1339 82.2719L68.4478 72.2694L72.6685 73.8725C72.3098 74.1206 72.7036 74.7293 72.7036 74.7293C72.7036 74.7293 71.8088 75.2488 72.2026 75.7199Z" fill="black"/>
<path d="M72.4172 75.5068C72.8071 75.9759 72.5615 78.0927 72.5615 78.0927L71.4892 79.8645C71.4892 79.8645 71.5536 81.0062 71.5594 82.5493L69.7171 83.1211C69.5571 83.171 69.3875 83.1821 69.2223 83.1535C69.0571 83.1248 68.9012 83.0573 68.7677 82.9566C68.6341 82.8558 68.5267 82.7247 68.4545 82.5743C68.3822 82.4239 68.3472 82.2584 68.3524 82.0918L68.6663 72.0544L72.8851 73.6614C72.5244 73.9095 72.9182 74.5182 72.9182 74.5182C72.9182 74.5182 72.0234 75.0358 72.4172 75.5068Z" fill="white"/>
<path d="M73.8172 70.7338C73.8172 70.7338 73.5306 72.554 72.8132 72.6606C72.0957 72.7672 71.7741 75.6052 71.0586 75.5063C70.3431 75.4074 70.8168 72.8661 70.8422 72.3737C70.8675 71.8814 70.0624 69.8421 70.6628 69.3788C71.2633 68.9155 73.1739 69.3788 73.1739 69.3788L73.8172 70.7338Z" fill="#CF6F80"/>
<path opacity="0.1" d="M75.3337 56.7188L76.6847 54.0049C76.6847 54.0049 77.2248 56.0733 77.2248 57.1782C77.2248 58.2831 77.9773 58.3917 77.9773 58.3917C77.9773 58.3917 78.802 59.3609 78.3672 60.0685C77.9325 60.776 77.7589 62.5284 77.7589 62.5284C77.7589 62.5284 77.9013 65.88 77.256 66.3433C76.6107 66.8066 76.4664 67.9134 76.4664 67.9134C76.4664 67.9134 75.283 70.0167 75.3201 70.5168C75.3571 71.0169 73.6707 74.4034 73.6707 74.4034C73.6707 74.4034 74.4954 70.195 69.6897 68.3767C69.6897 68.3767 69.6527 66.95 70.0114 66.5584C70.3701 66.1669 70.9297 65.9769 70.5787 64.0074C70.2278 62.0379 70.4774 59.6633 70.4774 59.1884C70.4774 58.7135 71.5535 55.7534 71.5535 55.7534L75.3337 56.7188Z" fill="black"/>
<path d="M75.9342 53.6171L77.1156 54.0048C77.1156 54.0048 77.6557 56.0732 77.6557 57.1781C77.6557 58.283 78.4082 58.3916 78.4082 58.3916C78.4082 58.3916 79.2328 59.3608 78.7981 60.0684C78.3633 60.7759 78.1879 62.5283 78.1879 62.5283C78.1879 62.5283 78.3321 65.8799 77.6868 66.3432C77.0415 66.8065 76.907 67.9133 76.907 67.9133C76.907 67.9133 75.7237 70.0166 75.7607 70.5167C75.7977 71.0168 74.1095 74.4033 74.1095 74.4033C74.1095 74.4033 74.9341 70.1949 70.1285 68.3766C70.1285 68.3766 70.0934 66.9499 70.4521 66.5583C70.8108 66.1668 71.3704 65.9768 71.0194 64.0073C70.6685 62.0378 70.9181 59.6632 70.9181 59.1883C70.9181 58.7134 71.9942 55.7533 71.9942 55.7533L75.9342 53.6171Z" fill="white"/>
<path opacity="0.1" d="M49.8336 123.958C49.8336 123.958 51.7169 122.782 52.9529 123.637C54.1889 124.491 49.8336 123.958 49.8336 123.958Z" fill="black"/>
<path opacity="0.1" d="M64.4709 120.32C64.4709 120.32 66.1378 120.107 67.5376 121.605C68.9374 123.104 64.4709 120.32 64.4709 120.32Z" fill="black"/>
<defs>
<linearGradient id="paint0_linear" x1="36985.9" y1="104907" x2="36985.9" y2="31512.3" gradientUnits="userSpaceOnUse">
<stop stop-color="#808080" stop-opacity="0.25"/>
<stop offset="0.54" stop-color="#808080" stop-opacity="0.12"/>
<stop offset="1" stop-color="#808080" stop-opacity="0.1"/>
</linearGradient>
</defs>
</svg>
