<svg width="300" height="221" viewBox="0 0 300 221" fill="none" xmlns="http://www.w3.org/2000/svg">
<g clip-path="url(#clip0)">
<path opacity="0.1" d="M19.6348 86.6206H45.7085V122.05H21.5412C21.4796 122.416 21.4179 122.78 21.3485 123.146H45.7085V151.714C45.6674 151.714 45.6263 151.683 45.5878 151.668C44.9026 151.396 44.2175 151.109 43.5323 150.805C43.3859 150.738 43.242 150.669 43.0929 150.605C42.4078 150.282 41.7226 149.941 41.0375 149.581C40.7985 149.455 40.5596 149.324 40.3258 149.191C36.522 147.075 33.0649 144.393 30.074 141.236C29.9841 141.152 29.9019 141.059 29.8171 140.98C29.4009 140.529 28.9924 140.073 28.5967 139.607C28.4476 139.436 28.3038 139.261 28.1573 139.095C27.6897 138.526 27.2375 137.937 26.8007 137.346C26.7339 137.256 26.6722 137.169 26.608 137.089C24.8187 134.621 23.3349 131.947 22.1887 129.124C22.1527 129.04 22.1193 128.947 22.0859 128.868C21.7314 127.972 21.4102 127.062 21.1327 126.135C21.0145 125.748 20.8989 125.367 20.8013 124.965C20.7653 124.849 20.737 124.732 20.7062 124.616C19.2622 118.943 19.0952 113.047 19.0952 107.18C19.0952 106.497 19.0952 105.814 19.0952 105.131C19.1158 102.735 19.144 100.342 19.18 97.9514C19.1937 97.3368 19.2066 96.7195 19.2185 96.0997C19.2545 94.5305 19.3059 92.9579 19.3727 91.3819C19.3881 90.9465 19.4087 90.5085 19.4318 90.0757C19.4421 89.8247 19.4549 89.5737 19.4703 89.3227C19.5166 88.416 19.5714 87.5153 19.6348 86.6206Z" fill="#4285F4"/>
<path opacity="0.1" d="M45.7089 47.1724H31.4053C33.7314 43.5469 36.2719 40.0627 39.0131 36.738C41.1405 34.1358 43.381 31.6001 45.7089 29.1567V47.1724Z" fill="#4285F4"/>
<path opacity="0.1" d="M45.7088 48.2637V85.5243H19.7173C19.7173 85.4167 19.7327 85.3066 19.743 85.199C19.7661 84.9045 19.7892 84.6125 19.8149 84.318C19.8406 83.9748 19.874 83.6316 19.9074 83.2935C19.9408 82.9554 19.9742 82.5456 20.0153 82.1742C20.0564 81.8028 20.0898 81.4263 20.131 81.055C20.1721 80.6836 20.2132 80.3122 20.2594 79.9434C20.3057 79.5746 20.3468 79.2007 20.3982 78.8318C20.4367 78.5271 20.4752 78.2197 20.5189 77.9124C20.578 77.4795 20.6397 77.0467 20.7039 76.6164C20.7039 76.5498 20.7245 76.4858 20.7347 76.4217C21.2043 73.2721 21.8424 70.1498 22.6463 67.0682C23.4906 63.8359 24.5682 60.6688 25.8709 57.5916C27.2551 54.3674 28.8765 51.2496 30.7218 48.2637H45.7088Z" fill="#4285F4"/>
<path opacity="0.1" d="M51.937 86.6202V122.05H107.63V86.6202H51.937ZM51.937 123.146V153.573C52.2556 153.637 52.5691 153.701 52.8851 153.755C53.309 153.837 53.7356 153.911 54.1698 153.975L54.4267 154.011C54.5963 154.039 54.7684 154.062 54.9406 154.083C55.3697 154.144 55.7987 154.19 56.2253 154.231C56.4257 154.252 56.6338 154.267 56.8368 154.285L57.3326 154.321C57.6024 154.341 57.8696 154.357 58.1369 154.367C58.3013 154.367 58.4657 154.38 58.6327 154.385C58.7997 154.39 58.8897 154.385 59.0233 154.385H59.5089C59.7299 154.385 59.9508 154.385 60.1692 154.385H60.4518C60.6728 154.385 60.8938 154.385 61.1122 154.364H61.125C61.2792 154.364 61.4308 154.364 61.5849 154.346C61.6286 154.349 61.6723 154.349 61.716 154.346C61.8444 154.346 61.9729 154.346 62.0962 154.331C62.1253 154.329 62.1545 154.329 62.1836 154.331C62.4688 154.313 62.7565 154.29 63.0469 154.265C63.3372 154.239 63.6121 154.208 63.9025 154.177L64.4857 154.106C66.869 153.773 69.2258 153.273 71.5386 152.61C76.7364 151.165 81.816 149.145 87.0112 147.667C93.7224 145.759 101.143 144.819 107.628 147.142V123.146H51.937ZM107.63 47.1722V0.00480564C101.533 -0.0620606 95.4531 0.648027 89.5369 2.11781C75.4337 5.64973 62.7694 13.3103 51.937 23.0942V47.1697H54.7402V48.2633H51.937V85.524H107.63V48.2633H66.2072V47.1671L107.63 47.1722ZM179.182 31.2389C175.692 31.1159 172.224 30.0172 169.084 28.314C163.087 25.0638 158.293 20.0387 152.938 15.8024C141.813 6.97389 128.015 1.64399 113.861 0.322397V47.1722H193.359L193.557 46.9648L179.182 31.2389ZM186.425 29.9583L194.104 38.3616V27.7479C191.52 28.0732 189.269 28.8288 186.425 29.948V29.9583ZM194.104 161.129V123.146H177.727C177.686 122.984 177.64 122.82 177.589 122.657C177.637 122.82 177.681 122.984 177.725 123.146H113.861V150.612C114.467 151.06 115.066 151.534 115.659 152.011C116.3 152.533 116.936 153.062 117.569 153.596L118.206 154.121C118.511 154.377 118.822 154.633 119.131 154.877C119.749 155.374 120.372 155.865 120.999 156.352C121.312 156.598 121.627 156.839 121.944 157.077C126.963 160.9 132.256 164.351 137.782 167.401C139.02 168.09 140.271 168.753 141.53 169.401C142.368 169.832 143.211 170.253 144.061 170.667C145.335 171.286 146.62 171.884 147.915 172.459C159.854 177.802 172.478 181.467 185.428 183.35C188.302 183.771 191.189 184.104 194.089 184.349V161.123H194.346L194.104 161.129ZM113.861 48.2633V85.524H194.104V48.2633H113.861ZM113.861 86.615V122.05H194.104V86.6202L113.861 86.615ZM200.332 27.6967V39.5552L210.132 28.8313C206.884 28.2969 203.618 27.9187 200.332 27.6967ZM200.332 86.6202V122.05H278.376V86.6202H200.332ZM278.102 163.938L278.376 123.146H200.332V184.761C205.359 184.969 210.394 184.909 215.415 184.579H215.502C217.9 184.425 220.287 184.207 222.663 183.923H222.717C235.395 182.452 247.792 179.151 259.517 174.124L278.102 163.938ZM293.433 92.4392C293.137 91.7563 292.832 91.0733 292.521 90.3903C291.94 89.1097 291.329 87.8649 290.696 86.6227H284.607V122.05H300C299.987 112.015 297.438 101.77 293.433 92.4392ZM284.607 123.146V158.234C288.942 154.093 292.608 149.352 295.244 143.933C298.417 137.404 299.869 130.34 299.99 123.143L284.607 123.146ZM284.607 76.2959V85.5163H290.126C288.453 82.3467 286.611 79.2688 284.607 76.2959ZM231.679 34.6504C231.273 34.4942 230.864 34.338 230.456 34.1894C226.148 32.6025 221.746 31.2835 217.275 30.24L202.275 46.6472L201.982 46.9622L202.175 47.1697H255.561C248.125 42.0693 240.108 37.8668 231.679 34.6504ZM257.128 48.2633H201.427L200.332 49.2596V85.524H209.929H278.376V67.954C272.187 60.493 265.044 53.873 257.128 48.2633Z" fill="#4285F4"/>
<path opacity="0.1" d="M45.7088 67.0605V85.5244H19.7173C19.7173 85.4168 19.7327 85.3067 19.743 85.1991C19.7661 84.9046 19.7892 84.6126 19.8149 84.3181C19.8406 83.9748 19.874 83.6316 19.9074 83.2936C19.9408 82.9555 19.9742 82.5457 20.0153 82.1743C20.0564 81.8029 20.0898 81.4264 20.131 81.0551C20.1721 80.6837 20.2132 80.3123 20.2594 79.9435C20.3057 79.5747 20.3468 79.2007 20.3982 78.8319C20.4367 78.5271 20.4752 78.2198 20.5189 77.9124C20.578 77.4796 20.6397 77.0467 20.7039 76.6165C20.7039 76.5499 20.7245 76.4858 20.7347 76.4218C21.2043 73.2722 21.8424 70.1499 22.6463 67.0682L45.7088 67.0605Z" fill="#4285F4"/>
<path opacity="0.1" d="M19.6348 86.6206H45.7085V122.05H21.5412C21.4796 122.416 21.4179 122.78 21.3485 123.146H45.7085V151.714C45.6674 151.714 45.6263 151.683 45.5878 151.668C44.9026 151.396 44.2175 151.109 43.5323 150.805C43.3859 150.738 43.242 150.669 43.0929 150.605C42.4078 150.282 41.7226 149.941 41.0375 149.581C40.7985 149.455 40.5596 149.324 40.3258 149.191C36.522 147.075 33.0649 144.393 30.074 141.236C29.9841 141.152 29.9019 141.059 29.8171 140.98C29.4009 140.529 28.9924 140.073 28.5967 139.607C28.4476 139.436 28.3038 139.261 28.1573 139.095C27.6897 138.526 27.2375 137.937 26.8007 137.346C26.7339 137.256 26.6722 137.169 26.608 137.089C24.8187 134.621 23.3349 131.947 22.1887 129.124C22.1527 129.04 22.1193 128.947 22.0859 128.868C21.7314 127.972 21.4102 127.062 21.1327 126.135C21.0145 125.748 20.8989 125.367 20.8013 124.965C20.7653 124.849 20.737 124.732 20.7062 124.616C19.2622 118.943 19.0952 113.047 19.0952 107.18C19.0952 106.497 19.0952 105.814 19.0952 105.131C19.1158 102.735 19.144 100.342 19.18 97.9514C19.1937 97.3368 19.2066 96.7195 19.2185 96.0997C19.2545 94.5305 19.3059 92.9579 19.3727 91.3819C19.3881 90.9465 19.4087 90.5085 19.4318 90.0757C19.4421 89.8247 19.4549 89.5737 19.4703 89.3227C19.5166 88.416 19.5714 87.5153 19.6348 86.6206Z" fill="#4285F4"/>
<path opacity="0.1" d="M71.5408 53.6013V85.5244H51.9341V53.6013H54.7295V42.793H66.2043V53.6013H71.5408Z" fill="#4285F4"/>
<path opacity="0.1" d="M71.5382 86.6182H51.9341V122.048H71.5382V86.6182Z" fill="#4285F4"/>
<path opacity="0.1" d="M51.937 123.146H71.5411V152.6C69.2287 153.264 66.8718 153.763 64.4883 154.093C64.293 154.121 64.1003 154.144 63.905 154.165C63.6173 154.198 63.3321 154.229 63.0469 154.255L62.1861 154.324H62.0988L61.7185 154.344H61.5875C61.4333 154.344 61.2817 154.362 61.1276 154.365H61.1147C60.8938 154.365 60.6754 154.38 60.4544 154.385H60.1718C59.9534 154.385 59.735 154.385 59.5115 154.385H59.0284H58.6353C58.4683 154.385 58.3039 154.385 58.1369 154.365C57.8731 154.354 57.6059 154.339 57.3352 154.319L56.8393 154.283C56.6338 154.267 56.4282 154.247 56.2253 154.226C55.7936 154.189 55.3654 154.14 54.9406 154.08L54.4267 154.009L54.1698 153.973C53.7407 153.909 53.3142 153.837 52.8851 153.755C52.5665 153.699 52.253 153.635 51.937 153.568V123.146Z" fill="#4285F4"/>
<path opacity="0.1" d="M194.101 49.8311H177.935V85.5217H194.101V49.8311Z" fill="#4285F4"/>
<path opacity="0.1" d="M194.104 86.6182V122.05H113.861V106.767H156.602V115.783H177.935V86.6182H194.104Z" fill="#4285F4"/>
<path opacity="0.1" d="M194.359 161.136C194.274 161.136 194.189 161.136 194.102 161.121V184.364C191.205 184.127 188.319 183.795 185.443 183.368C172.489 181.485 159.86 177.822 147.915 172.483C144.467 170.932 141.089 169.243 137.782 167.414C132.258 164.362 126.965 160.912 121.947 157.09C120.682 156.127 119.437 155.142 118.211 154.137C117.36 153.435 116.518 152.718 115.659 152.024C115.068 151.545 114.47 151.071 113.861 150.62V123.146H177.725C177.678 122.982 177.637 122.821 177.591 122.657C177.64 122.821 177.686 122.982 177.727 123.146H194.104V161.119C194.189 161.121 194.274 161.129 194.359 161.136Z" fill="#4285F4"/>
<path opacity="0.1" d="M236.267 47.1728H225.733V43.9098H230.453V34.1899C230.862 34.3402 231.27 34.4939 231.676 34.651V43.9098H236.265L236.267 47.1728Z" fill="#4285F4"/>
<path opacity="0.1" d="M261.65 85.5243H209.929C209.934 85.5255 209.939 85.5255 209.944 85.5243H209.921H200.333V49.8337H203.051V76.2143H215.471V60.5908H225.736V48.2637H236.27V60.5985H246.529V76.2219H261.653L261.65 85.5243Z" fill="#4285F4"/>
<path opacity="0.1" d="M200.333 86.6206V122.05H261.653V86.6206H200.333ZM278.289 163.752L278.376 135.706H261.653V123.156H200.333V184.761C205.36 184.97 210.394 184.909 215.415 184.58H215.502C217.9 184.426 220.287 184.207 222.663 183.924H222.717C235.395 182.453 247.792 179.152 259.517 174.125" fill="#4285F4"/>
<path opacity="0.1" d="M285.686 123.146H299.99C299.866 130.34 298.417 137.407 295.244 143.933C292.608 149.355 288.941 154.096 284.607 158.237V135.699H285.686V123.146Z" fill="#4285F4"/>
<path opacity="0.1" d="M300 122.05H285.686V92.4395H293.433C297.438 101.77 299.987 112.015 300 122.05Z" fill="#4285F4"/>
<path opacity="0.1" d="M194.104 59.7534H185.443V70.9434H194.104V59.7534Z" fill="#4285F4"/>
<path opacity="0.1" d="M194.104 82.9478H185.443V85.5244H194.104V82.9478Z" fill="#4285F4"/>
<path opacity="0.1" d="M194.104 86.6182H185.443V94.1354H194.104V86.6182Z" fill="#4285F4"/>
<path opacity="0.1" d="M194.104 106.142H185.443V117.332H194.104V106.142Z" fill="#4285F4"/>
<path opacity="0.1" d="M194.104 129.336H185.443V140.526H194.104V129.336Z" fill="#4285F4"/>
<path opacity="0.1" d="M194.104 161.119C194.189 161.119 194.274 161.119 194.361 161.136C194.276 161.136 194.192 161.136 194.104 161.121V163.721H185.443V152.531H194.104V161.119Z" fill="#4285F4"/>
<path opacity="0.1" d="M194.104 175.723V184.364C191.206 184.127 188.319 183.795 185.443 183.368V175.723H194.104Z" fill="#4285F4"/>
<path opacity="0.1" d="M150.98 121.228H113.861V122.05H150.98V121.228Z" fill="#4285F4"/>
<path opacity="0.1" d="M150.98 123.144H113.861V126.294H150.98V123.144Z" fill="#4285F4"/>
<path opacity="0.1" d="M150.98 136.621H113.861V141.687H150.98V136.621Z" fill="#4285F4"/>
<path opacity="0.1" d="M150.98 152.014V157.08H121.946C120.682 156.12 119.437 155.135 118.211 154.124C117.358 153.425 116.515 152.708 115.659 152.014H150.98Z" fill="#4285F4"/>
<path opacity="0.1" d="M150.98 167.404V172.483H147.915C144.467 170.932 141.089 169.243 137.782 167.414L150.98 167.404Z" fill="#4285F4"/>
<path opacity="0.1" d="M222.721 90.0522H215.414V97.3364H222.721V90.0522Z" fill="#4285F4"/>
<path opacity="0.1" d="M64.506 56.1138H57.1987V63.3979H64.506V56.1138Z" fill="#4285F4"/>
<path opacity="0.1" d="M64.506 73.0332H57.1987V80.3173H64.506V73.0332Z" fill="#4285F4"/>
<path opacity="0.1" d="M64.506 89.9526H57.1987V97.2367H64.506V89.9526Z" fill="#4285F4"/>
<path opacity="0.1" d="M64.506 106.87H57.1987V114.154H64.506V106.87Z" fill="#4285F4"/>
<path opacity="0.1" d="M64.506 123.789H57.1987V131.073H64.506V123.789Z" fill="#4285F4"/>
<path opacity="0.1" d="M64.506 140.708H57.1987V147.993H64.506V140.708Z" fill="#4285F4"/>
<path opacity="0.1" d="M250.617 90.0522H243.31V97.3364H250.617V90.0522Z" fill="#4285F4"/>
<path opacity="0.1" d="M222.721 108.02H215.414V115.304H222.721V108.02Z" fill="#4285F4"/>
<path opacity="0.1" d="M250.617 108.02H243.31V115.304H250.617V108.02Z" fill="#4285F4"/>
<path opacity="0.1" d="M222.721 125.984H215.414V133.268H222.721V125.984Z" fill="#4285F4"/>
<path opacity="0.1" d="M250.617 125.984H243.31V133.268H250.617V125.984Z" fill="#4285F4"/>
<path opacity="0.1" d="M222.721 143.951H215.414V151.235H222.721V143.951Z" fill="#4285F4"/>
<path opacity="0.1" d="M250.617 143.951H243.31V151.235H250.617V143.951Z" fill="#4285F4"/>
<path opacity="0.1" d="M222.721 161.918H215.414V169.202H222.721V161.918Z" fill="#4285F4"/>
<path opacity="0.1" d="M250.617 161.918H243.31V169.202H250.617V161.918Z" fill="#4285F4"/>
<path opacity="0.1" d="M215.414 184.58V179.882H222.719V183.911L215.414 184.58Z" fill="#4285F4"/>
<path opacity="0.1" d="M20.7041 76.4141V80.5812H45.709V76.4141H20.7041ZM23.1938 80.3199H21.1383V76.6779H23.1938V80.3199ZM25.6835 80.3199H23.628V76.6779H25.6835V80.3199ZM28.1681 80.3199H26.1126V76.6779H28.1681V80.3199ZM30.6578 80.3199H28.6023V76.6779H30.6578V80.3199ZM33.1449 80.3199H31.0894V76.6779H33.1449V80.3199ZM35.6346 80.3199H33.5791V76.6779H35.6346V80.3199ZM38.1243 80.3199H36.0688V76.6779H38.1243V80.3199ZM40.6114 80.3199H38.556V76.6779H40.6114V80.3199ZM43.0986 80.3199H41.0431V76.6779H43.0986V80.3199ZM45.5883 80.3199H43.5328V76.6779H45.5883V80.3199Z" fill="#4285F4"/>
<path opacity="0.1" d="M20.7041 88.5439V92.711H45.709V88.5439H20.7041ZM23.1938 92.4498H21.1383V88.8077H23.1938V92.4498ZM25.6835 92.4498H23.628V88.8077H25.6835V92.4498ZM28.1681 92.4498H26.1126V88.8077H28.1681V92.4498ZM30.6578 92.4498H28.6023V88.8077H30.6578V92.4498ZM33.1449 92.4498H31.0894V88.8077H33.1449V92.4498ZM35.6346 92.4498H33.5791V88.8077H35.6346V92.4498ZM38.1243 92.4498H36.0688V88.8077H38.1243V92.4498ZM40.6114 92.4498H38.556V88.8077H40.6114V92.4498ZM43.0986 92.4498H41.0431V88.8077H43.0986V92.4498ZM45.5883 92.4498H43.5328V88.8077H45.5883V92.4498Z" fill="#4285F4"/>
<path opacity="0.1" d="M20.7041 100.676V104.841H45.709V100.676H20.7041ZM23.1938 104.577H21.1383V100.935H23.1938V104.577ZM25.6835 104.577H23.628V100.935H25.6835V104.577ZM28.1681 104.577H26.1126V100.935H28.1681V104.577ZM30.6578 104.577H28.6023V100.935H30.6578V104.577ZM33.1449 104.577H31.0894V100.935H33.1449V104.577ZM35.6346 104.577H33.5791V100.935H35.6346V104.577ZM38.1243 104.577H36.0688V100.935H38.1243V104.577ZM40.6114 104.577H38.556V100.935H40.6114V104.577ZM43.0986 104.577H41.0431V100.935H43.0986V104.577ZM45.5883 104.577H43.5328V100.935H45.5883V104.577Z" fill="#4285F4"/>
<path opacity="0.1" d="M20.7041 112.807V116.971H45.709V112.807H20.7041ZM23.1938 116.71H21.1383V113.063H23.1938V116.71ZM25.6835 116.71H23.628V113.063H25.6835V116.71ZM28.1681 116.71H26.1126V113.063H28.1681V116.71ZM30.6578 116.71H28.6023V113.063H30.6578V116.71ZM33.1449 116.71H31.0894V113.063H33.1449V116.71ZM35.6346 116.71H33.5791V113.063H35.6346V116.71ZM38.1243 116.71H36.0688V113.063H38.1243V116.71ZM40.6114 116.71H38.556V113.063H40.6114V116.71ZM43.0986 116.71H41.0431V113.063H43.0986V116.71ZM45.5883 116.71H43.5328V113.063H45.5883V116.71Z" fill="#4285F4"/>
<path opacity="0.1" d="M20.8247 124.931C20.9223 125.326 21.038 125.715 21.1562 126.102V125.195H23.2116V128.834H22.1094C22.1402 128.922 22.1736 129.011 22.2096 129.091H45.7191V124.931H20.8247ZM25.7065 128.834H23.651V125.195H25.7065V128.834ZM28.191 128.834H26.1356V125.195H28.191V128.834ZM30.6807 128.834H28.6253V125.195H30.6807V128.834ZM33.1679 128.834H31.1124V125.195H33.1679V128.834ZM35.6576 128.834H33.6021V125.195H35.6576V128.834ZM38.1473 128.834H36.0918V125.195H38.1473V128.834ZM40.6344 128.834H38.5789V125.195H40.6344V128.834ZM43.1215 128.834H41.066V125.195H43.1215V128.834ZM45.6112 128.834H43.5557V125.195H45.6112V128.834Z" fill="#4285F4"/>
<path opacity="0.1" d="M26.6157 137.061C26.6825 137.143 26.7442 137.235 26.8084 137.317H28.1676V139.066L28.607 139.579V137.307H30.6624V140.98H29.8171C29.8994 141.064 29.979 141.154 30.0741 141.236H45.7034V137.061H26.6157ZM33.1573 140.98H31.1018V137.322H33.1573V140.98ZM35.647 140.98H33.5915V137.322H35.647V140.98ZM38.1367 140.98H36.0812V137.322H38.1367V140.98ZM40.6238 140.98H38.5683V137.322H40.6238V140.98ZM43.1109 140.98H41.0555V137.322H43.1109V140.98ZM45.6006 140.98H43.5452V137.322H45.6006V140.98Z" fill="#4285F4"/>
<path opacity="0.1" d="M40.3335 149.191C40.5699 149.324 40.8088 149.447 41.0478 149.578V149.45H43.1033V150.605C43.2523 150.669 43.3936 150.738 43.5401 150.804V149.45H45.5955V151.668C45.6346 151.685 45.675 151.7 45.7163 151.711V149.191H40.3335Z" fill="#4285F4"/>
<path opacity="0.1" d="M194.102 161.119H194.359H194.102ZM177.589 122.657C177.637 122.821 177.681 122.985 177.725 123.146C177.686 122.985 177.64 122.821 177.589 122.657ZM54.7402 47.1726V48.2637H66.2175V47.1675L54.7402 47.1726ZM194.104 161.119H194.361H194.104ZM177.589 122.657C177.637 122.821 177.681 122.985 177.725 123.146C177.686 122.985 177.64 122.821 177.589 122.657ZM194.102 161.119H194.359H194.102ZM177.589 122.657C177.637 122.821 177.681 122.985 177.725 123.146C177.686 122.985 177.64 122.821 177.589 122.657Z" fill="#4285F4"/>
<path opacity="0.1" d="M225.957 221C239.784 221 250.992 219.205 250.992 216.992C250.992 214.778 239.784 212.983 225.957 212.983C212.13 212.983 200.921 214.778 200.921 216.992C200.921 219.205 212.13 221 225.957 221Z" fill="#4285F4"/>
<path opacity="0.1" d="M113.044 216.992C126.87 216.992 138.079 215.197 138.079 212.983C138.079 210.77 126.87 208.975 113.044 208.975C99.2167 208.975 88.0078 210.77 88.0078 212.983C88.0078 215.197 99.2167 216.992 113.044 216.992Z" fill="#4285F4"/>
<path d="M141.867 106.995C141.86 106.969 141.847 106.946 141.828 106.928C141.445 106.552 136.563 99.6696 136.563 99.6696C136.563 99.6696 136.307 98.9013 135.89 97.9024C136.024 97.7302 136.124 97.5348 136.186 97.3261C136.208 97.2377 136.225 97.1479 136.235 97.0572C136.235 97.029 136.255 97.006 136.263 96.9778C136.352 96.6304 136.343 96.2652 136.237 95.9226C136.209 96.0105 136.173 96.0961 136.132 96.1787C136.035 95.8803 135.906 95.5935 135.746 95.3233C135.099 94.2117 134.174 93.2743 133.493 92.1909C132.462 90.5076 132.052 88.5185 132.334 86.5664C132.334 86.6663 132.334 86.7688 132.334 86.8687C132.36 86.4815 132.412 86.0965 132.488 85.7161C132.596 85.2832 132.739 84.86 132.918 84.4509C133.529 83.055 134.518 81.8384 135.119 80.4374C135.321 79.9649 135.474 79.4732 135.577 78.9699C135.789 78.1292 135.866 77.2605 135.805 76.3958C135.805 76.6007 135.772 76.8056 135.741 77.008C135.676 74.9291 134.834 72.9495 133.38 71.4578C131.281 69.355 128.267 68.538 125.384 68.1077C124.173 67.9668 123.016 67.5266 122.018 66.8271C120.911 66.1125 119.48 65.9409 118.185 66.0972C116.697 66.2576 115.314 66.9392 114.282 68.0207C112.913 69.5215 112.319 71.6473 110.721 72.9126C109.752 73.6809 108.524 74.0395 107.396 74.562C106.268 75.0845 105.202 75.8426 104.84 76.9644C104.84 76.9644 104.84 76.9491 104.84 76.9414V77.0054L104.824 77.0464C104.449 78.3731 105.174 79.7229 105.551 81.047C105.944 82.4173 105.97 83.8644 105.991 85.2807C106.019 87.0121 106.045 88.746 106.016 90.48C106.004 91.1613 105.98 91.8502 105.929 92.529C105.321 92.7122 104.73 92.9488 104.164 93.2359C103.588 93.6098 101.435 95.9277 101.435 95.9277L97.2241 111.966L97.2806 112.03L97.2241 112.248L97.4374 112.199C98.0335 112.839 99.814 114.663 101.736 115.8L101.916 118.945C101.916 118.945 102.132 122.101 105.043 123.404C105.109 124.498 105.318 128.939 104.354 130.699C103.687 131.984 103.373 133.423 103.445 134.868C103.445 134.868 103.781 137.537 103.398 138.941C103.175 139.879 103.158 140.854 103.349 141.799C103.349 141.799 103.349 142.109 103.349 142.642C103.349 145.482 103.383 154.585 103.349 155.614C103.301 156.831 103.349 174.824 103.349 174.824C103.349 174.824 103.111 183.816 102.345 186.252C101.579 188.687 101.772 196.753 101.772 196.753C101.772 196.753 101.291 206.36 102.99 208.255C102.99 208.34 102.974 208.427 102.972 208.511C102.972 208.55 102.972 208.593 102.972 208.632C102.951 209.362 103.093 210.138 103.722 210.376C105.007 210.868 106.705 212.343 107.026 212.765C107.347 213.188 109.215 214.241 111.651 213.959C113.177 213.788 114.712 213.718 116.248 213.749C116.248 213.749 117.209 213.575 116.898 212.384C116.697 211.641 115.947 210.499 115.413 209.748C115.51 209.774 115.605 209.794 115.695 209.812L115.788 209.83H115.86C115.899 209.833 115.938 209.833 115.978 209.83H116.029C116.077 209.834 116.125 209.834 116.173 209.83C116.818 209.769 119.223 210.886 119.652 211.623C120.081 212.361 121.594 212.922 122.735 213.063C123.414 213.145 125.125 213.006 126.561 212.822C127.284 212.747 128.001 212.617 128.704 212.432C129.043 212.304 129.115 211.895 129.017 211.434C128.902 210.848 128.588 210.32 128.128 209.938C127.712 209.643 127.162 208.867 126.756 208.232L126.648 208.06C127.365 207.379 128.66 205.151 129.053 204.69C129.531 204.129 128.282 183.616 128.282 183.616V173.333L130.197 163.6L131.535 158.45L132.684 150.674C132.684 150.674 134.693 141.592 134.074 140.7C134.074 140.682 133.56 131.331 133.02 129.085C132.786 128.084 132.846 125.83 132.984 123.638C133.129 123.494 133.23 123.312 133.276 123.114C133.321 122.915 133.309 122.708 133.241 122.516C133.203 122.384 133.153 122.257 133.092 122.134C133.092 122.096 133.092 122.055 133.092 122.016C134.202 121.507 135.362 121.114 136.553 120.843C138.467 120.469 137.989 119.486 137.989 119.486C137.989 119.486 138.421 118.643 138.706 118.128C138.991 117.614 138.755 113.07 138.706 112.696C138.688 112.545 138.57 111.71 138.434 110.762C139.048 110.327 139.847 109.786 140.718 109.274C142.375 108.296 142.003 107.264 141.867 106.995ZM116.892 171.929C116.892 171.929 115.456 175.582 116.032 176.517C116.607 177.451 115.937 180.922 115.937 180.922L115.456 186.072C115.456 186.072 114.118 195.626 114.595 197.872C114.971 199.634 115.109 204.897 115.153 207.092C115.12 207.105 115.088 207.121 115.058 207.138L114.994 207.172C115.215 206.309 115.122 204.562 114.025 201.048L113.933 186.533C113.933 186.533 113.763 169.768 115.091 167.893C116.42 166.018 116.89 162.834 116.89 162.834C116.89 162.834 116.602 167.427 116.415 168.643C116.227 169.86 116.892 171.929 116.892 171.929ZM114.218 208.007C114.205 208.037 114.19 208.068 114.179 208.096L114.107 208.004C114.144 208.008 114.181 208.009 114.218 208.007Z" fill="url(#paint0_linear)"/>
<path d="M128.866 213.759C128.123 214.044 124.097 214.528 122.972 214.392C121.846 214.256 120.356 213.688 119.932 212.945C119.508 212.202 117.131 211.08 116.494 211.152C116.233 211.16 115.972 211.123 115.723 211.044C115.284 210.912 114.854 210.747 114.439 210.553C114.381 210.23 114.39 209.898 114.467 209.579C114.482 209.515 114.501 209.452 114.524 209.39C114.674 208.97 114.984 208.625 115.387 208.432L115.479 208.388C115.657 208.312 115.844 208.255 116.034 208.219C118.054 207.833 126.386 208.609 126.386 208.609C126.386 208.609 126.62 209.026 126.941 209.544C127.342 210.184 127.887 210.965 128.298 211.26C128.753 211.648 129.062 212.179 129.174 212.766C129.272 213.219 129.2 213.634 128.866 213.759Z" fill="white"/>
<path opacity="0.1" d="M128.866 213.759C128.123 214.044 124.1 214.528 122.974 214.392C121.849 214.256 120.359 213.685 119.932 212.945C119.506 212.205 117.134 211.08 116.497 211.152C115.86 211.224 114.441 210.553 114.441 210.553C114.441 210.553 114.221 209.528 114.863 208.829L116.148 209.738C116.148 209.738 119.585 210.801 120.223 211.787C120.86 212.773 122.021 213.324 123.699 213.424C124.953 213.506 127.833 213.019 129.182 212.776C129.272 213.219 129.202 213.634 128.866 213.759Z" fill="black"/>
<path d="M116.566 215.066C115.051 215.036 113.535 215.107 112.029 215.278C109.616 215.56 107.774 214.51 107.453 214.077C107.131 213.644 105.469 212.182 104.192 211.669C103.568 211.429 103.421 210.645 103.45 209.912C103.45 209.874 103.45 209.83 103.45 209.792C103.473 209.328 103.542 208.867 103.655 208.417L113.652 208.204L114.518 209.375L114.652 209.554L115.179 210.268C115.179 210.268 115.418 210.581 115.731 211.037C116.26 211.805 117 212.94 117.198 213.69C117.514 214.891 116.566 215.066 116.566 215.066Z" fill="white"/>
<path opacity="0.1" d="M116.566 215.066C115.051 215.036 113.535 215.107 112.029 215.278C109.619 215.56 107.774 214.51 107.455 214.077C107.137 213.644 105.469 212.169 104.192 211.674C103.568 211.434 103.421 210.65 103.45 209.917C104.164 210.084 105.664 210.509 106.253 211.249C107.024 212.238 108.403 213.9 110.364 214.005C111.946 214.09 115.8 213.808 117.214 213.695C117.517 214.891 116.566 215.066 116.566 215.066Z" fill="black"/>
<path opacity="0.1" d="M115.377 208.422C115.261 209.277 114.904 209.507 114.647 209.559C114.584 209.571 114.52 209.571 114.457 209.559C114.423 209.556 114.39 209.551 114.357 209.543C114.357 209.543 105.379 211.521 103.565 209.92C103.519 209.879 103.476 209.834 103.437 209.787C103.461 209.323 103.53 208.862 103.643 208.411L113.64 208.199L114.506 209.369C114.656 208.949 114.966 208.605 115.369 208.411L115.377 208.422Z" fill="black"/>
<path opacity="0.1" d="M126.939 209.533C126.738 209.754 126.571 209.879 126.466 209.836C125.993 209.646 122.119 208.988 120.888 209.554C119.657 210.12 115.492 209.646 115.492 209.646C115.492 209.646 115.492 209.154 115.469 208.365C115.647 208.289 115.834 208.232 116.024 208.196C118.044 207.81 126.376 208.586 126.376 208.586C126.376 208.586 126.62 209.016 126.939 209.533Z" fill="black"/>
<path d="M132.802 151.599L131.666 159.421L130.346 164.605L128.455 174.404V184.777C128.455 184.777 129.683 205.415 129.21 205.979C128.737 206.542 126.941 209.752 126.468 209.565C125.996 209.378 122.121 208.717 120.89 209.28C119.66 209.844 115.495 209.375 115.495 209.375C115.495 209.375 115.4 201.366 114.927 199.105C114.454 196.843 115.777 187.231 115.777 187.231L116.25 182.049C116.25 182.049 116.913 178.561 116.345 177.618C115.777 176.676 117.196 173.008 117.196 173.008C117.196 173.008 116.535 170.931 116.725 169.707C116.916 168.483 117.196 163.865 117.196 163.865C117.196 163.865 116.725 167.071 115.413 168.954C114.1 170.836 114.267 187.707 114.267 187.707L114.359 202.306C116.725 210.036 114.359 209.28 114.359 209.28C114.359 209.28 105.382 211.26 103.568 209.657C101.754 208.053 102.273 197.962 102.273 197.962C102.273 197.962 102.085 189.859 102.841 187.41C103.596 184.961 103.835 175.913 103.835 175.913C103.835 175.913 103.786 157.818 103.835 156.596C103.871 155.571 103.835 146.4 103.835 143.534C103.835 143.001 103.835 142.686 103.835 142.686L104.919 140.002L117.766 138.398H123.912C123.912 138.398 133.162 140.565 134.117 141.5C134.138 141.516 134.155 141.535 134.169 141.556C134.788 142.461 132.802 151.599 132.802 151.599Z" fill="#4285F4"/>
<path opacity="0.1" d="M117.204 192.686C117.204 192.686 120.03 199.47 121.363 199.941C122.697 200.413 117.204 192.686 117.204 192.686Z" fill="black"/>
<path opacity="0.1" d="M118.25 202.674C118.25 202.674 127.792 203.146 127.697 204.183C127.602 205.22 118.25 202.674 118.25 202.674Z" fill="black"/>
<path opacity="0.1" d="M105.482 199.962C105.86 200.318 112.761 200.987 112.193 201.637C111.625 202.288 106.05 203.553 106.05 203.553L105.482 199.962Z" fill="black"/>
<path opacity="0.1" d="M104.349 188.257C104.349 188.539 105.767 197.304 106.148 197.68C106.528 198.057 109.645 198.433 109.645 198.433L104.349 188.257Z" fill="black"/>
<path d="M114.639 68.459C113.285 69.9676 112.699 72.1062 111.122 73.3817C110.164 74.1501 108.951 74.5163 107.836 75.0388C106.721 75.5613 105.616 76.3578 105.284 77.5411C104.914 78.8729 105.629 80.233 106.004 81.5648C106.392 82.9427 106.415 84.3821 106.438 85.8241C106.464 87.5683 106.492 89.3125 106.461 91.0567C106.415 93.7741 106.189 96.6171 104.742 98.9196C109.966 100.577 115.521 100.802 120.999 101.015C122.051 101.09 123.109 101.063 124.156 100.935C125.064 100.755 125.962 100.528 126.846 100.257C128.595 99.7953 130.397 99.5654 132.206 99.5727C132.995 99.5727 133.799 99.6214 134.56 99.4165C135.32 99.2116 136.052 98.6866 136.258 97.9284C136.44 97.2471 136.173 96.5223 135.824 95.9102C135.186 94.7935 134.282 93.8612 133.599 92.7599C132.901 91.5966 132.487 90.2862 132.39 88.9343C132.293 87.5824 132.516 86.2267 133.041 84.9763C133.647 83.5702 134.624 82.346 135.22 80.9373C135.83 79.4248 135.993 77.7695 135.688 76.1678C135.382 74.5661 134.623 73.0853 133.498 71.9013C131.425 69.7857 128.45 68.9661 125.603 68.5307C124.404 68.3896 123.261 67.9491 122.278 67.2501C121.186 66.533 119.77 66.3588 118.491 66.5176C117.015 66.6825 115.648 67.3717 114.639 68.459Z" fill="#3F3D56"/>
<g opacity="0.1">
<path opacity="0.1" d="M133.121 83.4983C132.597 84.7325 132.372 86.0724 132.465 87.4093C132.523 86.4533 132.745 85.5142 133.121 84.6329C133.724 83.2268 134.701 82.0026 135.297 80.5939C135.784 79.4176 135.989 78.1442 135.895 76.875C135.842 77.7646 135.64 78.639 135.297 79.4618C134.701 80.8705 133.724 82.0922 133.121 83.4983Z" fill="black"/>
<path opacity="0.1" d="M106.515 85.4757C106.53 86.4797 106.546 87.4863 106.548 88.4902C106.548 87.1072 106.535 85.7267 106.515 84.3462C106.494 82.9145 106.469 81.4648 106.081 80.0843C105.824 79.2084 105.443 78.3197 105.31 77.436C105.081 78.691 105.731 79.964 106.081 81.2164C106.469 82.5841 106.494 84.044 106.515 85.4757Z" fill="black"/>
<path opacity="0.1" d="M134.647 97.9511C133.876 98.1586 133.084 98.1125 132.296 98.1074C130.488 98.0959 128.687 98.3215 126.939 98.7784C126.054 99.0491 125.156 99.2748 124.248 99.4546C123.2 99.5843 122.142 99.6118 121.088 99.5365C115.795 99.3291 110.428 99.1062 105.359 97.5977C105.208 97.9326 105.036 98.2577 104.845 98.5709C110.068 100.225 115.623 100.453 121.098 100.666C122.152 100.741 123.21 100.714 124.259 100.584C125.163 100.406 126.058 100.181 126.939 99.9105C128.683 99.4519 130.481 99.2237 132.285 99.2317C133.074 99.2317 133.876 99.2804 134.636 99.0729C135.397 98.8655 136.129 98.3455 136.335 97.5874C136.421 97.2363 136.412 96.8685 136.309 96.522C136.08 97.2391 135.374 97.7385 134.647 97.9511Z" fill="black"/>
</g>
<path d="M127.036 94.9164C126.846 95.3416 126.045 99.0144 125.855 99.3909C125.664 99.7674 124.626 105.794 124.531 106.132C124.436 106.47 117.689 104.718 117.689 104.718L113.627 101.325L109.452 97.1831C109.452 97.1831 109.329 93.4463 112.404 92.2476C112.613 92.1658 112.828 92.099 113.046 92.0479C116.777 91.154 116.402 79.8462 116.402 79.8462L124.059 83.1425C124.059 83.1425 122.64 89.7402 122.689 91.0131C122.702 91.4408 123.039 91.7072 123.478 91.8686C124.157 92.0612 124.864 92.1374 125.569 92.094C125.569 92.094 127.227 94.4938 127.036 94.9164Z" fill="#FBBEBE"/>
<path d="M140.744 107.308L141.831 107.592C141.831 107.592 142.635 108.811 140.744 109.946C139.543 110.673 138.391 111.476 137.293 112.351L131.705 114.046L130.628 110.678L135.829 106.744L140.744 107.308Z" fill="#4285F4"/>
<path opacity="0.1" d="M140.744 107.308L141.831 107.592C141.831 107.592 142.635 108.811 140.744 109.946C139.543 110.673 138.391 111.476 137.293 112.351L131.705 114.046L130.628 110.678L135.829 106.744L140.744 107.308Z" fill="black"/>
<path d="M99.9603 110.56L97.7866 112.681C97.7866 112.681 101.707 117.204 104.724 117.486C107.74 117.768 109.685 114.046 109.685 114.046L107.075 109.948L99.9603 110.56Z" fill="#4285F4"/>
<path opacity="0.1" d="M99.9603 110.56L97.7866 112.681C97.7866 112.681 101.707 117.204 104.724 117.486C107.74 117.768 109.685 114.046 109.685 114.046L107.075 109.948L99.9603 110.56Z" fill="black"/>
<path opacity="0.1" d="M120.608 87.235C124.784 87.235 128.17 83.8603 128.17 79.6973C128.17 75.5344 124.784 72.1597 120.608 72.1597C116.432 72.1597 113.046 75.5344 113.046 79.6973C113.046 83.8603 116.432 87.235 120.608 87.235Z" fill="black"/>
<path d="M120.608 86.6691C124.784 86.6691 128.17 83.2944 128.17 79.1314C128.17 74.9685 124.784 71.5938 120.608 71.5938C116.432 71.5938 113.046 74.9685 113.046 79.1314C113.046 83.2944 116.432 86.6691 120.608 86.6691Z" fill="#FBBEBE"/>
<path opacity="0.1" d="M134.174 142.412C132.452 142.608 130.756 142.987 129.115 143.541C126.289 144.478 104.141 143.556 103.833 143.541C103.833 143.008 103.833 142.693 103.833 142.693L104.917 140.009L117.764 138.406H123.909C123.909 138.406 133.159 140.573 134.115 141.507C134.153 142.071 134.174 142.412 134.174 142.412Z" fill="black"/>
<path opacity="0.1" d="M127.036 94.9165C126.846 95.3417 126.045 99.0145 125.855 99.391C125.664 99.7675 124.626 105.794 124.531 106.132C124.436 106.47 117.689 104.718 117.689 104.718L113.627 101.325L109.452 97.1832C109.452 97.1832 109.329 93.4464 112.404 92.2477L120.04 100.999L123.478 91.8687C124.157 92.0613 124.864 92.1375 125.569 92.094C125.569 92.094 127.227 94.4939 127.036 94.9165Z" fill="black"/>
<path d="M120.04 101.281L112.224 92.3166C111.767 92.0255 111.244 91.8523 110.702 91.8125C110.161 91.7727 109.618 91.8676 109.123 92.0887C107.373 92.8443 105.2 93.4564 104.632 93.8329C104.064 94.2094 101.937 96.5401 101.937 96.5401L108.273 113.063L105.482 123.945C105.482 123.945 105.909 129.506 104.822 131.532C104.16 132.827 103.85 134.272 103.923 135.724C103.923 135.724 104.254 138.411 103.876 139.822C103.656 140.766 103.639 141.745 103.828 142.696C103.828 142.696 126.281 143.638 129.115 142.696C130.756 142.14 132.452 141.761 134.174 141.566C134.174 141.566 133.66 132.141 133.146 129.88C132.633 127.618 133.573 118.997 133.573 118.997L132.959 109.761L136.643 100.285C136.643 100.285 134.647 94.2094 132.566 93.5973C132.566 93.5973 128.786 92.7008 127.982 92.2782C127.178 91.8556 124.814 91.4766 124.814 91.4766L123.573 91.8915L120.04 101.281Z" fill="#4285F4"/>
<path opacity="0.1" d="M130.945 109.449L114.498 108.334C114.082 108.306 113.722 108.62 113.693 109.034L111.928 134.92C111.899 135.335 112.214 135.694 112.63 135.722L129.077 136.837C129.493 136.865 129.854 136.552 129.882 136.137L131.648 110.251C131.676 109.837 131.362 109.477 130.945 109.449Z" fill="black"/>
<path d="M131.511 108.887L115.064 107.772C114.648 107.744 114.288 108.058 114.259 108.472L112.494 134.358C112.465 134.773 112.78 135.132 113.196 135.16L129.643 136.275C130.059 136.303 130.42 135.99 130.448 135.575L132.214 109.689C132.242 109.275 131.927 108.915 131.511 108.887Z" fill="#3F3D56"/>
<path d="M130.969 110.916L115.327 109.856L113.719 133.421L129.361 134.481L130.969 110.916Z" fill="white"/>
<path opacity="0.1" d="M129.566 116.931L116.789 116.04L116.539 119.589L129.317 120.481L129.566 116.931Z" fill="black"/>
<path opacity="0.1" d="M129.104 131.038L127.076 130.9L126.95 132.75L128.978 132.888L129.104 131.038Z" fill="black"/>
<path opacity="0.1" d="M127.103 126.573L116.724 125.87L116.598 127.72L126.977 128.423L127.103 126.573Z" fill="black"/>
<path d="M129.033 110.035L118.225 109.303L118.031 112.147L128.839 112.879L129.033 110.035Z" fill="#3F3D56"/>
<path opacity="0.1" d="M129.033 110.035L118.225 109.303L118.031 112.147L128.839 112.879L129.033 110.035Z" fill="black"/>
<path opacity="0.1" d="M120.986 141.892C120.986 141.892 120.891 155.84 117.204 163.849C117.204 163.849 121.649 153.294 121.649 152.872C121.649 152.449 124.105 148.018 123.447 146.699C122.789 145.38 120.986 141.892 120.986 141.892Z" fill="black"/>
<path opacity="0.1" d="M121.186 77.2465C121.045 76.0119 121.348 74.7675 122.042 73.735C121.959 74.7699 122.253 75.7997 122.869 76.6367C123.485 77.4736 124.382 78.0619 125.397 78.294C125.311 78.2191 125.249 78.1197 125.22 78.0091C125.191 77.8985 125.196 77.7817 125.235 77.6742C125.762 78.2684 126.166 78.9727 126.762 79.4952C127.358 80.0177 128.252 80.3302 128.953 79.9588C129.907 79.4466 129.917 78.0968 129.67 77.0467C129.141 74.8104 128.055 72.743 126.512 71.0355C126.128 70.5194 125.628 70.0991 125.053 69.8076C124.478 69.5161 123.843 69.3613 123.198 69.3554C121.739 69.2427 120.223 69.3707 118.915 70.0238C118.179 70.4242 117.49 70.9043 116.859 71.4556L113.262 74.3805C112.916 74.629 112.62 74.94 112.389 75.2974C112.234 75.5961 112.142 75.9227 112.116 76.2578C112.024 77.2158 112.202 78.1803 112.63 79.043C113.057 79.9058 113.718 80.6327 114.537 81.1421C114.519 80.385 114.728 79.6398 115.137 79.0014C115.545 78.3629 116.135 77.8599 116.831 77.5564C116.94 77.6472 117.028 77.7603 117.09 77.888C117.152 78.0156 117.185 78.1549 117.188 78.2966L117.946 76.9494C118.059 76.7042 118.237 76.4944 118.46 76.3424C118.928 76.0862 119.511 76.3885 119.909 76.7496C120.307 77.1107 120.695 77.5615 121.23 77.6178L121.25 75.6124" fill="black"/>
<path d="M121.186 76.9645C121.044 75.7291 121.348 74.4838 122.042 73.4505C121.81 75.4995 123.36 77.6151 125.4 78.0095C125.313 77.9352 125.251 77.8363 125.222 77.7261C125.193 77.6158 125.199 77.4994 125.238 77.3923C125.765 77.9865 126.168 78.6882 126.764 79.2133C127.36 79.7383 128.254 80.0482 128.956 79.6743C129.909 79.1621 129.919 77.8123 129.673 76.7648C129.143 74.5284 128.057 72.4611 126.515 70.7536C126.036 70.172 125.433 69.7047 124.75 69.3859C124.255 69.2035 123.735 69.0981 123.208 69.0734C121.749 68.9607 120.233 69.0862 118.925 69.7393C118.19 70.1415 117.5 70.6224 116.87 71.1736L113.272 74.0985C112.926 74.3464 112.629 74.6576 112.399 75.0154C112.244 75.3141 112.152 75.6407 112.127 75.9759C112.035 76.9334 112.213 77.8975 112.64 78.7598C113.068 79.6222 113.728 80.3486 114.547 80.8576C114.53 80.1006 114.739 79.3558 115.148 78.7174C115.556 78.0791 116.146 77.576 116.841 77.2719C116.95 77.3631 117.038 77.4762 117.099 77.6038C117.161 77.7314 117.195 77.8705 117.198 78.0121L117.954 76.67C118.066 76.4244 118.244 76.2144 118.468 76.063C118.935 75.8069 119.519 76.1091 119.917 76.4702C120.315 76.8313 120.703 77.2796 121.237 77.3385L121.258 75.3305" fill="#3F3D56"/>
<path d="M124.767 124.509C124.107 124.176 113.187 125.874 113.187 125.874C113.187 125.874 111.389 125.362 107.042 124.65C102.694 123.937 102.417 119.701 102.417 119.701L101.941 111.221L103.409 109.94L109.693 114.038C109.693 114.038 109.791 116.11 109.693 116.484C109.631 116.74 109.467 117.045 109.482 117.253C109.487 117.309 109.51 117.362 109.549 117.404C109.587 117.445 109.637 117.473 109.693 117.483C110.12 117.591 115.932 118.528 115.932 118.528C115.932 118.528 129.403 117.609 132.761 122.132C133.027 122.464 133.228 122.843 133.354 123.249C134.187 126.34 125.366 124.803 124.767 124.509Z" fill="#FBBEBE"/>
<path opacity="0.1" d="M133.362 123.266C132.848 123.494 132.53 123.658 132.53 123.658C132.53 123.658 127.709 123.517 125.001 122.539C122.293 121.561 119.002 121.735 119.002 121.735C119.002 121.735 107.717 119.798 109.467 117.271C109.472 117.327 109.495 117.38 109.533 117.421C109.571 117.463 109.622 117.491 109.678 117.501C110.104 117.609 115.916 118.546 115.916 118.546C115.916 118.546 129.387 117.627 132.745 122.15C133.02 122.48 133.229 122.859 133.362 123.266Z" fill="black"/>
<path d="M138.049 108.345C138.049 108.345 138.712 113.009 138.758 113.388C138.804 113.767 139.043 118.333 138.758 118.853C138.473 119.373 138.049 120.219 138.049 120.219C138.049 120.219 138.522 121.207 136.631 121.586C134.74 121.965 132.52 123.092 132.52 123.092C132.52 123.092 127.697 122.951 125.004 121.963C122.312 120.974 119.002 121.161 119.002 121.161C119.002 121.161 104.678 118.71 110.824 115.718C116.97 112.727 121.317 116.779 121.317 116.779L128.17 116.356C128.17 116.356 130.724 114.799 131.433 114.942C131.934 115.006 132.442 114.924 132.897 114.707L132.946 109.759L138.049 108.345Z" fill="#FBBEBE"/>
<path opacity="0.1" d="M103.301 96.8959L101.929 96.8242L97.7715 112.96C97.7715 112.96 102.26 111.828 104.195 112.96C106.13 114.092 109.678 114.325 109.678 114.325L108.355 101.463L103.301 96.8959Z" fill="black"/>
<path d="M103.301 96.6118L101.929 96.54L97.7715 112.676C97.7715 112.676 102.26 111.544 104.195 112.676C106.13 113.808 109.678 114.041 109.678 114.041L108.355 101.178L103.301 96.6118Z" fill="#4285F4"/>
<path opacity="0.1" d="M134.742 100.146L136.631 100.572C136.631 100.572 141.453 107.487 141.831 107.874C142.209 108.26 140.032 109.667 139.136 109.667C138.239 109.667 133.843 110.179 132.566 111.362C131.289 112.545 131.821 106.591 131.821 106.455C131.821 106.319 133.406 102.562 133.406 102.562L134.742 100.146Z" fill="black"/>
<path d="M134.742 99.8647L136.631 100.287C136.631 100.287 141.453 107.215 141.831 107.592C142.209 107.968 140.032 109.385 139.136 109.385C138.239 109.385 133.843 109.897 132.566 111.08C131.289 112.264 131.821 106.309 131.821 106.173C131.821 106.037 133.416 102.267 133.416 102.267L134.742 99.8647Z" fill="#4285F4"/>
<g opacity="0.1">
<path opacity="0.1" d="M122.029 73.4738C122.018 73.2774 122.022 73.0805 122.042 72.8848C121.651 73.4699 121.381 74.1275 121.25 74.8185V75.4127C121.25 75.4127 121.25 75.3999 121.25 75.3922V75.5331C121.25 75.948 121.25 76.3655 121.238 76.7804H121.202V76.9725C121.202 76.9059 121.202 76.8418 121.189 76.7753C120.675 76.6933 120.307 76.263 119.925 75.9198C119.542 75.5766 118.943 75.2488 118.475 75.5126C118.251 75.664 118.074 75.874 117.962 76.1196L117.198 77.4617C117.195 77.3204 117.162 77.1816 117.1 77.0543C117.038 76.9271 116.95 76.8145 116.841 76.724C116.145 77.0276 115.556 77.5305 115.147 78.169C114.738 78.8075 114.53 79.5526 114.547 80.3097C113.845 79.8713 113.258 79.2726 112.834 78.5631C112.41 77.8537 112.161 77.0538 112.109 76.2297C112.064 77.1499 112.266 78.0654 112.695 78.8816C113.124 79.6979 113.763 80.3854 114.547 80.8732C114.53 80.1162 114.739 79.3714 115.148 78.733C115.556 78.0947 116.146 77.5916 116.841 77.2875C116.95 77.3787 117.038 77.4918 117.1 77.6194C117.161 77.747 117.195 77.8862 117.198 78.0277L117.954 76.6856C118.066 76.44 118.244 76.23 118.468 76.0786C118.935 75.8225 119.519 76.1247 119.917 76.4858C120.315 76.847 120.703 77.2952 121.238 77.3541C121.238 76.6984 121.244 76.0445 121.258 75.3922C121.384 74.7079 121.646 74.0557 122.029 73.4738Z" fill="black"/>
<path opacity="0.1" d="M121.16 76.0527C121.173 75.8785 121.194 75.7043 121.22 75.5404L121.248 74.8335C121.171 75.235 121.141 75.6443 121.16 76.0527Z" fill="black"/>
<path opacity="0.1" d="M128.956 79.1087C128.254 79.4826 127.36 79.1702 126.764 78.6477C126.168 78.1252 125.765 77.4209 125.238 76.8267C125.199 76.9342 125.194 77.0509 125.222 77.1616C125.251 77.2722 125.313 77.3715 125.4 77.4465C125.348 77.4465 125.3 77.4209 125.251 77.4081C125.765 77.9971 126.173 78.6887 126.764 79.2009C127.355 79.7132 128.254 80.0359 128.956 79.6619C129.657 79.288 129.858 78.4121 129.796 77.5592C129.75 78.2302 129.508 78.8116 128.956 79.1087Z" fill="black"/>
<path opacity="0.1" d="M125.236 77.4027C124.376 77.1692 123.609 76.6796 123.037 75.9993C122.465 75.3191 122.115 74.4808 122.034 73.5967C121.888 75.6072 123.409 77.6229 125.4 78.0097C125.315 77.9362 125.254 77.8393 125.225 77.7312C125.196 77.623 125.199 77.5087 125.236 77.4027Z" fill="black"/>
</g>
<path d="M248.626 119.263C248.626 119.263 247.614 119.122 247.614 117.655C247.614 116.187 246.889 113.439 246.889 113.439C246.889 113.439 246.262 108.657 245.396 107.899C244.53 107.141 243.418 102.689 243.418 102.689C243.418 102.689 243.228 100.274 242.84 99.7543C242.452 99.2344 241.928 97.9614 241.154 96.1455C240.381 94.3296 237.164 93.0849 237.164 93.0849C237.164 93.0849 231.334 89.7143 229.682 88.6155C229.531 88.5245 229.39 88.418 229.261 88.2979C228.973 87.924 227.719 87.9163 227.719 87.9163C227.588 87.089 227.462 86.1414 227.421 85.2834C227.421 85.1912 227.421 85.099 227.421 85.0068C229.263 83.9213 230.651 82.2098 231.329 80.1866C231.36 80.0892 231.386 79.9893 231.414 79.8895C231.527 79.8548 231.631 79.7967 231.719 79.719C231.808 79.6413 231.879 79.5457 231.928 79.4387C232.074 79.1083 232.079 78.7241 232.264 78.4142C232.48 78.0505 232.891 77.8558 233.215 77.5844C234.032 76.8903 234.243 75.7249 234.204 74.6671C234.179 73.8066 234.04 72.9409 234.094 72.088C234.094 72.0163 234.094 71.9445 234.109 71.8728C234.125 71.7473 234.143 71.6167 234.166 71.4938C234.292 70.8586 234.567 70.2593 234.721 69.6292C234.875 68.9991 234.89 68.2897 234.531 67.7467C234.004 66.9502 232.907 66.7914 231.943 66.7222C230.851 66.63 229.888 66.7478 229.176 65.8437C228.85 65.3715 228.482 64.9292 228.076 64.5221C227.932 64.3889 226.535 63.5361 226.535 63.4823C225.167 62.8484 223.616 62.7293 222.167 63.1467C221.44 63.3568 220.759 63.7 220.021 63.8716C218.439 64.2455 216.614 63.8408 215.268 64.745C214.518 65.2572 214.068 66.0742 213.647 66.8656C213.304 67.5179 212.957 68.171 212.604 68.825C212.033 69.8981 211.458 70.9892 211.219 72.1776C211.169 72.4372 211.137 72.6999 211.124 72.9639C211.124 73.0587 211.124 73.1534 211.124 73.2482C211.124 73.2892 211.124 73.3302 211.124 73.3711C211.124 73.4582 211.124 73.5453 211.139 73.6273C211.155 73.7092 211.139 73.7323 211.157 73.7861C211.175 73.8398 211.18 73.9602 211.196 74.0422C211.211 74.1241 211.242 74.2701 211.273 74.3803C211.273 74.4289 211.304 74.475 211.319 74.5237C211.334 74.5724 211.376 74.6953 211.409 74.7798C211.442 74.8643 211.445 74.8695 211.465 74.913C211.504 75.0026 211.55 75.0897 211.597 75.1691C211.617 75.2024 211.633 75.2357 211.653 75.269C211.724 75.3889 211.803 75.5036 211.889 75.6122C212.437 76.2961 213.249 76.7315 213.847 77.3718C213.847 77.3974 213.847 77.423 213.847 77.4486C213.847 77.5178 213.847 77.5869 213.847 77.6586C213.884 79.0868 214.27 80.4844 214.972 81.7298C215.674 82.9752 216.671 84.0307 217.876 84.8044C217.876 84.9018 217.889 85.0016 217.894 85.1015C217.944 85.8609 217.935 86.6231 217.866 87.381C217.761 87.2585 217.63 87.1608 217.482 87.0952C217.335 87.0297 217.174 86.9978 217.013 87.002C216.902 86.9965 216.792 87.006 216.684 87.0301L216.661 87.0122V87.0353C216.095 87.1736 215.399 87.7601 214.734 89.4274C214.734 89.4274 212.709 91.7018 211.167 91.607C209.626 91.5123 205.723 93.9762 205.723 93.9762C205.723 93.9762 201.915 96.4375 201.098 98.9475C200.641 100.371 200.093 101.764 199.456 103.117L194.736 112.778L193.871 120.462C193.871 120.462 194.351 123.871 194.256 124.393C194.161 124.916 196.232 129.603 196.232 129.603C196.232 129.603 203.074 141.584 205.869 142.199L206.07 142.061C206.19 142.121 206.317 142.167 206.448 142.199L207.023 141.797C207.059 142.247 207.043 142.7 206.977 143.146C206.594 144.332 207.123 152.052 207.796 153.566C208.47 155.079 208.231 174.929 208.231 174.929L208.136 176.678C208.136 176.678 208.136 176.734 208.159 176.832L208.136 177.247L208.205 177.282C208.277 177.839 208.254 178.404 208.136 178.952C207.894 179.721 207.796 181.89 207.796 181.89C207.796 181.89 205.869 194.153 206.784 196.617C207.699 199.081 208.472 201.781 208.472 201.781C208.472 201.781 209.436 204.854 208.518 205.366C207.601 205.878 205.004 206.788 205.533 208.066C206.021 209.249 207.874 212.42 208.148 212.883L208.125 213.14L207.748 217.22C207.809 217.758 207.955 218.284 208.182 218.777C208.596 219.668 209.397 220.588 210.929 220.488C211.185 220.47 211.481 220.442 211.771 220.403C214.569 220.027 218.012 218.782 218.012 218.782C217.834 218.669 217.67 218.534 217.527 218.38C217.389 218.247 217.28 218.088 217.206 217.912C217.133 217.735 217.096 217.546 217.098 217.355C217.139 216.61 215.743 213.073 215.394 212.2L215.314 212.005C215.314 212.005 218.495 208.688 217.966 205.753C217.966 205.753 214.446 203.704 215.605 202.577C216.764 201.45 218.834 198.223 218.834 198.223C218.834 198.223 218.929 186.147 218.834 184.346C218.735 183.094 218.795 181.834 219.012 180.597C219.05 180.412 219.096 180.23 219.145 180.049C220.749 180.29 222.369 180.412 223.991 180.415C224.584 180.415 225.183 180.403 225.79 180.379C225.79 180.55 225.797 180.734 225.813 180.932C225.946 183.924 226.196 189.172 226.399 191.121C226.686 193.912 228.277 201.445 228.277 201.445C228.277 201.445 225.242 203.384 228.806 208.171C228.806 208.171 228.806 209.902 228.57 210.156C228.317 210.977 228.114 211.813 227.961 212.658C227.812 213.557 227.75 214.471 227.992 214.943C228.57 216.075 232.038 215.982 232.038 215.982C232.066 215.976 232.095 215.972 232.123 215.97C232.778 215.901 233.44 215.963 234.07 216.152C234.701 216.341 235.287 216.653 235.795 217.071C237.113 218.126 242.113 217.665 244.823 217.327C245.884 217.191 246.594 217.071 246.594 217.071C246.628 216.951 246.64 216.826 246.63 216.702C246.601 216.039 246.08 214.584 242.544 213.286C242.544 213.286 239.22 211.057 239.266 209.116H239.191H238.809C239.05 209.108 239.22 209.108 239.22 209.108C239.22 209.108 237.917 204.372 238.449 203.986C238.981 203.599 237.388 198.351 237.388 198.351C237.388 198.351 236.476 189.54 236.424 188.926C236.428 188.396 236.509 187.87 236.666 187.363L236.424 182.53C236.424 182.53 236.378 180.924 236.424 180.402C236.419 179.948 236.383 179.496 236.316 179.047C236.293 178.868 236.27 178.681 236.244 178.496C237.49 178.181 238.3 177.892 238.3 177.892L238.156 161.078C239.214 159.029 239.41 154.531 239.405 151.345C239.405 149.296 239.312 147.78 239.312 147.78L240.759 145.426C240.759 145.426 241.093 142.609 240.563 141.991C240.33 141.712 240.435 141.423 240.628 141.185C240.729 141.102 240.836 141.026 240.949 140.959C240.936 140.941 240.925 140.923 240.915 140.903C241.016 140.819 241.124 140.743 241.237 140.675C241.237 140.675 240.723 139.881 241.183 139.545C241.614 139.837 242 140.07 242.293 140.237C242.272 140.424 242.251 140.531 242.251 140.531L242.375 140.275C242.657 140.434 242.83 140.531 242.83 140.531C242.83 140.531 245.096 136.031 245.047 135.371C244.998 134.71 246.588 131.913 246.588 131.913C246.588 131.913 246.781 130.443 247.65 129.828C248.518 129.213 248.323 124.759 248.323 124.759C248.323 124.759 248.564 122.439 249.142 121.494C249.721 120.549 248.626 119.263 248.626 119.263ZM205.266 117.288L205.309 118.362C205.052 117.949 204.867 117.655 204.867 117.655L205.266 117.288Z" fill="url(#paint1_linear)"/>
<path d="M242.963 138.585L242.408 140.941C242.408 140.941 237.963 138.675 237.164 135.806C236.365 132.937 238.503 131.844 238.503 131.844L242.647 133.591L242.963 138.585Z" fill="white"/>
<path opacity="0.1" d="M242.963 138.585L242.408 140.941C242.408 140.941 237.963 138.675 237.164 135.806C236.365 132.937 238.503 131.844 238.503 131.844L242.647 133.591L242.963 138.585Z" fill="black"/>
<path d="M218.017 218.779C218.017 218.779 213.906 220.285 211.08 220.475C209.579 220.575 208.79 219.658 208.385 218.774C208.164 218.287 208.02 217.768 207.958 217.237L208.331 213.178L208.526 211.019L214.53 209.461L215.381 212.056L215.461 212.251C215.8 213.119 217.172 216.638 217.131 217.373C217.127 217.563 217.163 217.752 217.235 217.928C217.307 218.104 217.414 218.264 217.549 218.398C217.688 218.544 217.846 218.672 218.017 218.779Z" fill="white"/>
<path d="M246.084 216.715C246.095 216.839 246.083 216.964 246.049 217.084C246.049 217.084 237.256 218.544 235.458 217.084C234.952 216.658 234.363 216.341 233.728 216.154C233.092 215.968 232.425 215.916 231.768 216.001C231.768 216.001 228.366 216.093 227.799 214.976C227.562 214.507 227.624 213.598 227.77 212.704C227.92 211.864 228.119 211.032 228.366 210.215L228.503 210.107L229.312 209.459L238.788 209.18H238.86C238.813 211.111 242.074 213.327 242.074 213.327C245.545 214.607 246.056 216.054 246.084 216.715Z" fill="white"/>
<path opacity="0.1" d="M246.087 216.715C246.096 216.839 246.083 216.964 246.049 217.084C246.049 217.084 237.256 218.544 235.46 217.084C234.955 216.657 234.365 216.34 233.729 216.154C233.093 215.967 232.426 215.915 231.768 216.001C231.768 216.001 228.364 216.093 227.796 214.976C227.562 214.507 227.621 213.598 227.768 212.702C229.078 212.832 231.147 213.158 231.958 213.936C233.187 215.114 235.268 216.292 236.542 216.387C237.549 216.449 243.539 216.638 246.087 216.715Z" fill="black"/>
<path opacity="0.1" d="M218.017 218.78C218.017 218.78 213.906 220.286 211.08 220.475C209.58 220.575 208.791 219.658 208.385 218.774C209.433 219.125 210.885 219.492 211.648 219.156C212.552 218.754 215.759 218.498 217.557 218.388C217.693 218.538 217.848 218.669 218.017 218.78Z" fill="black"/>
<path d="M224.117 97.4055C220.725 96.0916 216.363 91.7504 217.452 89.7219C217.693 89.2096 217.837 88.6573 217.876 88.0929C217.946 87.3265 217.956 86.5558 217.907 85.7878C217.83 84.5292 217.678 83.2762 217.452 82.0356C217.452 82.0356 228.04 82.2738 227.424 83.8285C227.244 84.287 227.213 85.0784 227.264 85.962C227.316 86.8456 227.442 87.8522 227.575 88.6999C227.758 89.8602 227.945 90.7489 227.945 90.7489C227.945 90.7489 227.295 91.653 226.918 91.7017C226.54 91.7504 228.983 99.288 224.117 97.4055Z" fill="#CF6F80"/>
<path opacity="0.1" d="M215.45 212.238L215.371 212.325C212.205 208.509 208.377 213.267 208.377 213.267L208.32 213.165L208.516 211.006L214.52 209.449L215.371 212.043L215.45 212.238Z" fill="black"/>
<path opacity="0.1" d="M238.865 209.449C238.865 209.449 236.553 209.403 235.319 210.489C234.086 211.575 228.125 210.722 228.382 210.489C228.457 210.371 228.503 210.236 228.516 210.097L229.325 209.449L238.801 209.17C238.837 209.349 238.865 209.449 238.865 209.449Z" fill="black"/>
<path d="M219.389 179.48C219.217 179.905 219.087 180.345 218.999 180.794C218.784 182.025 218.725 183.278 218.821 184.523C218.916 186.316 218.821 198.331 218.821 198.331C218.821 198.331 216.789 201.535 215.653 202.664C214.518 203.794 217.966 205.822 217.966 205.822C218.48 208.745 215.366 212.044 215.366 212.044C212.2 208.227 208.372 212.984 208.372 212.984C208.372 212.984 206.291 209.398 205.772 208.117C205.253 206.837 207.804 205.953 208.701 205.431C209.597 204.908 208.654 201.845 208.654 201.845C208.654 201.845 207.899 199.158 207 196.707C206.1 194.256 207.992 182.057 207.992 182.057C207.992 182.057 208.089 179.888 208.323 179.132C208.44 178.587 208.463 178.025 208.392 177.472C208.377 177.285 208.359 177.132 208.346 177.024C208.333 176.916 208.323 176.87 208.323 176.87L208.359 176.809L209.644 174.422C209.644 174.422 220.006 177.977 219.389 179.48Z" fill="#4285F4"/>
<path d="M238.865 209.167C238.865 209.167 236.552 209.119 235.319 210.192C234.086 211.265 228.125 210.427 228.382 210.192C228.639 209.956 228.616 208.214 228.616 208.214C225.119 203.453 228.102 201.522 228.102 201.522C228.102 201.522 226.542 194.03 226.26 191.252C226.062 189.313 225.818 184.08 225.687 181.117C225.63 179.836 225.597 178.953 225.597 178.953L228.428 178.392L228.796 178.32L235.687 176.939C235.687 176.939 235.877 178.22 236.005 179.268C236.07 179.715 236.105 180.166 236.111 180.617C236.067 181.13 236.111 182.735 236.111 182.735L236.347 187.54C236.194 188.045 236.115 188.568 236.111 189.095C236.159 189.71 237.056 198.472 237.056 198.472C237.056 198.472 238.616 203.702 238.084 204.078C237.552 204.455 238.865 209.167 238.865 209.167Z" fill="#4285F4"/>
<path opacity="0.1" d="M227.423 83.8363C227.243 84.2948 227.213 85.0862 227.264 85.9698C225.846 86.8211 224.215 87.2564 222.56 87.2256C220.905 87.1948 219.292 86.6992 217.906 85.7956C217.83 84.537 217.678 83.284 217.452 82.0435C217.452 82.0435 228.04 82.2817 227.423 83.8363Z" fill="black"/>
<path d="M231.512 78.181C231.54 80.5048 230.64 82.7445 229.012 84.4074C227.383 86.0702 225.158 87.0201 222.827 87.0479C220.496 87.0758 218.249 86.1794 216.581 84.5559C214.913 82.9324 213.96 80.7148 213.932 78.391C213.932 78.3193 213.932 78.2527 213.932 78.181C213.932 75.8565 214.858 73.6272 216.507 71.9836C218.156 70.3399 220.393 69.4165 222.724 69.4165C225.056 69.4165 227.293 70.3399 228.942 71.9836C230.59 73.6272 231.517 75.8565 231.517 78.181H231.512Z" fill="#CF6F80"/>
<path opacity="0.1" d="M224.117 97.4059C220.725 96.0919 216.363 91.7507 217.452 89.7222C217.693 89.2099 217.837 88.6576 217.876 88.0933L222.519 91.8992L225.391 94.2479L227.575 88.708C227.758 89.8682 227.945 90.7569 227.945 90.7569C227.945 90.7569 227.295 91.661 226.918 91.7097C226.54 91.7584 228.983 99.2884 224.117 97.4059Z" fill="black"/>
<path d="M236.123 114.225L232.246 179.152L227.19 179.483L214.094 141.835L216.242 97.1395L216.697 87.6963L222.519 92.4627L225.391 94.8114L227.639 89.1075L231.82 92.7393L236.123 114.225Z" fill="#4285F4"/>
<path opacity="0.1" d="M219.389 179.48C219.217 179.904 219.087 180.344 218.999 180.794C215.316 180.228 211.739 179.116 208.387 177.492L208.318 177.456L208.341 177.044V176.829L209.626 174.442C209.626 174.442 220.006 177.976 219.389 179.48Z" fill="black"/>
<path opacity="0.1" d="M228.513 180.804C227.572 180.965 226.623 181.073 225.671 181.13C225.614 179.849 225.581 178.965 225.581 178.965L228.428 178.392L228.513 180.804Z" fill="black"/>
<path opacity="0.1" d="M236.015 179.268C234.188 179.741 231.365 180.274 228.842 179.941L228.806 178.32L235.697 176.939C235.697 176.939 235.879 178.21 236.015 179.268Z" fill="black"/>
<path opacity="0.1" d="M228.796 180.238C218.261 182.031 208.613 176.891 208.613 176.891L208.706 175.149C208.706 175.149 208.945 155.404 208.282 153.891C207.619 152.377 207.103 144.711 207.478 143.541C207.853 142.37 206.108 124.698 206.108 124.698L205.826 117.527L195.474 113.334L200.098 103.722C200.723 102.374 201.26 100.988 201.707 99.5724C202.511 97.0752 206.244 94.6241 206.244 94.6241C206.244 94.6241 210.073 92.1756 211.586 92.2678C213.099 92.36 215.083 90.101 215.083 90.101C216.547 86.3795 217.873 88.052 217.873 88.052C217.873 88.2313 217.873 88.052 217.801 88.6027C217.287 92.6878 226.111 105.596 226.236 105.827L227.087 126.23L227.937 152.049L228.796 180.238Z" fill="black"/>
<path d="M228.513 180.238C217.979 182.031 208.328 176.891 208.328 176.891L208.423 175.149C208.423 175.149 208.66 155.404 207.997 153.891C207.334 152.377 206.818 144.704 207.195 143.523C207.573 142.342 205.818 124.688 205.818 124.688L205.533 117.516L195.184 113.324L199.808 103.711C200.431 102.364 200.969 100.979 201.417 99.5647C202.221 97.0752 205.967 94.6215 205.967 94.6215C205.967 94.6215 209.795 92.173 211.306 92.2652C212.817 92.3574 214.811 90.101 214.811 90.101C216.278 86.3795 217.894 88.052 217.894 88.052C217.894 88.2313 217.74 88.3081 217.822 88.6027C218.953 92.5649 225.849 105.596 225.975 105.827L226.825 126.23L227.658 152.062L228.513 180.238Z" fill="white"/>
<path opacity="0.1" d="M225.674 106.403C224.541 105.932 218.539 99.1013 218.539 99.1013V97.5466C218.32 97.0344 217.02 97.3468 215.969 97.7054L216.421 88.2622L216.935 88.6874C218.058 92.647 225.55 106.175 225.674 106.403Z" fill="black"/>
<path d="M225.959 105.84C224.823 105.366 218.821 98.5379 218.821 98.5379V96.9807C218.603 96.4685 217.305 96.7809 216.252 97.1395L216.696 87.7065L217.21 88.1291C218.343 92.0837 225.833 105.609 225.959 105.84Z" fill="white"/>
<path opacity="0.1" d="M208.613 139.904C208.755 139.904 215.938 139.151 215.938 139.151C215.938 139.151 220.288 147.68 220.003 149.752C219.718 151.824 219.202 153.663 217.452 153.338C215.702 153.012 208.035 153.594 208.035 153.594L208.613 139.904Z" fill="black"/>
<path d="M208.328 139.338C208.472 139.338 215.656 138.585 215.656 138.585C215.656 138.585 220.003 147.127 219.721 149.176C219.438 151.225 218.916 153.087 217.169 152.761C215.422 152.436 207.75 153.017 207.75 153.017L208.328 139.338Z" fill="white"/>
<path d="M213.742 135.345C213.742 135.345 220.335 138.88 220.476 139.955C220.618 141.031 217.121 139.484 216.365 139.295C215.868 139.177 215.362 139.098 214.852 139.059L209.813 139.195L213.742 135.345Z" fill="#CF6F80"/>
<path opacity="0.1" d="M223.831 106.844C224.215 106.844 224.525 106.534 224.525 106.152C224.525 105.771 224.215 105.461 223.831 105.461C223.448 105.461 223.138 105.771 223.138 106.152C223.138 106.534 223.448 106.844 223.831 106.844Z" fill="black"/>
<path d="M223.831 106.562C224.215 106.562 224.525 106.253 224.525 105.871C224.525 105.489 224.215 105.179 223.831 105.179C223.448 105.179 223.138 105.489 223.138 105.871C223.138 106.253 223.448 106.562 223.831 106.562Z" fill="#3F3D56"/>
<path opacity="0.1" d="M225.109 136.779C225.492 136.779 225.802 136.469 225.802 136.088C225.802 135.706 225.492 135.396 225.109 135.396C224.726 135.396 224.415 135.706 224.415 136.088C224.415 136.469 224.726 136.779 225.109 136.779Z" fill="black"/>
<path d="M225.109 136.495C225.492 136.495 225.802 136.186 225.802 135.804C225.802 135.422 225.492 135.112 225.109 135.112C224.726 135.112 224.415 135.422 224.415 135.804C224.415 136.186 224.726 136.495 225.109 136.495Z" fill="#3F3D56"/>
<path opacity="0.1" d="M224.525 121.812C224.908 121.812 225.219 121.502 225.219 121.12C225.219 120.738 224.908 120.429 224.525 120.429C224.142 120.429 223.832 120.738 223.832 121.12C223.832 121.502 224.142 121.812 224.525 121.812Z" fill="black"/>
<path d="M224.525 121.53C224.908 121.53 225.219 121.22 225.219 120.838C225.219 120.456 224.908 120.146 224.525 120.146C224.142 120.146 223.832 120.456 223.832 120.838C223.832 121.22 224.142 121.53 224.525 121.53Z" fill="#3F3D56"/>
<path d="M240.517 138.915C240.517 138.915 240.99 139.622 240.517 139.94C240.044 140.257 240.563 141.072 240.563 141.072C240.563 141.072 239.384 141.758 239.903 142.381C240.422 143.003 240.093 145.797 240.093 145.797L238.675 148.151C238.675 148.151 238.759 149.66 238.765 151.698C238.765 154.88 238.577 159.351 237.539 161.39L237.678 178.117C237.678 178.117 232.711 179.928 228.554 179.375L227.937 152.533C227.937 152.533 228.837 137.312 229.168 134.392C229.362 132.876 229.441 131.348 229.404 129.821C229.404 129.821 229.263 125.251 228.788 123.133C228.788 123.133 228.274 113.944 228.223 111.4C228.199 110.184 228.264 106.634 228.336 103.258C228.415 99.5674 228.505 96.0867 228.505 96.0867L227.567 88.6873C227.567 88.6873 228.505 88.5951 228.788 88.969C228.914 89.0869 229.052 89.1924 229.199 89.2841C230.82 90.3752 236.54 93.7303 236.54 93.7303C236.54 93.7303 239.705 94.9854 240.463 96.7833C241.221 98.5813 241.748 99.8568 242.115 100.369C242.482 100.881 242.683 103.289 242.683 103.289C242.683 103.289 243.772 107.72 244.623 108.47C245.473 109.221 246.085 113.984 246.085 113.984L238.569 119.875C238.569 119.875 237.909 129.675 237.768 130.054C237.626 130.433 240.517 138.915 240.517 138.915Z" fill="white"/>
<path d="M240.802 138.916C240.802 138.916 241.272 139.623 240.802 139.94C240.332 140.258 240.846 141.072 240.846 141.072C240.846 141.072 239.666 141.759 240.185 142.381C240.704 143.004 240.375 145.798 240.375 145.798L238.962 148.152C238.962 148.152 239.047 149.66 239.055 151.699C239.055 154.88 238.867 159.352 237.829 161.391L237.971 178.118C237.971 178.118 233.004 179.929 228.847 179.375L228.233 152.534C228.233 152.534 229.129 137.313 229.463 134.393C229.658 132.877 229.736 131.349 229.697 129.821C229.697 129.821 229.556 125.252 229.083 123.134C229.083 123.134 228.569 113.944 228.515 111.401C228.492 110.184 228.556 106.634 228.628 103.259C228.708 99.5678 228.798 96.0871 228.798 96.0871L227.56 88.5879C227.56 88.5879 228.798 88.5879 229.083 88.9695C229.209 89.0888 229.346 89.1944 229.494 89.2845C231.113 90.3756 236.832 93.7308 236.832 93.7308C236.832 93.7308 239.99 94.9858 240.761 96.7838C241.532 98.5818 242.046 99.8573 242.413 100.37C242.78 100.882 242.981 103.289 242.981 103.289C242.981 103.289 244.07 107.72 244.921 108.471C245.771 109.221 246.385 113.985 246.385 113.985L238.87 119.876C238.87 119.876 238.21 129.675 238.066 130.054C237.922 130.433 240.802 138.916 240.802 138.916Z" fill="white"/>
<path opacity="0.1" d="M231.802 98.2611L232.483 100.233L228.909 103.819C228.988 100.128 229.078 96.6476 229.078 96.6476L227.84 89.1509C227.84 89.1509 229.078 89.1509 229.363 89.5325C229.489 89.6518 229.627 89.7574 229.775 89.8475L232.812 98.5787L231.802 98.2611Z" fill="black"/>
<path d="M231.511 97.695L232.192 99.6646L228.621 103.25C228.698 99.5595 228.79 96.0788 228.79 96.0788L227.549 88.5796C227.549 88.5796 228.79 88.5796 229.073 88.9612C229.199 89.0798 229.337 89.1853 229.484 89.2762L232.539 98.0151L231.511 97.695Z" fill="white"/>
<path opacity="0.1" d="M231.512 78.181C231.513 79.1039 231.367 80.0211 231.08 80.8985C231.032 80.9065 230.982 80.9048 230.934 80.8933C230.887 80.8819 230.842 80.861 230.802 80.8319C230.733 78.5268 229.597 76.36 228.197 74.5185C227.803 73.963 227.327 73.4707 226.784 73.0586C226.235 72.6475 225.551 72.4549 224.867 72.5181C224.096 72.6232 223.416 73.1456 222.637 73.2122C221.609 73.2968 220.69 72.5873 219.669 72.554C219.255 72.5574 218.846 72.6493 218.469 72.8233C218.093 72.9973 217.758 73.2496 217.488 73.5631C216.952 74.1937 216.554 74.9292 216.319 75.7222C215.915 76.9256 215.695 78.1827 215.666 79.4514C215.654 80.1685 215.584 81.0675 214.916 81.3287C214.967 80.8017 214.907 80.2699 214.74 79.7673C214.573 79.2646 214.303 78.802 213.948 78.409L213.932 78.391C213.932 78.3193 213.932 78.2527 213.932 78.181C213.932 75.8565 214.858 73.6272 216.507 71.9836C218.156 70.3399 220.393 69.4165 222.724 69.4165C225.056 69.4165 227.293 70.3399 228.942 71.9836C230.59 73.6272 231.517 75.8565 231.517 78.181H231.512Z" fill="black"/>
<path d="M226.373 64.2658C225.038 63.6398 223.519 63.5214 222.102 63.9329C221.391 64.1429 220.72 64.4835 219.998 64.6551C218.457 65.0265 216.658 64.6244 215.335 65.5234C214.6 66.0356 214.158 66.845 213.747 67.6338L212.719 69.5829C212.159 70.6509 211.594 71.7369 211.36 72.9125C211.126 74.0881 211.267 75.4046 212.015 76.3522C212.557 77.0386 213.364 77.4715 213.955 78.1195C214.31 78.5145 214.579 78.9786 214.745 79.4824C214.912 79.9862 214.972 80.5189 214.921 81.0469C215.589 80.7908 215.656 79.8867 215.671 79.1696C215.7 77.9009 215.92 76.6439 216.324 75.4404C216.558 74.6474 216.957 73.9119 217.493 73.2813C217.763 72.9675 218.098 72.7148 218.474 72.5403C218.85 72.3659 219.259 72.2736 219.674 72.2696C220.702 72.3055 221.625 73.015 222.642 72.9279C223.413 72.8638 224.096 72.3414 224.872 72.2363C225.556 72.1718 226.24 72.3646 226.789 72.7768C227.332 73.1876 227.808 73.6801 228.199 74.2367C229.602 76.0807 230.741 78.2373 230.807 80.5501C231.098 80.7601 231.517 80.4835 231.66 80.1556C231.804 79.8278 231.809 79.4436 231.992 79.1311C232.203 78.77 232.606 78.5754 232.922 78.3039C233.724 77.6149 233.924 76.4547 233.893 75.402C233.862 74.3493 233.657 73.2813 233.857 72.2466C233.978 71.614 234.25 71.0172 234.399 70.3897C234.548 69.7622 234.566 69.0579 234.214 68.5175C233.7 67.726 232.619 67.5672 231.676 67.493C230.604 67.4008 229.646 67.5186 228.963 66.6196C228.641 66.1511 228.28 65.7107 227.883 65.3031C227.742 65.1674 226.373 64.3222 226.373 64.2658Z" fill="#512E4E"/>
<path opacity="0.1" d="M198.439 118.277L195.756 113.332L194.906 120.964C194.906 120.964 195.379 124.355 195.283 124.875C195.188 125.395 197.221 130.056 197.221 130.056C197.221 130.056 203.934 141.979 206.676 142.591L215.926 135.993L213.469 132.884C213.469 132.884 212.619 132.553 212.406 132.884C212.406 132.884 207.842 125.062 207.372 124.498C206.902 123.935 206.992 122.8 206.992 122.8C206.992 122.8 206.283 122.047 206.519 121.34C206.756 120.634 205.163 118.185 205.163 118.185L206.627 116.82L198.439 118.277Z" fill="black"/>
<path d="M195.897 112.766L195.188 113.332L194.338 120.964C194.338 120.964 194.811 124.355 194.716 124.875C194.621 125.395 196.655 130.056 196.655 130.056C196.655 130.056 203.367 141.979 206.108 142.591L215.373 135.993L212.914 132.884C212.914 132.884 212.064 132.554 211.851 132.884C211.851 132.884 207.29 125.062 206.817 124.499C206.344 123.935 206.44 122.8 206.44 122.8C206.44 122.8 205.73 122.047 205.967 121.341C206.203 120.634 204.595 118.185 204.595 118.185L206.059 116.82L195.897 112.766Z" fill="white"/>
<path opacity="0.1" d="M239.903 142.675C240.417 143.298 240.093 146.094 240.093 146.094L238.675 148.433C238.675 148.433 238.76 149.944 238.765 151.983L236.38 152.725C236.165 152.792 235.936 152.807 235.713 152.768C235.49 152.729 235.28 152.638 235.1 152.501C234.92 152.365 234.776 152.188 234.678 151.984C234.581 151.781 234.534 151.557 234.541 151.332L234.954 138.116L240.517 140.234C240.044 140.562 240.563 141.366 240.563 141.366C240.563 141.366 239.384 142.053 239.903 142.675Z" fill="black"/>
<path d="M240.185 142.394C240.699 143.013 240.375 145.81 240.375 145.81L238.962 148.151C238.962 148.151 239.047 149.66 239.055 151.698L236.627 152.454C236.416 152.52 236.192 152.535 235.975 152.497C235.757 152.459 235.552 152.37 235.376 152.237C235.2 152.103 235.058 151.93 234.963 151.732C234.868 151.533 234.821 151.314 234.828 151.094L235.242 137.832L240.802 139.955C240.327 140.283 240.846 141.087 240.846 141.087C240.846 141.087 239.666 141.771 240.185 142.394Z" fill="white"/>
<path d="M242.03 136.088C242.03 136.088 241.653 138.493 240.707 138.634C239.761 138.774 239.338 142.524 238.395 142.393C237.452 142.263 238.076 138.905 238.109 138.255C238.143 137.604 237.082 134.91 237.873 134.297C238.664 133.685 241.182 134.297 241.182 134.297L242.03 136.088Z" fill="#CF6F80"/>
<path opacity="0.1" d="M244.029 117.57L245.81 113.984C245.81 113.984 246.521 116.717 246.521 118.177C246.521 119.637 247.513 119.78 247.513 119.78C247.513 119.78 248.6 121.061 248.027 121.996C247.454 122.931 247.225 125.246 247.225 125.246C247.225 125.246 247.413 129.674 246.562 130.287C245.712 130.899 245.522 132.361 245.522 132.361C245.522 132.361 243.962 135.14 244.011 135.801C244.06 136.462 241.837 140.936 241.837 140.936C241.837 140.936 242.924 135.376 236.591 132.973C236.591 132.973 236.542 131.088 237.015 130.571C237.487 130.053 238.225 129.802 237.762 127.2C237.3 124.598 237.629 121.461 237.629 120.833C237.629 120.206 239.047 116.295 239.047 116.295L244.029 117.57Z" fill="black"/>
<path d="M244.821 113.472L246.378 113.984C246.378 113.984 247.089 116.717 247.089 118.177C247.089 119.637 248.081 119.78 248.081 119.78C248.081 119.78 249.168 121.061 248.595 121.996C248.022 122.931 247.791 125.246 247.791 125.246C247.791 125.246 247.981 129.674 247.131 130.287C246.28 130.899 246.103 132.361 246.103 132.361C246.103 132.361 244.543 135.14 244.592 135.801C244.641 136.462 242.416 140.936 242.416 140.936C242.416 140.936 243.503 135.376 237.169 132.973C237.169 132.973 237.123 131.088 237.596 130.571C238.068 130.053 238.806 129.802 238.343 127.2C237.881 124.598 238.21 121.461 238.21 120.833C238.21 120.206 239.628 116.295 239.628 116.295L244.821 113.472Z" fill="white"/>
<path opacity="0.1" d="M210.422 206.411C210.422 206.411 212.904 204.857 214.533 205.986C216.162 207.116 210.422 206.411 210.422 206.411Z" fill="black"/>
<path opacity="0.1" d="M229.713 201.604C229.713 201.604 231.91 201.322 233.754 203.302C235.599 205.282 229.713 201.604 229.713 201.604Z" fill="black"/>
<g opacity="0.1">
<path opacity="0.1" d="M232.922 77.7411C232.606 78.0151 232.2 78.2072 231.989 78.5683C231.809 78.8783 231.804 79.2624 231.66 79.5928C231.517 79.9232 231.098 80.1973 230.805 79.9873C230.738 77.6822 229.6 75.5179 228.199 73.6738C227.808 73.1181 227.332 72.6264 226.789 72.2165C226.239 71.8035 225.555 71.6098 224.87 71.6735C224.099 71.7785 223.421 72.301 222.642 72.3676C221.614 72.4521 220.692 71.7427 219.672 71.7094C219.257 71.7125 218.848 71.8042 218.473 71.9783C218.097 72.1524 217.763 72.4048 217.493 72.7185C216.957 73.3491 216.558 74.0846 216.324 74.8776C215.92 76.081 215.7 77.3381 215.671 78.6068C215.656 79.3213 215.589 80.2126 214.926 80.479C214.942 80.6691 214.942 80.8601 214.926 81.0502C215.597 80.794 215.664 79.8899 215.679 79.1728C215.708 77.9042 215.928 76.6471 216.332 75.4436C216.566 74.6506 216.964 73.9152 217.501 73.2845C217.771 72.9709 218.105 72.7183 218.48 72.5438C218.856 72.3694 219.265 72.277 219.68 72.2728C220.707 72.3087 221.632 73.0182 222.65 72.9311C223.421 72.8671 224.104 72.3446 224.877 72.2395C225.562 72.1751 226.247 72.3678 226.797 72.78C227.34 73.1908 227.816 73.6834 228.207 74.2399C229.607 76.084 230.746 78.2405 230.813 80.5533C231.105 80.7633 231.524 80.4867 231.668 80.1589C231.812 79.831 231.817 79.4468 231.997 79.1344C232.208 78.7732 232.614 78.5786 232.93 78.3071C233.731 77.6181 233.932 76.4579 233.901 75.4052C233.901 75.3719 233.901 75.3412 233.901 75.3079C233.849 76.2248 233.605 77.1545 232.922 77.7411Z" fill="black"/>
<path opacity="0.1" d="M213.953 77.5616C213.364 76.9137 212.557 76.4783 212.015 75.7919C211.557 75.1859 211.296 74.4548 211.268 73.6968C211.187 74.6446 211.452 75.5896 212.015 76.3579C212.557 77.0443 213.364 77.4771 213.953 78.1251C214.521 78.7586 214.862 79.5621 214.924 80.4097C214.962 79.8943 214.896 79.3764 214.729 78.887C214.562 78.3976 214.298 77.9468 213.953 77.5616Z" fill="black"/>
<path opacity="0.1" d="M234.399 69.8268C234.248 70.4543 233.978 71.0511 233.855 71.6837C233.781 72.1115 233.754 72.5461 233.775 72.9797C233.784 72.7348 233.81 72.4908 233.855 72.2497C233.978 71.6171 234.248 71.0204 234.399 70.3929C234.487 70.0466 234.515 69.6882 234.484 69.3325C234.468 69.4991 234.439 69.6643 234.399 69.8268Z" fill="black"/>
</g>
<path opacity="0.1" d="M34.1031 214.855C47.93 214.855 59.1389 213.061 59.1389 210.847C59.1389 208.633 47.93 206.839 34.1031 206.839C20.2763 206.839 9.06738 208.633 9.06738 210.847C9.06738 213.061 20.2763 214.855 34.1031 214.855Z" fill="#4285F4"/>
<path d="M34.9098 134.06H33.2988V170.216H34.9098V134.06Z" fill="#535461"/>
<path d="M45.0358 170.108L44.933 171.737L44.7917 174.042L44.7326 175L44.5887 177.305L44.527 178.263L44.3857 180.568L42.7593 206.711C42.69 207.836 42.1928 208.892 41.3692 209.664C40.5456 210.436 39.4577 210.865 38.3272 210.865H29.8817C28.7481 210.866 27.6573 210.434 26.8331 209.658C26.009 208.882 25.5139 207.821 25.4496 206.693L23.8232 180.551L23.6819 178.245L23.6228 177.288L23.4763 174.982L23.4172 174.025L23.2759 171.719L23.1732 170.09C23.1554 169.778 23.2015 169.466 23.3088 169.172C23.416 168.878 23.5821 168.609 23.797 168.381C24.0119 168.153 24.271 167.971 24.5587 167.846C24.8463 167.722 25.1564 167.656 25.4702 167.655H42.7413C43.0564 167.657 43.3679 167.723 43.6565 167.849C43.9451 167.975 44.2048 168.158 44.4197 168.388C44.6345 168.618 44.8 168.889 44.9059 169.185C45.0119 169.481 45.0561 169.795 45.0358 170.108Z" fill="#3F3D56"/>
<path d="M44.9326 171.735L44.7887 174.035H23.4168L23.2729 171.735H44.9326Z" fill="#9D9CB5"/>
<path d="M44.7297 174.993L44.5884 177.293H23.62L23.4761 174.993H44.7297Z" fill="#9D9CB5"/>
<path d="M44.5269 178.253L44.3856 180.551H23.8231L23.6792 178.253H44.5269Z" fill="#9D9CB5"/>
<path d="M20.8247 147.614C30.2079 154.38 34.1159 164.963 34.1159 164.963C34.1159 164.963 22.8108 164.577 13.4249 157.81C4.0391 151.043 0.125977 140.468 0.125977 140.468C0.125977 140.468 11.4311 140.847 20.8247 147.614Z" fill="#4285F4"/>
<path d="M0.125977 140.468C0.125977 140.468 11.8602 146.96 15.6243 152.336C19.3884 157.712 34.1056 164.968 34.1056 164.968" stroke="#535461" stroke-width="2" stroke-miterlimit="10"/>
<path d="M26.8704 133.982C31.9782 137.663 34.1056 143.423 34.1056 143.423C34.1056 143.423 27.9392 143.213 22.8442 139.533C17.7492 135.852 15.6089 130.089 15.6089 130.089C15.6089 130.089 21.7651 130.299 26.8704 133.982Z" fill="#4285F4"/>
<path d="M15.6089 130.089C15.6089 130.089 21.9963 133.624 24.0466 136.549C26.097 139.474 34.1056 143.423 34.1056 143.423" stroke="#535461" stroke-width="2" stroke-miterlimit="10"/>
<path d="M41.5258 143.131C35.6599 149.557 34.4189 157.956 34.4189 157.956C34.4189 157.956 42.6897 155.932 48.5504 149.504C54.4111 143.075 55.6572 134.679 55.6572 134.679C55.6572 134.679 47.3916 136.705 41.5258 143.131Z" fill="#4285F4"/>
<path d="M55.6623 134.682C55.6623 134.682 48.0211 141.269 46.0787 145.808C44.1362 150.346 34.4189 157.955 34.4189 157.955" stroke="#535461" stroke-width="2" stroke-miterlimit="10"/>
</g>
<defs>
<linearGradient id="paint0_linear" x1="119.611" y1="214.005" x2="119.611" y2="66.0562" gradientUnits="userSpaceOnUse">
<stop stop-color="#808080" stop-opacity="0.25"/>
<stop offset="0.54" stop-color="#808080" stop-opacity="0.12"/>
<stop offset="1" stop-color="#808080" stop-opacity="0.1"/>
</linearGradient>
<linearGradient id="paint1_linear" x1="48889.4" y1="138652" x2="48889.4" y2="41678.6" gradientUnits="userSpaceOnUse">
<stop stop-color="#808080" stop-opacity="0.25"/>
<stop offset="0.54" stop-color="#808080" stop-opacity="0.12"/>
<stop offset="1" stop-color="#808080" stop-opacity="0.1"/>
</linearGradient>
<clipPath id="clip0">
<rect width="300" height="221" fill="white"/>
</clipPath>
</defs>
</svg>
