<svg width="835" height="712" viewBox="0 0 835 712" fill="none" xmlns="http://www.w3.org/2000/svg">
<rect width="835" height="712" fill="white"/>
<path opacity="0.1" d="M71.256 282H133V365.826H75.7694C75.6216 366.688 75.4739 367.551 75.3127 368.414H133V436C132.903 435.971 132.809 435.936 132.718 435.893C131.079 435.224 129.46 434.555 127.862 433.853L126.821 433.378C125.182 432.616 123.563 431.806 121.965 430.95C121.401 430.656 120.837 430.348 120.279 430.034C111.265 425.023 103.072 418.669 95.9858 411.193C95.7776 410.992 95.5828 410.778 95.3881 410.577C94.4075 409.514 93.4336 408.43 92.5 407.334L91.459 406.096C90.3507 404.759 89.2828 403.361 88.2485 401.956C88.094 401.749 87.9463 401.535 87.7918 401.334C83.5536 395.497 80.04 389.171 77.3276 382.493C77.2403 382.292 77.1597 382.078 77.0858 381.878C76.2395 379.755 75.4851 377.599 74.8224 375.41C74.547 374.494 74.2716 373.571 74.0433 372.641C73.956 372.367 73.8888 372.086 73.8149 371.818C70.3895 358.395 70 344.443 70 330.564C70 328.946 70 327.329 70 325.715C70 320.101 70.0537 314.472 70.1612 308.827C70.1948 307.369 70.2216 305.911 70.2552 304.446C70.3425 300.727 70.4567 297.002 70.6179 293.283C70.6582 292.253 70.7052 291.217 70.7589 290.193C70.7589 289.598 70.8127 289.003 70.853 288.414C70.9806 286.274 71.1082 284.14 71.256 282Z" fill="#4285F4"/>
<path opacity="0.1" d="M133 189H99C104.528 180.543 110.568 172.417 117.089 164.666C122.139 158.604 127.451 152.687 133 147V189Z" fill="#4285F4"/>
<path opacity="0.1" d="M133 192.027V280H72C72 279.746 72.0399 279.479 72.0665 279.226C72.1198 278.558 72.173 277.844 72.2329 277.15C72.2928 276.342 72.3726 275.528 72.4458 274.707C72.519 273.885 72.6055 272.944 72.6986 272.07C72.7918 271.195 72.8783 270.308 72.9781 269.4C73.0779 268.492 73.171 267.644 73.2775 266.776C73.3839 265.909 73.4837 265.021 73.5969 264.153C73.69 263.425 73.7832 262.704 73.883 261.977C74.0205 260.953 74.1669 259.932 74.3221 258.913C74.3221 258.759 74.3687 258.606 74.3886 258.459C75.4882 251.023 76.9874 243.651 78.8798 236.377C80.8583 228.743 83.3867 221.262 86.4449 213.995C89.6908 206.391 93.4937 199.04 97.8225 192L133 192.027Z" fill="#4285F4"/>
<path opacity="0.1" d="M147.013 282.255V365.805H277.89V282.255H147.013ZM147.013 368.385V440.168C147.76 440.322 148.5 440.475 149.239 440.602C150.239 440.795 151.239 440.968 152.245 441.122C152.439 441.122 152.639 441.182 152.839 441.202C153.239 441.268 153.645 441.322 154.045 441.375C155.051 441.515 156.045 441.628 157.078 441.722L158.517 441.848L159.684 441.935C160.317 441.982 160.943 442.022 161.57 442.042C161.957 442.042 162.343 442.042 162.736 442.088H163.656H164.796C165.316 442.088 165.836 442.088 166.349 442.088H167.015C167.535 442.088 168.055 442.088 168.568 442.042C168.928 442.042 169.288 442.042 169.648 441.995C169.75 442.002 169.853 442.002 169.955 441.995C170.255 441.995 170.555 441.995 170.848 441.955H171.054L173.054 441.795C173.721 441.735 174.387 441.662 175.054 441.588L176.427 441.422C182.028 440.638 187.567 439.459 193.003 437.895C205.213 434.489 217.131 429.722 229.361 426.236C245.231 421.696 262.667 419.503 277.89 424.962V368.385H147.013ZM277.89 189.239V78.0102C263.561 77.8526 249.271 79.5283 235.366 82.9966C202.221 91.3229 172.461 109.389 147 132.461V189.239H153.565V191.819H147V279.675H277.89V191.819H180.579V189.239H277.89ZM446.045 151.667C437.847 151.374 429.695 148.781 422.317 144.767C408.22 137.101 396.936 125.255 384.372 115.262C358.238 94.4428 325.806 81.8767 292.553 78.7635V189.239H479.384L479.844 188.746L446.045 151.667ZM463.068 148.621L481.117 168.433V143.434C475.058 144.181 469.766 145.981 463.081 148.621H463.068ZM481.117 457.941V368.385H442.646C442.546 368.005 442.439 367.618 442.319 367.231C442.432 367.618 442.532 368.005 442.639 368.385H292.553V433.155C293.98 434.215 295.386 435.329 296.779 436.455C298.285 437.682 299.772 438.935 301.265 440.188L302.764 441.428C303.484 442.028 304.211 442.615 304.937 443.208C306.39 444.382 307.854 445.541 309.33 446.688C310.063 447.268 310.809 447.835 311.549 448.401C323.343 457.416 335.782 465.553 348.767 472.747C351.678 474.365 354.615 475.936 357.579 477.46C359.551 478.473 361.535 479.469 363.53 480.447C366.525 481.909 369.542 483.324 372.582 484.693C400.646 497.292 430.322 505.936 460.762 510.379C467.52 511.374 474.305 512.159 481.117 512.732V457.941H481.717H481.117ZM292.553 191.819V279.675H481.13V191.819H292.553ZM292.553 282.255V365.805H481.13V282.255H292.553ZM495.767 143.314V171.26L518.802 145.974C511.172 144.73 503.494 143.843 495.767 143.314ZM495.767 282.255V365.805H679.185V282.255H495.767ZM678.538 464.581L679.205 368.385H495.767V513.712C507.581 514.207 519.413 514.064 531.212 513.285V513.285H531.419C537.044 512.925 542.654 512.41 548.248 511.739H548.375C578.162 508.272 607.288 500.498 634.842 488.66L678.538 464.581ZM714.564 296.041C713.87 294.414 713.157 292.801 712.424 291.201C711.091 288.208 709.618 285.248 708.132 282.315H693.822V365.805H730C729.973 342.172 723.988 317.98 714.57 295.981L714.564 296.041ZM693.822 368.445V451.135C704.013 441.368 712.624 430.189 718.823 417.409C726.281 402.017 729.68 385.357 729.973 368.385L693.822 368.445ZM693.822 257.969V279.735H706.792C702.866 272.232 698.538 264.947 693.828 257.909L693.822 257.969ZM569.437 159.707C568.484 159.34 567.524 158.973 566.564 158.62C556.441 154.871 546.094 151.754 535.584 149.287L500.333 187.952L499.666 188.692L500.119 189.186H625.557C608.081 177.175 589.243 167.28 569.437 159.707V159.707ZM629.25 191.819H498.34L495.767 194.179V279.675H518.315H679.172V238.243C664.631 220.653 647.847 205.045 629.25 191.819V191.819Z" fill="#4285F4"/>
<path opacity="0.1" d="M133 236.027V280H72C72 279.744 72.0399 279.475 72.0665 279.219C72.1198 278.546 72.173 277.825 72.2329 277.125C72.2928 276.31 72.3726 275.489 72.4458 274.661C72.519 273.833 72.6055 272.883 72.6986 272.001C72.7918 271.119 72.8783 270.224 72.9781 269.308C73.0779 268.392 73.171 267.537 73.2775 266.662C73.3839 265.787 73.4837 264.891 73.5969 264.016C73.69 263.282 73.7832 262.555 73.883 261.821C74.0205 260.789 74.1669 259.758 74.3221 258.731C74.3221 258.576 74.3687 258.421 74.3886 258.273C75.4882 250.772 76.9874 243.337 78.8798 236L133 236.027Z" fill="#4285F4"/>
<path opacity="0.1" d="M71.256 282H133V365.826H75.7694C75.6216 366.688 75.4739 367.551 75.3127 368.414H133V436C132.903 435.971 132.809 435.936 132.718 435.893C131.079 435.224 129.46 434.555 127.862 433.853L126.821 433.378C125.182 432.616 123.563 431.806 121.965 430.95C121.401 430.656 120.837 430.348 120.279 430.034C111.265 425.023 103.072 418.669 95.9858 411.193C95.7776 410.992 95.5828 410.778 95.3881 410.577C94.4075 409.514 93.4336 408.43 92.5 407.334L91.459 406.096C90.3507 404.759 89.2828 403.361 88.2485 401.956C88.094 401.749 87.9463 401.535 87.7918 401.334C83.5536 395.497 80.04 389.171 77.3276 382.493C77.2403 382.292 77.1597 382.078 77.0858 381.878C76.2395 379.755 75.4851 377.599 74.8224 375.41C74.547 374.494 74.2716 373.571 74.0433 372.641C73.956 372.367 73.8888 372.086 73.8149 371.818C70.3895 358.395 70 344.443 70 330.564C70 328.946 70 327.329 70 325.715C70 320.101 70.0537 314.472 70.1612 308.827C70.1948 307.369 70.2216 305.911 70.2552 304.446C70.3425 300.727 70.4567 297.002 70.6179 293.283C70.6582 292.253 70.7052 291.217 70.7589 290.193C70.7589 289.598 70.8127 289.003 70.853 288.414C70.9806 286.274 71.1082 284.14 71.256 282Z" fill="#4285F4"/>
<path opacity="0.1" d="M193 204.546V280H147V204.546H153.554V179H180.484V204.546H193Z" fill="#4285F4"/>
<path opacity="0.1" d="M193 282H147V366H193V282Z" fill="#4285F4"/>
<path opacity="0.1" d="M147 369H193V437.845C187.574 439.396 182.044 440.562 176.451 441.333C175.992 441.399 175.54 441.452 175.08 441.505C174.415 441.577 173.75 441.65 173.084 441.709L171.088 441.868H170.875C170.589 441.868 170.289 441.901 169.99 441.908C169.888 441.914 169.786 441.914 169.684 441.908C169.318 441.908 168.959 441.947 168.599 441.954C168.087 441.954 167.575 441.987 167.049 442H166.383C165.871 442 165.359 442 164.833 442H163.702C163.389 442 163.083 442 162.777 442C162.471 442 162.005 442 161.612 441.954C160.987 441.954 160.361 441.894 159.729 441.848L158.572 441.762L157.128 441.637C156.116 441.544 155.131 441.425 154.1 441.293C153.707 441.24 153.295 441.187 152.896 441.121C152.696 441.121 152.496 441.069 152.31 441.042C151.305 440.89 150.314 440.718 149.309 440.527C148.564 440.401 147.825 440.249 147.08 440.097L147 369Z" fill="#4285F4"/>
<path opacity="0.1" d="M481 196H443V280H481V196Z" fill="#4285F4"/>
<path opacity="0.1" d="M481 282V366H293V329.774H393.136V351.141H443.121V282H481Z" fill="#4285F4"/>
<path opacity="0.1" d="M482 458.023H481.401V513C474.596 512.425 467.818 511.638 461.066 510.639C430.648 506.176 400.995 497.493 372.955 484.839C364.858 481.175 356.928 477.18 349.164 472.855C336.193 465.638 323.766 457.475 311.983 448.433C309.022 446.155 306.099 443.825 303.214 441.444C301.217 439.786 299.219 438.101 297.221 436.442C295.836 435.312 294.432 434.195 293 433.099V368.157H442.942C442.835 367.776 442.735 367.388 442.629 367C442.742 367.388 442.848 367.776 442.948 368.157H481.401V457.983L482 458.023Z" fill="#4285F4"/>
<path opacity="0.1" d="M580 189H556V181.43H566.756V159C567.687 159.346 568.617 159.705 569.542 160.065V181.43H580V189Z" fill="#4285F4"/>
<path opacity="0.1" d="M640 280H518.544H518.584H518.53H496V195.699H502.387V258.012H531.557V221.133H555.659V192H580.387V221.133H604.483V258.012H640V280Z" fill="#4285F4"/>
<path opacity="0.1" d="M496 282V365.642H639.785V282H496ZM678.801 464.113L679 397.909H639.765V368.224H496V513.712C507.787 514.207 519.592 514.064 531.364 513.284V513.284H531.571C537.183 512.924 542.78 512.408 548.362 511.736H548.488C578.207 508.266 607.267 500.483 634.758 488.632" fill="#4285F4"/>
<path opacity="0.1" d="M696.522 369H730C729.708 385.819 726.316 402.327 718.889 417.58C712.723 430.244 704.142 441.322 694 451V398.35H696.522V369Z" fill="#4285F4"/>
<path opacity="0.1" d="M730 366H696V296H714.398C723.917 318.055 729.966 342.308 730 366Z" fill="#4285F4"/>
<path opacity="0.1" d="M481 219H461V246H481V219Z" fill="#4285F4"/>
<path opacity="0.1" d="M481 274H461V280H481V274Z" fill="#4285F4"/>
<path opacity="0.1" d="M481 282H461V300H481V282Z" fill="#4285F4"/>
<path opacity="0.1" d="M481 328H461V355H481V328Z" fill="#4285F4"/>
<path opacity="0.1" d="M481 383H461V409H481V383Z" fill="#4285F4"/>
<path opacity="0.1" d="M481.399 457.93L482 457.969H481.399V464H461V438H481.399V457.93Z" fill="#4285F4"/>
<path opacity="0.1" d="M687.27 481.57V512.14C677.05 511.28 666.87 510.103 656.73 508.61V481.61L687.27 481.57Z" fill="#4285F4"/>
<path opacity="0.1" d="M380 364H293V366H380V364Z" fill="#4285F4"/>
<path opacity="0.1" d="M380 369H293V376H380V369Z" fill="#4285F4"/>
<path opacity="0.1" d="M380 400H293V412H380V400Z" fill="#4285F4"/>
<path opacity="0.1" d="M380 437V448H311.775C308.812 445.913 305.886 443.773 302.998 441.579C300.999 440.063 298.999 438.51 297 437H380Z" fill="#4285F4"/>
<path opacity="0.1" d="M535.2 452.15V470.08H524.4C512.24 464.6 500.33 458.623 488.67 452.15H535.2Z" fill="#4285F4"/>
<path opacity="0.1" d="M548 291H531V308H548V291Z" fill="#4285F4"/>
<path opacity="0.1" d="M177 211H160V228H177V211Z" fill="#4285F4"/>
<path opacity="0.1" d="M177 250H160V268H177V250Z" fill="#4285F4"/>
<path opacity="0.1" d="M177 290H160V307H177V290Z" fill="#4285F4"/>
<path opacity="0.1" d="M177 330H160V347H177V330Z" fill="#4285F4"/>
<path opacity="0.1" d="M177 370H160V387H177V370Z" fill="#4285F4"/>
<path opacity="0.1" d="M177 410H160V427H177V410Z" fill="#4285F4"/>
<path opacity="0.1" d="M614 291H597V308H614V291Z" fill="#4285F4"/>
<path opacity="0.1" d="M701.5 594C726.077 594 746 589.299 746 583.5C746 577.701 726.077 573 701.5 573C676.923 573 657 577.701 657 583.5C657 589.299 676.923 594 701.5 594Z" fill="#4285F4"/>
<path d="M733.21 477.451C732.25 478.764 731.486 480.209 730.94 481.741C730.79 482.111 730.66 482.541 730.52 482.951C730.266 482.834 730.001 482.74 729.73 482.671C728.563 482.382 727.358 482.281 726.16 482.371C726.16 481.901 726.21 481.371 726.23 480.901C726.37 475.631 725.75 468.291 720.73 471.401C715.9 474.401 719.34 479.401 722.45 482.601L723.25 483.391C720.42 485.391 719.88 490.121 719.4 495.031C718.92 499.941 714.76 505.301 712.02 508.371L711.24 509.211C710.126 508.324 708.838 507.681 707.46 507.325C706.082 506.968 704.644 506.905 703.24 507.141L702.87 505.791C700.63 497.701 695.98 483.691 690.05 480.621C690.3 480.311 690.56 479.991 690.83 479.621C693.35 476.331 696.18 471.431 691.99 470.181C687.8 468.931 687.43 474.431 687.66 478.541C687.66 479.061 687.7 479.551 687.78 480.011C686.941 480.049 686.119 480.258 685.363 480.626C684.608 480.994 683.937 481.513 683.39 482.151L682.75 481.381C679.35 477.381 673.11 471.011 671.23 475.821C669.47 480.301 674.96 486.121 678.82 489.491L679.06 489.701C676.46 500.211 687.78 508.781 693.87 512.531L694.65 513.011C686.25 522.911 681.07 541.471 681.07 541.471L704.59 545.671C704.59 545.671 720.18 532.211 718.19 519.571C718.243 519.575 718.297 519.575 718.35 519.571C733.93 516.451 737.48 499.831 735.05 489.971L735.33 489.851C738.166 488.686 740.65 486.805 742.54 484.391C746.84 478.301 737.69 471.501 733.21 477.451Z" fill="#4285F4"/>
<path opacity="0.1" d="M733.21 477.451C732.25 478.764 731.486 480.209 730.94 481.741C730.79 482.111 730.66 482.541 730.52 482.951C730.266 482.834 730.001 482.74 729.73 482.671C728.563 482.382 727.358 482.281 726.16 482.371C726.16 481.901 726.21 481.371 726.23 480.901C726.37 475.631 725.75 468.291 720.73 471.401C715.9 474.401 719.34 479.401 722.45 482.601L723.25 483.391C720.42 485.391 719.88 490.121 719.4 495.031C718.92 499.941 714.76 505.301 712.02 508.371L711.24 509.211C710.126 508.324 708.838 507.681 707.46 507.325C706.082 506.968 704.644 506.905 703.24 507.141L702.87 505.791C700.63 497.701 695.98 483.691 690.05 480.621C690.3 480.311 690.56 479.991 690.83 479.621C693.35 476.331 696.18 471.431 691.99 470.181C687.8 468.931 687.43 474.431 687.66 478.541C687.66 479.061 687.7 479.551 687.78 480.011C686.941 480.049 686.119 480.258 685.363 480.626C684.608 480.994 683.937 481.513 683.39 482.151L682.75 481.381C679.35 477.381 673.11 471.011 671.23 475.821C669.47 480.301 674.96 486.121 678.82 489.491L679.06 489.701C676.46 500.211 687.78 508.781 693.87 512.531L694.65 513.011C686.25 522.911 681.07 541.471 681.07 541.471L704.59 545.671C704.59 545.671 720.18 532.211 718.19 519.571C718.243 519.575 718.297 519.575 718.35 519.571C733.93 516.451 737.48 499.831 735.05 489.971L735.33 489.851C738.166 488.686 740.65 486.805 742.54 484.391C746.84 478.301 737.69 471.501 733.21 477.451Z" fill="black"/>
<path d="M705.72 511.591L698.88 514.591C697.632 513.966 696.417 513.278 695.24 512.531C688.05 508.111 673.59 496.981 683.24 483.861C692.89 470.741 701.01 494.271 704.24 505.781C705.2 509.231 705.72 511.591 705.72 511.591Z" fill="#4285F4"/>
<path d="M719.72 519.551C719.34 519.631 718.96 519.701 718.57 519.761C695.64 523.241 711.01 510.871 711.01 510.871C711.01 510.871 712.01 509.871 713.44 508.371C716.2 505.311 720.37 499.971 720.84 495.031C721.56 487.601 722.4 480.631 731.17 482.671C739.78 484.691 741.42 515.211 719.72 519.551Z" fill="#4285F4"/>
<path d="M725.76 539.201H668.52V579.401H725.76V539.201Z" fill="#D4DFEC"/>
<path opacity="0.1" d="M725.76 539.201H668.52V579.401H725.76V539.201Z" fill="black"/>
<path opacity="0.1" d="M704.24 505.791C705.24 509.231 705.72 511.591 705.72 511.591L698.88 514.591C697.633 513.966 696.418 513.278 695.24 512.531C697.92 509.141 700.94 506.581 704.24 505.791Z" fill="black"/>
<path opacity="0.1" d="M719.72 519.551C719.34 519.631 718.96 519.701 718.57 519.761C695.64 523.241 711.01 510.871 711.01 510.871C711.01 510.871 712.01 509.871 713.44 508.371C717.72 511.791 719.49 515.651 719.72 519.551Z" fill="black"/>
<path d="M682.44 541.481C682.44 541.481 695.28 495.481 713.28 509.681C731.28 523.881 705.96 545.681 705.96 545.681L682.44 541.481Z" fill="#4285F4"/>
<path opacity="0.1" d="M688.8 499.241C689.595 499.241 690.24 498.596 690.24 497.801C690.24 497.006 689.595 496.361 688.8 496.361C688.005 496.361 687.36 497.006 687.36 497.801C687.36 498.596 688.005 499.241 688.8 499.241Z" fill="black"/>
<path opacity="0.1" d="M696.96 528.281C697.755 528.281 698.4 527.636 698.4 526.841C698.4 526.046 697.755 525.401 696.96 525.401C696.165 525.401 695.52 526.046 695.52 526.841C695.52 527.636 696.165 528.281 696.96 528.281Z" fill="black"/>
<path opacity="0.1" d="M727.57 505.001C728.365 505.001 729.01 504.356 729.01 503.561C729.01 502.766 728.365 502.121 727.57 502.121C726.775 502.121 726.13 502.766 726.13 503.561C726.13 504.356 726.775 505.001 727.57 505.001Z" fill="black"/>
<path opacity="0.1" d="M712.68 519.881C713.476 519.881 714.12 519.236 714.12 518.441C714.12 517.645 713.476 517.001 712.68 517.001C711.885 517.001 711.24 517.645 711.24 518.441C711.24 519.236 711.885 519.881 712.68 519.881Z" fill="black"/>
<path opacity="0.1" d="M726.61 498.161C727.405 498.161 728.05 497.516 728.05 496.721C728.05 495.925 727.405 495.281 726.61 495.281C725.815 495.281 725.17 495.925 725.17 496.721C725.17 497.516 725.815 498.161 726.61 498.161Z" fill="black"/>
<path opacity="0.1" d="M721.68 509.321C722.476 509.321 723.12 508.676 723.12 507.881C723.12 507.085 722.476 506.441 721.68 506.441C720.885 506.441 720.24 507.085 720.24 507.881C720.24 508.676 720.885 509.321 721.68 509.321Z" fill="black"/>
<path opacity="0.1" d="M706.56 527.201C707.355 527.201 708 526.556 708 525.761C708 524.966 707.355 524.321 706.56 524.321C705.765 524.321 705.12 524.966 705.12 525.761C705.12 526.556 705.765 527.201 706.56 527.201Z" fill="black"/>
<path opacity="0.1" d="M703.44 520.121C704.235 520.121 704.88 519.476 704.88 518.681C704.88 517.885 704.235 517.241 703.44 517.241C702.645 517.241 702 517.885 702 518.681C702 519.476 702.645 520.121 703.44 520.121Z" fill="black"/>
<path opacity="0.1" d="M696 504.161C696.795 504.161 697.44 503.516 697.44 502.721C697.44 501.925 696.795 501.281 696 501.281C695.205 501.281 694.56 501.925 694.56 502.721C694.56 503.516 695.205 504.161 696 504.161Z" fill="black"/>
<path d="M728.64 539.201H671.4V579.401H728.64V539.201Z" fill="#D4DFEC"/>
<path opacity="0.1" d="M708.48 533.681C709.275 533.681 709.92 533.036 709.92 532.241C709.92 531.445 709.275 530.801 708.48 530.801C707.685 530.801 707.04 531.445 707.04 532.241C707.04 533.036 707.685 533.681 708.48 533.681Z" fill="black"/>
<path opacity="0.1" d="M699.84 535.481C700.635 535.481 701.28 534.836 701.28 534.041C701.28 533.246 700.635 532.601 699.84 532.601C699.045 532.601 698.4 533.246 698.4 534.041C698.4 534.836 699.045 535.481 699.84 535.481Z" fill="black"/>
<path d="M551.456 146.043L482.954 146.71C479.734 130.859 468.916 89.2677 478.659 77.9232C479.103 73.6534 481.177 69.7195 484.448 66.9402C487.72 64.1609 491.938 62.7505 496.223 63.0026V63.0026C506.84 46.3828 524.525 48.8782 536.478 59.258C548.507 63.4087 553.042 70.7828 551.457 80.7897C560.365 88.5877 562.009 98.0751 558.01 108.875L551.456 146.043Z" fill="#2F2E41"/>
<path d="M544.862 188.242L495.44 181.399L485.555 166.953C499.171 157.921 503.989 145.306 497.721 128.175L531.936 127.415C530.333 142.67 535.378 154.481 549.424 161.63L544.862 188.242Z" fill="#FFB9B9"/>
<path d="M516.729 140.34C535.626 140.34 550.945 125.022 550.945 106.125C550.945 87.2282 535.626 71.9094 516.729 71.9094C497.832 71.9094 482.514 87.2282 482.514 106.125C482.514 125.022 497.832 140.34 516.729 140.34Z" fill="#FFB9B9"/>
<path d="M584.4 377.568L446.017 379.089C466.554 300.908 478.839 228.284 457.422 178.358L491.638 161.63C508.136 178.838 526.509 177.064 546.383 160.109L579.077 168.473C573.478 233.944 575.988 304.064 584.4 377.568Z" fill="#4285F4"/>
<path d="M408 296.972L493.919 331.187L513.128 336.837C513.988 337.09 514.889 337.166 515.779 337.062C516.668 336.957 517.527 336.674 518.304 336.229C519.082 335.784 519.761 335.187 520.302 334.473C520.842 333.758 521.233 332.942 521.45 332.074C521.831 330.55 521.66 328.941 520.967 327.531C520.275 326.122 519.106 325.003 517.667 324.374L497.721 318.261L437.653 283.285L450.199 250.21L423.967 236.144L408 296.972Z" fill="#FFB9B9"/>
<path d="M408.76 234.623C425.107 241.001 438.109 251.885 448.298 266.558L480.233 220.177L457.422 178.358L408.76 234.623Z" fill="#4285F4"/>
<path d="M555.292 100.58C541.405 97.0016 527.752 96.5103 514.479 101.049C506.025 105.144 495.872 104.766 484.58 101.392V67.2556L545.539 68.8812L555.292 100.58Z" fill="#2F2E41"/>
<path d="M493.634 257.106C490.947 257.109 488.371 258.178 486.471 260.078C484.572 261.977 483.503 264.553 483.5 267.24L487.5 350.972C487.503 353.659 488.572 356.235 490.471 358.135C492.371 360.034 494.947 361.103 497.634 361.106H543.366C546.053 361.103 548.629 360.034 550.529 358.135C552.428 356.235 553.497 353.659 553.5 350.972L557.5 267.24C557.497 264.553 556.428 261.977 554.529 260.078C552.629 258.178 550.053 257.109 547.366 257.106H493.634Z" fill="#3F3D56"/>
<path d="M623.39 290.646L548.5 320.466L542.85 322.716C542.67 322.786 542.49 322.846 542.3 322.906L523.37 328.476C520.95 329.186 517.6 325.926 515.64 323.676C514.67 322.592 514.12 321.196 514.091 319.741C514.061 318.286 514.554 316.869 515.48 315.746C515.742 315.445 516.029 315.167 516.34 314.916C517.07 314.348 517.929 313.97 518.84 313.816L537.75 310.096C538.429 309.963 539.08 309.72 539.68 309.376L548.5 304.236L594.29 277.576C595.564 276.836 596.533 275.668 597.026 274.28C597.518 272.891 597.502 271.373 596.98 269.996L588.24 246.946C587.704 245.536 587.7 243.979 588.228 242.565C588.756 241.152 589.781 239.979 591.11 239.266L605.59 231.506C606.418 231.062 607.335 230.811 608.273 230.773C609.212 230.735 610.146 230.91 611.007 231.286C611.868 231.661 612.632 232.227 613.242 232.941C613.853 233.655 614.293 234.497 614.53 235.406L627.1 283.286C627.487 284.754 627.323 286.313 626.639 287.669C625.956 289.025 624.8 290.084 623.39 290.646V290.646Z" fill="#FFB9B9"/>
<path d="M627.74 226.259C611.393 232.637 598.391 243.521 588.202 258.194L556.267 211.813L579.077 168.473L627.74 226.259Z" fill="#4285F4"/>
<path d="M559.64 238.202H556.026C556.026 187.091 545.502 151.473 535.247 151.473L534.344 147.859C543.541 147.859 549.404 162.683 552.703 175.12C557.176 191.979 559.64 214.382 559.64 238.202Z" fill="#3F3D56"/>
<path d="M476.525 225.554H472.911C472.911 178.745 483.507 149.666 499.11 149.666L498.207 153.28C487.414 153.28 476.525 175.628 476.525 225.554Z" fill="#3F3D56"/>
<path d="M557.833 248.14C562.822 248.14 566.867 244.095 566.867 239.105C566.867 234.116 562.822 230.071 557.833 230.071C552.843 230.071 548.799 234.116 548.799 239.105C548.799 244.095 552.843 248.14 557.833 248.14Z" fill="#3F3D56"/>
<path d="M462.07 247.236H458.456C458.456 234.284 465.751 223.747 474.718 223.747V227.361C467.743 227.361 462.07 236.277 462.07 247.236Z" fill="#3F3D56"/>
<path d="M490.979 247.236H487.366C487.366 236.277 481.692 227.361 474.718 227.361V223.747C483.685 223.747 490.979 234.284 490.979 247.236Z" fill="#3F3D56"/>
<path d="M489.173 251.753C491.168 251.753 492.786 250.135 492.786 248.14C492.786 246.144 491.168 244.526 489.173 244.526C487.177 244.526 485.559 246.144 485.559 248.14C485.559 250.135 487.177 251.753 489.173 251.753Z" fill="#3F3D56"/>
<path d="M460.263 251.753C462.259 251.753 463.877 250.135 463.877 248.14C463.877 246.144 462.259 244.526 460.263 244.526C458.267 244.526 456.649 246.144 456.649 248.14C456.649 250.135 458.267 251.753 460.263 251.753Z" fill="#3F3D56"/>
<path d="M544.102 637.606L526.194 635.809L508.366 445.239L501.628 635.195L484.034 634.565L454.381 371.485H567.672L544.102 637.606Z" fill="#4285F4"/>
<path opacity="0.1" d="M523.44 661.807C565.657 661.807 599.88 655.582 599.88 647.904C599.88 640.225 565.657 634 523.44 634C481.223 634 447 640.225 447 647.904C447 655.582 481.223 661.807 523.44 661.807Z" fill="#4285F4"/>
<path d="M504.956 652.799C504.956 652.799 493.97 655.266 486.812 654.607C483.012 654.255 481.467 651.372 480.864 648.742C480.54 647.293 480.423 645.79 480.515 644.285L483.343 633.142L484 628.5V628.5C489.317 625.685 495.683 625.685 501 628.5V628.5L501.503 632.978L501.611 633.553C502.054 636.112 503.842 646.484 503.396 648.513C503.299 649.041 503.299 649.581 503.397 650.102C503.495 650.622 503.688 651.112 503.965 651.541C504.244 652.007 504.577 652.429 504.956 652.799Z" fill="white"/>
<path opacity="0.1" d="M504.973 652.7C504.973 652.7 493.972 655.254 486.812 654.607C483.011 654.261 481.475 651.324 480.881 648.643C483.336 650.08 486.793 651.73 488.861 651.097C491.315 650.334 499.458 650.952 504.009 651.394C504.277 651.877 504.601 652.316 504.973 652.7V652.7Z" fill="black"/>
<path d="M557.99 650.239C558.01 650.506 557.987 650.776 557.922 651.034C557.922 651.034 541.243 654.18 537.832 651.034C536.873 650.115 535.755 649.432 534.55 649.03C533.345 648.628 532.079 648.516 530.833 648.699C530.833 648.699 524.38 648.898 523.303 646.491C522.854 645.481 522.971 643.522 523.249 641.595C523.533 639.784 523.91 637.992 524.38 636.23L524.638 635.999L526.173 634.602L544.148 634.001H544.285C544.197 638.162 550.382 642.937 550.382 642.937C556.966 645.696 557.936 648.815 557.99 650.239Z" fill="white"/>
<path opacity="0.1" d="M557.995 650.239C558.012 650.507 557.987 650.776 557.922 651.034C557.922 651.034 541.243 654.18 537.836 651.034C536.877 650.114 535.758 649.431 534.552 649.029C533.346 648.627 532.079 648.515 530.833 648.699C530.833 648.699 524.375 648.898 523.298 646.491C522.854 645.481 522.966 643.522 523.244 641.59C525.73 641.871 529.653 642.572 531.193 644.25C533.523 646.789 537.471 649.328 539.888 649.533C541.799 649.665 553.16 650.073 557.995 650.239Z" fill="black"/>
<path opacity="0.1" d="M187.79 564.564C247.873 564.564 296.58 556.312 296.58 546.134C296.58 535.955 247.873 527.704 187.79 527.704C127.707 527.704 79 535.955 79 546.134C79 556.312 127.707 564.564 187.79 564.564Z" fill="#4285F4"/>
<path d="M108.73 545.754H271.87C273.447 545.745 274.995 545.329 276.363 544.545C277.732 543.762 278.874 542.637 279.679 541.281C280.484 539.925 280.925 538.384 280.959 536.808C280.992 535.231 280.617 533.673 279.87 532.284L198.34 380.804C197.558 379.352 196.398 378.138 194.983 377.292C193.567 376.447 191.949 376 190.3 376C188.651 376 187.033 376.447 185.617 377.292C184.201 378.138 183.041 379.352 182.26 380.804L100.69 532.284C99.9412 533.676 99.5662 535.238 99.6014 536.818C99.6366 538.398 100.081 539.941 100.891 541.298C101.701 542.655 102.849 543.779 104.223 544.56C105.597 545.341 107.15 545.752 108.73 545.754V545.754ZM200.68 518.074H179.92V497.324H200.68V518.074ZM200.68 483.484H179.92V441.974H200.68V483.484Z" fill="#464353"/>
<path opacity="0.1" d="M108.73 545.754H271.87C273.447 545.745 274.995 545.329 276.363 544.545C277.732 543.762 278.874 542.637 279.679 541.281C280.484 539.925 280.925 538.384 280.959 536.808C280.992 535.231 280.617 533.673 279.87 532.284L198.34 380.804C197.558 379.352 196.398 378.138 194.983 377.292C193.567 376.447 191.949 376 190.3 376C188.651 376 187.033 376.447 185.617 377.292C184.201 378.138 183.041 379.352 182.26 380.804L100.69 532.284C99.9412 533.676 99.5662 535.238 99.6014 536.818C99.6366 538.398 100.081 539.941 100.891 541.298C101.701 542.655 102.849 543.779 104.223 544.56C105.597 545.341 107.15 545.752 108.73 545.754ZM200.68 518.074H179.92V497.324H200.68V518.074ZM200.68 483.484H179.92V441.974H200.68V483.484Z" fill="black"/>
</svg>
