<svg width="85" height="85" viewBox="0 0 85 85" fill="none" xmlns="http://www.w3.org/2000/svg">
<circle cx="42.411" cy="42.411" r="39.911" fill="white" stroke="#4285F4" stroke-width="5"/>
<path d="M35.3014 37.8592C35.3014 40.3486 32.6672 36.7324 29.4178 36.7324C26.1684 36.7324 23.5342 40.3486 23.5342 37.8592C23.5342 35.3699 26.1684 26.9666 29.4178 26.9666C32.6672 26.9666 35.3014 35.3699 35.3014 37.8592Z" fill="#4285F4"/>
<path d="M62.7584 37.8592C62.7584 40.3486 60.1242 36.7324 56.8748 36.7324C53.6254 36.7324 50.9912 40.3486 50.9912 37.8592C50.9912 35.3699 53.6254 26.9666 56.8748 26.9666C60.1242 26.9666 62.7584 35.3699 62.7584 37.8592Z" fill="#4285F4"/>
<path d="M59.1538 58.744C47.0452 68.7307 36.3335 66.2779 26.9119 59.0872C25.9909 58.3843 26.918 56.9885 27.9862 57.4371C32.4008 59.291 38.2796 61.3102 42.9013 61.2875C47.6299 61.2644 53.6966 59.06 58.0631 57.1558C59.1067 56.7007 60.0321 58.0196 59.1538 58.744Z" fill="#4285F4" stroke="#4285F4" stroke-linecap="round"/>
</svg>
