<svg height="607.45001" viewBox="0 0 1008.92047 607.45001" width="1008.92047" xmlns="http://www.w3.org/2000/svg"><path d="m1104.46 620.305a15.34 15.34 0 0 1 -15.25958 15.42h-671.40042a15.34 15.34 0 0 1 -15.26-15.41962v-458.61038a15.34 15.34 0 0 1 15.25957-15.42h671.40043a15.34 15.34 0 0 1 15.26 15.41959v.00043z" fill="#e6e6e6" transform="translate(-95.53976 -146.27499)"/><path d="m1096.54 612.795a14.91 14.91 0 0 1 -14.91 14.91h-655.8a14.91 14.91 0 0 1 -14.91-14.91v-443.38a14.91 14.91 0 0 1 14.91-14.91h655.83a14.91 14.91 0 0 1 14.88 14.91z" fill="#fff" transform="translate(-95.53976 -146.27499)"/><path d="m350.43023 27.48h616.22a8.85 8.85 0 0 1 8.85 8.85v415.28a8.85 8.85 0 0 1 -8.85 8.85h-616.22a8.85 8.85 0 0 1 -8.85-8.85v-415.28a8.85 8.85 0 0 1 8.85-8.85z" fill="#e6e6e6"/><path d="m358.23023 37.44h599.95a8.85 8.85 0 0 1 8.85 8.85v393.12a8.85 8.85 0 0 1 -8.85 8.85h-599.95a8.85 8.85 0 0 1 -8.85-8.85v-393.12a8.85 8.85 0 0 1 8.85-8.85z" fill="#fff"/><path d="m877.37572 456.8078a16.86941 16.86941 0 0 1 -6.85316-1.46024 8.31363 8.31363 0 0 1 -1.42861-.81184l-43.60186-30.69158a16.86934 16.86934 0 0 1 -7.15892-13.79065v-41.85695a16.86933 16.86933 0 0 1 7.1589-13.79066l43.60186-30.69158a8.31367 8.31367 0 0 1 1.42862-.81183 16.86929 16.86929 0 0 1 23.72245 15.41432v101.61644a16.8693 16.8693 0 0 1 -16.8693 16.8693z" fill="#3f3d56" transform="translate(-95.53976 -146.27499)"/><path d="m779.7948 465.03685h-121.6078c-24.81022-.02033-44.91651-16.0578-44.942-35.84726v-80.12917c.0255-19.78946 20.13179-35.82692 44.942-35.84726h121.925c24.63351.02325 44.59564 15.94572 44.62477 35.59423v80.3822c-.02546 19.78946-20.13177 35.82693-44.94197 35.84726z" fill="#3f3d56" transform="translate(-95.53976 -146.27499)"/><circle cx="900.87945" cy="386.81368" fill="#e6e6e6" r="36.16732"/><g transform="translate(-95.53976 -146.27499)"><path d="m1015.20446 532.44038-28.82923-16.64457a.7486.7486 0 0 0 -1.12289.6483v33.28913a.74859.74859 0 0 0 1.12289.6483l28.82923-16.64456a.74859.74859 0 0 0 0-1.2966l-28.82923-16.64457a.7486.7486 0 0 0 -1.12289.6483v33.28913a.74859.74859 0 0 0 1.12289.6483l28.82923-16.64456a.74859.74859 0 0 0 0-1.2966z" fill="#fff"/><path d="m949.46 675.305a15.34 15.34 0 0 1 -15.25958 15.42h-671.40042a15.34 15.34 0 0 1 -15.26-15.41962v-458.61038a15.34 15.34 0 0 1 15.25957-15.42h671.40043a15.34 15.34 0 0 1 15.26 15.41959v.00043z" fill="#e6e6e6"/><path d="m941.54 667.795a14.91 14.91 0 0 1 -14.91 14.91h-655.8a14.91 14.91 0 0 1 -14.91-14.91v-443.38a14.91 14.91 0 0 1 14.91-14.91h655.83a14.91 14.91 0 0 1 14.88 14.91z" fill="#fff"/></g><path d="m195.43022 82.48h616.22a8.85 8.85 0 0 1 8.85 8.85v415.28a8.85 8.85 0 0 1 -8.85 8.85h-616.22a8.85 8.85 0 0 1 -8.85-8.85v-415.28a8.85 8.85 0 0 1 8.85-8.85z" fill="#e6e6e6"/><path d="m203.23023 92.44h599.95a8.85 8.85 0 0 1 8.85 8.85v393.12a8.85 8.85 0 0 1 -8.85 8.85h-599.95a8.85 8.85 0 0 1 -8.85-8.85v-393.12a8.85 8.85 0 0 1 8.85-8.85z" fill="#fff"/><path d="m722.37572 511.8078a16.86941 16.86941 0 0 1 -6.85316-1.46024 8.31363 8.31363 0 0 1 -1.42861-.81184l-43.60186-30.69158a16.86934 16.86934 0 0 1 -7.15892-13.79065v-41.85695a16.86933 16.86933 0 0 1 7.1589-13.79066l43.60186-30.69158a8.31367 8.31367 0 0 1 1.42862-.81183 16.86929 16.86929 0 0 1 23.72245 15.41432v101.61644a16.8693 16.8693 0 0 1 -16.8693 16.8693z" fill="#3f3d56" transform="translate(-95.53976 -146.27499)"/><path d="m624.7948 520.03685h-121.6078c-24.81022-.02033-44.91651-16.0578-44.942-35.84726v-80.12917c.0255-19.78946 20.13179-35.82692 44.942-35.84726h121.925c24.63351.02325 44.59564 15.94572 44.62477 35.59423v80.3822c-.02546 19.78946-20.13177 35.82693-44.94197 35.84726z" fill="#3f3d56" transform="translate(-95.53976 -146.27499)"/><circle cx="745.87945" cy="441.81368" fill="#e6e6e6" r="36.16732"/><path d="m860.20446 587.44038-28.82923-16.64457a.7486.7486 0 0 0 -1.12289.6483v33.28913a.74859.74859 0 0 0 1.12289.6483l28.82923-16.64454a.74859.74859 0 0 0 0-1.2966l-28.82923-16.64457a.7486.7486 0 0 0 -1.12289.6483v33.28913a.74859.74859 0 0 0 1.12289.6483l28.82923-16.64456a.74859.74859 0 0 0 0-1.29662z" fill="#fff" transform="translate(-95.53976 -146.27499)"/><path d="m797.46 738.305a15.34 15.34 0 0 1 -15.25958 15.42h-671.40042a15.34 15.34 0 0 1 -15.26-15.41962v-458.61038a15.34 15.34 0 0 1 15.25957-15.42h671.40043a15.34 15.34 0 0 1 15.26 15.41959v.00043z" fill="#e6e6e6" transform="translate(-95.53976 -146.27499)"/><path d="m789.54 730.795a14.91 14.91 0 0 1 -14.91 14.91h-655.8a14.91 14.91 0 0 1 -14.91-14.91v-443.38a14.91 14.91 0 0 1 14.91-14.91h655.83a14.91 14.91 0 0 1 14.88 14.91z" fill="#fff" transform="translate(-95.53976 -146.27499)"/><path d="m43.43022 145.48h616.22a8.85 8.85 0 0 1 8.85 8.85v415.28a8.85 8.85 0 0 1 -8.85 8.85h-616.22a8.85 8.85 0 0 1 -8.85-8.85v-415.28a8.85 8.85 0 0 1 8.85-8.85z" fill="#e6e6e6"/><path d="m51.23023 155.44h599.95a8.85 8.85 0 0 1 8.85 8.85v393.12a8.85 8.85 0 0 1 -8.85 8.85h-599.95a8.85 8.85 0 0 1 -8.85-8.85v-393.12a8.85 8.85 0 0 1 8.85-8.85z" fill="#fff"/><path d="m570.37572 574.8078a16.86941 16.86941 0 0 1 -6.85316-1.46024 8.31363 8.31363 0 0 1 -1.42861-.81184l-43.60186-30.69158a16.86934 16.86934 0 0 1 -7.15892-13.79065v-41.85695a16.86933 16.86933 0 0 1 7.1589-13.79066l43.60186-30.69158a8.31367 8.31367 0 0 1 1.42862-.81183 16.86929 16.86929 0 0 1 23.72245 15.41432v101.61644a16.8693 16.8693 0 0 1 -16.8693 16.8693z" fill="#80b2ff" transform="translate(-95.53976 -146.27499)"/><path d="m472.7948 583.03685h-121.6078c-24.81022-.02033-44.91651-16.0578-44.942-35.84726v-80.12917c.0255-19.78946 20.13179-35.82692 44.942-35.84726h121.925c24.63351.02325 44.59564 15.94572 44.62477 35.59423v80.3822c-.02546 19.78946-20.13177 35.82693-44.94197 35.84726z" fill="#80b2ff" transform="translate(-95.53976 -146.27499)"/><circle cx="593.87945" cy="504.81368" fill="#3f3d56" r="36.16732"/><path d="m708.20446 650.44038-28.82923-16.64457a.7486.7486 0 0 0 -1.12289.6483v33.28913a.74859.74859 0 0 0 1.12289.6483l28.82923-16.64454a.74859.74859 0 0 0 0-1.2966l-28.82923-16.64457a.7486.7486 0 0 0 -1.12289.6483v33.28913a.74859.74859 0 0 0 1.12289.6483l28.82923-16.64456a.74859.74859 0 0 0 0-1.29662z" fill="#fff" transform="translate(-95.53976 -146.27499)"/></svg>